<svg width="372" height="402" viewBox="0 0 372 402" fill="none" xmlns="http://www.w3.org/2000/svg">
<mask id="mask0" mask-type="alpha" maskUnits="userSpaceOnUse" x="0" y="0" width="405" height="402">
<ellipse cx="202.529" cy="201.195" rx="165.326" ry="163.617" transform="rotate(165.241 202.529 201.195)" fill="#FF33FF"/>
</mask>
<g mask="url(#mask0)">
<line y1="-2" x2="487.611" y2="-2" transform="matrix(-0.582089 0.812563 -0.819222 -0.574276 331.065 315.749)" stroke="#A5A5A5" stroke-opacity="0.2" stroke-width="4"/>
<line y1="-2" x2="487.611" y2="-2" transform="matrix(-0.582089 0.812563 -0.819222 -0.574276 246.64 254.918)" stroke="#A5A5A5" stroke-opacity="0.2" stroke-width="4"/>
<line y1="-2" x2="487.611" y2="-2" transform="matrix(-0.582089 0.812563 -0.819222 -0.574276 287.683 286.451)" stroke="#A5A5A5" stroke-opacity="0.2" stroke-width="4"/>
<line y1="-2" x2="487.611" y2="-2" transform="matrix(-0.582089 0.812563 -0.819222 -0.574276 203.257 225.619)" stroke="#A5A5A5" stroke-opacity="0.2" stroke-width="4"/>
<line y1="-2" x2="487.611" y2="-2" transform="matrix(-0.582089 0.812563 -0.819222 -0.574276 308.922 300.866)" stroke="#A5A5A5" stroke-opacity="0.2" stroke-width="4"/>
<line y1="-2" x2="487.611" y2="-2" transform="matrix(-0.582089 0.812563 -0.819222 -0.574276 224.494 240.034)" stroke="#A5A5A5" stroke-opacity="0.2" stroke-width="4"/>
<line y1="-2" x2="487.611" y2="-2" transform="matrix(-0.582089 0.812563 -0.819222 -0.574276 265.539 271.568)" stroke="#A5A5A5" stroke-opacity="0.2" stroke-width="4"/>
<line y1="-2" x2="487.611" y2="-2" transform="matrix(-0.582089 0.812563 -0.819222 -0.574276 181.112 210.736)" stroke="#A5A5A5" stroke-opacity="0.2" stroke-width="4"/>
<line y1="-2" x2="487.611" y2="-2" transform="matrix(-0.582089 0.812563 -0.819222 -0.574276 319.492 310.344)" stroke="#A5A5A5" stroke-opacity="0.2" stroke-width="4"/>
<line y1="-2" x2="487.611" y2="-2" transform="matrix(-0.582089 0.812563 -0.819222 -0.574276 214.425 276.961)" stroke="#A5A5A5" stroke-opacity="0.2" stroke-width="4"/>
<line y1="-2" x2="487.611" y2="-2" transform="matrix(-0.582089 0.812563 -0.819222 -0.574276 276.109 281.045)" stroke="#A5A5A5" stroke-opacity="0.2" stroke-width="4"/>
<line y1="-2" x2="487.611" y2="-2" transform="matrix(-0.582089 0.812563 -0.819222 -0.574276 170.451 244.736)" stroke="#A5A5A5" stroke-opacity="0.2" stroke-width="4"/>
<line y1="-2" x2="487.611" y2="-2" transform="matrix(-0.582089 0.812563 -0.819222 -0.574276 297.348 295.46)" stroke="#A5A5A5" stroke-opacity="0.2" stroke-width="4"/>
<line y1="-2" x2="487.611" y2="-2" transform="matrix(-0.582089 0.812563 -0.819222 -0.574276 163.851 305.392)" stroke="#A5A5A5" stroke-opacity="0.2" stroke-width="4"/>
<path d="M240.378 289.764C129.534 444.495 67.3888 531.247 -43.4548 685.978" stroke="#A5A5A5" stroke-opacity="0.2" stroke-width="4"/>
<line y1="-2" x2="487.611" y2="-2" transform="matrix(-0.582089 0.812563 -0.819222 -0.574276 150.903 231.757)" stroke="#A5A5A5" stroke-opacity="0.2" stroke-width="4"/>
<line y1="-2" x2="487.611" y2="-2" transform="matrix(-0.582089 0.812563 -0.819222 -0.574276 161.946 197.202)" stroke="#A7A7A7" stroke-opacity="0.2" stroke-width="4"/>
<line y1="-2" x2="487.611" y2="-2" transform="matrix(-0.582089 0.812563 -0.819222 -0.574276 77.5205 136.372)" stroke="#A7A7A7" stroke-opacity="0.2" stroke-width="4"/>
<line y1="-2" x2="487.611" y2="-2" transform="matrix(-0.582089 0.812563 -0.819222 -0.574276 118.565 167.905)" stroke="#A7A7A7" stroke-opacity="0.2" stroke-width="4"/>
<line y1="-2" x2="487.611" y2="-2" transform="matrix(-0.582089 0.812563 -0.819222 -0.574276 34.1387 107.073)" stroke="#A7A7A7" stroke-opacity="0.2" stroke-width="4"/>
<line y1="-2" x2="487.611" y2="-2" transform="matrix(-0.582089 0.812563 -0.819222 -0.574276 127.281 197.191)" stroke="#A7A7A7" stroke-opacity="0.2" stroke-width="4"/>
<line y1="-2" x2="487.611" y2="-2" transform="matrix(-0.582089 0.812563 -0.819222 -0.574276 55.377 121.488)" stroke="#A7A7A7" stroke-opacity="0.2" stroke-width="4"/>
<line y1="-2" x2="487.611" y2="-2" transform="matrix(-0.582089 0.812563 -0.819222 -0.574276 96.4199 153.021)" stroke="#A7A7A7" stroke-opacity="0.2" stroke-width="4"/>
<line y1="-2" x2="487.611" y2="-2" transform="matrix(-0.582089 0.812563 -0.819222 -0.574276 11.9932 92.1901)" stroke="#A7A7A7" stroke-opacity="0.2" stroke-width="4"/>
<line y1="-2" x2="487.611" y2="-2" transform="matrix(-0.582089 0.812563 -0.819222 -0.574276 92.377 272.858)" stroke="#A7A7A7" stroke-opacity="0.2" stroke-width="4"/>
<line y1="-2" x2="487.611" y2="-2" transform="matrix(-0.582089 0.812563 -0.819222 -0.574276 65.9463 130.966)" stroke="#A7A7A7" stroke-opacity="0.2" stroke-width="4"/>
<line y1="-2" x2="487.611" y2="-2" transform="matrix(-0.582089 0.812563 -0.819222 -0.574276 106.99 162.499)" stroke="#A7A7A7" stroke-opacity="0.2" stroke-width="4"/>
<line y1="-2" x2="487.611" y2="-2" transform="matrix(-0.582089 0.812563 -0.819222 -0.574276 22.5635 101.668)" stroke="#A7A7A7" stroke-opacity="0.2" stroke-width="4"/>
<line y1="-2" x2="487.611" y2="-2" transform="matrix(-0.582089 0.812563 -0.819222 -0.574276 116.39 186.464)" stroke="#A7A7A7" stroke-opacity="0.2" stroke-width="4"/>
<line y1="-2" x2="487.611" y2="-2" transform="matrix(-0.582089 0.812563 -0.819222 -0.574276 43.8018 116.082)" stroke="#A7A7A7" stroke-opacity="0.2" stroke-width="4"/>
<path d="M85.1406 147.822C-25.703 302.554 -87.8485 389.306 -198.692 544.037" stroke="#A7A7A7" stroke-opacity="0.2" stroke-width="4"/>
<line y1="-2" x2="487.611" y2="-2" transform="matrix(-0.582089 0.812563 -0.819222 -0.574276 0.419922 86.7844)" stroke="#A7A7A7" stroke-opacity="0.2" stroke-width="4"/>
<line y1="-2" x2="486.272" y2="-2" transform="matrix(-0.819599 -0.57375 0.581562 -0.812933 404.151 359.594)" stroke="#F3F3F3" stroke-opacity="0.3" stroke-width="4"/>
<line y1="-2" x2="486.272" y2="-2" transform="matrix(-0.819599 -0.57375 0.581562 -0.812933 409.997 235.671)" stroke="#F3F3F3" stroke-opacity="0.3" stroke-width="4"/>
<line y1="-2" x2="486.272" y2="-2" transform="matrix(-0.819599 -0.57375 0.581562 -0.812933 286.5 213.821)" stroke="#F3F3F3" stroke-opacity="0.3" stroke-width="4"/>
<line y1="-2" x2="486.272" y2="-2" transform="matrix(-0.819599 -0.57375 0.581562 -0.812933 495.671 232.414)" stroke="#F3F3F3" stroke-opacity="0.3" stroke-width="4"/>
<line y1="-2" x2="486.272" y2="-2" transform="matrix(-0.819599 -0.57375 0.581562 -0.812933 419.269 337.562)" stroke="#F3F3F3" stroke-opacity="0.3" stroke-width="4"/>
<line y1="-2" x2="486.272" y2="-2" transform="matrix(-0.819599 -0.57375 0.581562 -0.812933 481.03 253.544)" stroke="#F3F3F3" stroke-opacity="0.3" stroke-width="4"/>
<line y1="-2" x2="486.272" y2="-2" transform="matrix(-0.819599 -0.57375 0.581562 -0.812933 449.026 294.4)" stroke="#F3F3F3" stroke-opacity="0.3" stroke-width="4"/>
<line y1="-2" x2="486.272" y2="-2" transform="matrix(-0.819599 -0.57375 0.581562 -0.812933 508.716 213.897)" stroke="#F3F3F3" stroke-opacity="0.3" stroke-width="4"/>
<line y1="-2" x2="486.272" y2="-2" transform="matrix(-0.819599 -0.57375 0.581562 -0.812933 307.399 274.785)" stroke="#F3F3F3" stroke-opacity="0.3" stroke-width="4"/>
<line y1="-2" x2="486.272" y2="-2" transform="matrix(-0.819599 -0.57375 0.581562 -0.812933 471.419 264.075)" stroke="#F3F3F3" stroke-opacity="0.3" stroke-width="4"/>
<line y1="-2" x2="486.272" y2="-2" transform="matrix(-0.819599 -0.57375 0.581562 -0.812933 439.416 304.931)" stroke="#F3F3F3" stroke-opacity="0.3" stroke-width="4"/>
<line y1="-2" x2="486.272" y2="-2" transform="matrix(-0.819599 -0.57375 0.581562 -0.812933 501.178 220.913)" stroke="#F3F3F3" stroke-opacity="0.3" stroke-width="4"/>
<line y1="-2" x2="486.272" y2="-2" transform="matrix(-0.819599 -0.57375 0.581562 -0.812933 424.775 326.061)" stroke="#F3F3F3" stroke-opacity="0.3" stroke-width="4"/>
<line y1="-2" x2="486.272" y2="-2" transform="matrix(-0.819599 -0.57375 0.581562 -0.812933 648.453 357.157)" stroke="#F3F3F3" stroke-opacity="0.3" stroke-width="4"/>
<path d="M343.773 210.818C188.131 101.862 100.868 40.775 -54.7746 -68.1807" stroke="#F3F3F3" stroke-opacity="0.3" stroke-width="4"/>
<line y1="-2" x2="486.272" y2="-2" transform="matrix(-0.819599 -0.57375 0.581562 -0.812933 516.295 198.882)" stroke="#F3F3F3" stroke-opacity="0.3" stroke-width="4"/>
</g>
</svg>
