<svg width="584" height="531" viewBox="0 0 584 531" fill="none" xmlns="http://www.w3.org/2000/svg">
<path fill-rule="evenodd" clip-rule="evenodd" d="M286.31 7.44187C366.103 0.731441 459.104 -7.17487 509.457 58.2324C559.662 123.447 532.378 216.978 509.381 297.204C489.306 367.234 452.039 427.71 392.615 465.838C324.65 509.447 245.19 543.389 170.264 514.792C88.3732 483.537 21.5371 408.596 6.55561 318.489C-7.59786 233.362 43.6154 155.44 100.079 92.6604C148.986 38.2828 215.27 13.4162 286.31 7.44187Z" fill="#ECBC3D" fill-opacity="0.6"/>
<path fill-rule="evenodd" clip-rule="evenodd" d="M333.647 27.538C413.799 28.7627 507.228 30.1108 551.611 95.7279C595.863 161.152 560.336 245.684 530.269 318.229C504.022 381.555 461.483 434.374 398.844 464.31C327.199 498.549 244.955 522.712 172.796 489.068C93.9304 452.296 33.9619 376.259 27.0435 290.956C20.5075 210.368 78.5027 142.611 140.385 89.4445C193.986 43.3934 262.286 26.4476 333.647 27.538Z" fill="#ECBC3D"/>
<path d="M386.403 280.37V394.69L403.807 425.854L405.132 428.224H473.804L475.192 280.37H386.403Z" fill="#E6E6E6"/>
<path opacity="0.1" d="M386.403 280.37V394.69L403.807 425.854L404.875 280.37H386.403Z" fill="black"/>
<path d="M220.618 277.321V391.641L203.214 422.805L201.89 425.175H133.218L131.83 277.321H220.618Z" fill="#E6E6E6"/>
<path opacity="0.1" d="M220.619 277.321V391.641L203.215 422.805L202.146 277.321H220.619Z" fill="black"/>
<path d="M496.001 275.035V281.893H122.812V271.986L157.495 252.17H465.48L496.001 275.035Z" fill="#E6E6E6"/>
<path opacity="0.1" d="M496.001 275.035V281.894H122.812V271.986L496.001 275.035Z" fill="black"/>
<path d="M176.224 309.33H159.576L152.64 303.996H183.854L176.224 309.33Z" fill="#3F3D56"/>
<path d="M176.224 331.432H159.576L152.64 326.098H183.854L176.224 331.432Z" fill="#3F3D56"/>
<path d="M176.224 362.681H159.576L152.64 357.345H183.854L176.224 362.681Z" fill="#3F3D56"/>
<path d="M176.224 393.928H159.576L152.64 388.593H183.854L176.224 393.928Z" fill="#3F3D56"/>
<path d="M430.797 312.379H447.445L454.382 307.044H423.167L430.797 312.379Z" fill="#3F3D56"/>
<path d="M430.797 334.481H447.445L454.382 329.146H423.167L430.797 334.481Z" fill="#3F3D56"/>
<path d="M430.797 365.729H447.445L454.382 360.394H423.167L430.797 365.729Z" fill="#3F3D56"/>
<path d="M430.797 396.976H447.445L454.382 391.641H423.167L430.797 396.976Z" fill="#3F3D56"/>
<path d="M442.134 119.97H301.982C301.286 119.97 300.597 120.12 299.954 120.413C299.31 120.706 298.726 121.135 298.234 121.675C297.742 122.216 297.351 122.858 297.085 123.565C296.819 124.271 296.682 125.029 296.682 125.794V229.523C296.682 230.288 296.819 231.046 297.085 231.752C297.351 232.459 297.742 233.101 298.234 233.642C298.726 234.182 299.31 234.611 299.954 234.904C300.597 235.197 301.286 235.347 301.982 235.347H355.185L353.192 249.329C353.192 249.329 341.801 255.978 349.81 256.174C357.819 256.369 395.552 256.174 395.552 256.174C395.552 256.174 402.849 256.174 391.28 249.134L389.405 235.347H442.134C442.83 235.347 443.519 235.197 444.162 234.904C444.805 234.611 445.39 234.182 445.882 233.642C446.374 233.101 446.764 232.459 447.031 231.752C447.297 231.046 447.434 230.288 447.434 229.523V125.794C447.434 125.029 447.297 124.271 447.031 123.565C446.764 122.858 446.374 122.216 445.882 121.675C445.39 121.135 444.805 120.706 444.162 120.413C443.519 120.12 442.83 119.97 442.134 119.97Z" fill="#3F3D56"/>
<path d="M442.362 126.13H301.755V212.565H442.362V126.13Z" fill="#F2F2F2"/>
<path d="M372.058 124.37C372.549 124.37 372.948 123.932 372.948 123.392C372.948 122.852 372.549 122.415 372.058 122.415C371.566 122.415 371.168 122.852 371.168 123.392C371.168 123.932 371.566 124.37 372.058 124.37Z" fill="#F2F2F2"/>
<path d="M372.058 231.143C373.926 231.143 375.44 229.479 375.44 227.427C375.44 225.375 373.926 223.712 372.058 223.712C370.191 223.712 368.677 225.375 368.677 227.427C368.677 229.479 370.191 231.143 372.058 231.143Z" fill="#F2F2F2"/>
<path d="M366.788 266.734V268.689H271.033V267.125L271.165 266.734L273.525 259.694H364.831L366.788 266.734Z" fill="#3F3D56"/>
<path d="M403.638 264.819C403.463 265.639 402.805 266.503 401.317 267.32C395.977 270.254 385.12 266.538 385.12 266.538C385.12 266.538 376.755 264.974 376.755 260.867C376.99 260.69 377.235 260.53 377.488 260.388C379.733 259.083 387.176 255.863 400.374 260.524C401.346 260.86 402.215 261.485 402.883 262.331C403.179 262.65 403.401 263.043 403.533 263.475C403.664 263.908 403.7 264.368 403.638 264.819Z" fill="#3F3D56"/>
<path opacity="0.1" d="M403.639 264.819C397.103 267.571 391.278 267.776 385.299 263.214C383.038 261.377 380.301 260.387 377.489 260.388C379.734 259.083 387.177 255.863 400.375 260.524C401.347 260.86 402.216 261.485 402.884 262.331C403.18 262.65 403.403 263.043 403.534 263.475C403.665 263.908 403.701 264.368 403.639 264.819Z" fill="black"/>
<path d="M395.444 263.214C396.722 263.214 397.758 262.864 397.758 262.432C397.758 262 396.722 261.649 395.444 261.649C394.166 261.649 393.13 262 393.13 262.432C393.13 262.864 394.166 263.214 395.444 263.214Z" fill="#F2F2F2"/>
<path opacity="0.1" d="M366.788 266.734V268.69H271.033V267.125L271.165 266.734H366.788Z" fill="black"/>
<path d="M149.241 48.0171C148.269 47.9324 147.296 48.1633 146.451 48.6791C145.621 49.2829 145.097 50.3406 144.563 51.3248C142.521 55.133 139.757 58.4492 136.445 61.0636C134.033 62.9403 130.966 65.2803 131.378 68.7404C131.596 69.8831 131.994 70.9787 132.554 71.9811C134.78 76.7517 140.852 80.4384 140.255 85.8821C142.466 81.9513 139.509 80.0076 141.72 76.0769C142.772 74.205 144.602 72.0919 146.191 73.2675C146.724 73.6611 147.073 74.3671 147.627 74.7124C148.95 75.5366 150.357 73.961 151.527 72.8451C155.564 68.9969 161.304 70.0051 166.327 71.2041C168.698 71.7701 171.303 72.5127 172.705 74.9197C174.548 78.0843 170.954 81.5021 170.046 85.08C169.972 85.3849 169.968 85.7043 170.035 86.0109C170.103 86.3175 170.239 86.6022 170.433 86.8407C170.627 87.0791 170.872 87.2642 171.147 87.3802C171.423 87.4961 171.721 87.5394 172.016 87.5063C173.523 87.3484 175.309 87.219 175.398 86.5166C177.294 86.5883 179.618 86.3602 180.43 84.2633C180.678 83.4337 180.81 82.5695 180.82 81.699C181.118 78.1766 182.525 74.9632 183.458 71.6107C184.391 68.2582 184.796 64.3293 183.222 61.357C182.661 60.368 181.966 59.4715 181.16 58.6957C172.229 49.5172 160.487 48.0035 149.241 48.0171Z" fill="#2F2E41"/>
<path d="M142.197 92.7578C142.197 92.7578 144.14 109.947 137.018 111.322C129.896 112.697 143.492 136.075 143.492 136.075L175.865 140.2L168.095 112.697C168.095 112.697 162.916 110.635 166.153 96.8832C169.39 83.1318 142.197 92.7578 142.197 92.7578Z" fill="#FFB8B8"/>
<path d="M122.45 388.069L125.04 425.886H138.636L134.752 388.069H122.45Z" fill="#FFB8B8"/>
<path d="M222.157 316.562L224.099 348.19L238.991 341.315L233.164 315.187L222.157 316.562Z" fill="#FFB8B8"/>
<path d="M113 247.702C113 247.702 113.646 293.416 117.523 308.391C121.4 323.366 120.754 324.154 120.108 326.519C119.462 328.883 118.815 327.307 118.815 331.248C118.815 335.189 117.523 397.453 118.815 402.97C120.108 408.488 114.938 417.946 118.815 418.734C122.692 419.522 140.785 418.734 141.431 414.005C142.077 409.276 136.262 407.699 138.846 404.547C141.431 401.394 145.308 336.765 145.308 336.765L154.354 291.84L171.154 268.195H206.692L217.677 320.213L220.5 340.5C220.5 340.5 237 339 240.5 334C244 329 232.538 254.008 231.246 252.431C229.954 250.855 231.892 245.338 229.954 242.973C228.015 240.609 205.4 224.058 197 220.905C188.6 217.752 176.816 214 176.816 214L113 247.702Z" fill="#2F2E41"/>
<path d="M238.99 335.814C238.99 335.814 229.279 332.376 224.747 342.69C220.215 353.003 222.157 355.754 222.157 355.754C222.157 355.754 237.048 361.254 239.638 358.504C240.765 357.307 244.343 356.892 248.025 356.804C253.635 356.67 255.127 348.243 249.829 346.28C249.671 346.222 249.511 346.171 249.35 346.128C244.17 344.753 238.99 335.814 238.99 335.814Z" fill="#2F2E41"/>
<path d="M156.765 104.103C167.492 104.103 176.188 94.8676 176.188 83.4755C176.188 72.0835 167.492 62.8484 156.765 62.8484C146.038 62.8484 137.342 72.0835 137.342 83.4755C137.342 94.8676 146.038 104.103 156.765 104.103Z" fill="#FFB8B8"/>
<path d="M131.514 119.917C131.514 119.917 163.239 126.793 171.008 115.791C178.778 104.79 182.015 146.732 182.015 146.732L185.9 190.737L180.073 214.802C180.073 214.802 149.643 240.929 139.931 242.992C130.219 245.055 115.328 246.43 115.328 246.43C115.328 246.43 119.86 170.11 119.86 168.734C119.86 167.359 131.514 119.917 131.514 119.917Z" fill="#3300C4"/>
<path d="M141.163 107.022C141.163 107.022 134.105 102.728 132.162 106.853C130.22 110.978 112.092 121.292 110.149 121.292C108.207 121.292 114.034 178.36 111.444 185.236C108.854 192.112 96.5529 242.305 103.675 246.43C110.797 250.555 105.617 242.305 112.739 252.618C119.861 262.932 154.823 262.932 156.765 258.806C158.708 254.681 141.227 223.74 144.464 194.862C147.701 165.984 152.881 126.105 148.348 120.604C143.816 115.104 141.163 107.022 141.163 107.022Z" fill="#575A89"/>
<path d="M164.534 111.666L165.436 108.37C165.436 108.37 192.374 117.854 193.669 124.042C194.964 130.23 194.317 173.547 189.785 176.985C185.252 180.423 178.778 185.924 183.31 194.175C187.842 202.425 193.022 211.364 196.906 212.051C200.791 212.739 207.913 217.552 205.971 222.365C204.028 227.178 180.72 218.24 180.72 218.24C180.72 218.24 165.182 205.863 165.829 186.611C166.477 167.359 164.534 111.666 164.534 111.666Z" fill="#575A89"/>
<path d="M187.195 192.799L171.656 223.74C171.656 223.74 148.996 248.493 161.945 251.243C174.894 253.993 182.016 228.553 182.016 228.553L198.849 203.113L187.195 192.799Z" fill="#FFB8B8"/>
<path d="M150.188 53.4142C149.405 53.3526 148.621 53.5141 147.916 53.8821C147.279 54.3761 146.754 55.0149 146.38 55.752C144.653 58.5107 142.402 60.8553 139.771 62.6353C137.807 63.9617 135.311 65.6156 135.647 68.0613C135.829 68.8812 136.154 69.658 136.604 70.3517C138.422 73.7576 139.145 77.6997 138.665 81.5813L144.065 73.2466C144.922 71.9236 146.411 70.4301 147.705 71.261C148.138 71.5392 148.423 72.0382 148.874 72.2823C149.951 72.8647 151.096 71.7512 152.049 70.9624C155.335 68.2426 160.007 68.9551 164.096 69.8025C166.027 70.2026 168.147 70.7275 169.288 72.4287C171.185 75.2558 169.205 79.3407 170.311 82.6067C170.621 82.3763 170.884 82.0823 171.085 81.7419C171.286 81.4016 171.42 81.0219 171.48 80.6253C173.024 80.676 174.915 80.5148 175.577 79.0327C175.778 78.4519 175.885 77.8391 175.894 77.2203C176.137 74.7307 177.283 72.4594 178.042 70.0899C178.801 67.7204 179.131 64.9435 177.85 62.8427C177.381 62.1309 176.816 61.4969 176.171 60.9617C168.901 54.4744 159.343 53.4045 150.188 53.4142Z" fill="#2F2E41"/>
<path d="M187.195 121.292L193.227 122.992C193.227 122.992 207.266 161.171 204.029 187.299C200.792 213.427 198.849 207.926 198.849 207.926C198.849 207.926 193.67 195.55 182.016 198.3L187.195 121.292Z" fill="#575A89"/>
<path d="M123.347 420.888C121.786 423.141 122.099 426.362 120.716 428.743C119.517 430.807 117.258 431.889 115.759 433.718C115.28 434.325 114.854 434.977 114.484 435.665C113.093 438.139 111.962 441.31 113.332 443.798C114.434 445.799 116.751 446.581 118.875 447.114C121.56 447.788 124.35 448.327 127.066 447.812C129.782 447.297 132.437 445.531 133.405 442.788C133.596 442.098 133.822 441.42 134.083 440.756C135.555 437.679 140.173 437.645 141.68 434.586C142.734 432.446 141.765 429.858 140.796 427.672L137.837 420.996C136.855 418.781 132.874 420.055 130.799 419.524C128.092 418.831 125.294 418.069 123.347 420.888Z" fill="#2F2E41"/>
<path d="M101.732 206.551L128.925 251.243C128.925 251.243 145.759 273.933 150.938 263.619C156.118 253.306 132.81 236.116 132.81 236.116L115.329 201.738L101.732 206.551Z" fill="#FFB8B8"/>
<path d="M115.329 122.667L110.149 121.292C110.149 121.292 99.7899 124.73 97.2001 139.169C94.6103 153.608 96.5526 211.364 99.7899 212.051C103.027 212.739 115.778 201.995 117.82 204.273C119.861 206.551 113.386 194.862 115.329 188.674C117.271 182.486 115.329 122.667 115.329 122.667Z" fill="#575A89"/>
<path d="M358.749 153.36H342.015V157.786H358.749V153.36Z" fill="#3300C4"/>
<path d="M416.697 153.36H410.81V157.786H416.697V153.36Z" fill="#3300C4"/>
<path d="M428.473 153.36H422.585V157.786H428.473V153.36Z" fill="#3300C4"/>
<path d="M404.612 153.36H364.637V157.786H404.612V153.36Z" fill="#3300C4"/>
<path d="M337.676 181.96H320.942V186.386H337.676V181.96Z" fill="#3300C4"/>
<path d="M395.625 181.96H389.737V186.386H395.625V181.96Z" fill="#3300C4"/>
<path d="M407.401 181.96H401.513V186.386H407.401V181.96Z" fill="#3300C4"/>
<path d="M383.54 181.96H343.564V186.386H383.54V181.96Z" fill="#3300C4"/>
<path d="M406.781 163.234H390.047V167.66H406.781V163.234Z" fill="#3300C4"/>
<path d="M429.403 163.234H412.669V167.66H429.403V163.234Z" fill="#3300C4"/>
<path d="M326.83 163.234H320.942V167.66H326.83V163.234Z" fill="#3300C4"/>
<path d="M338.606 163.234H332.718V167.66H338.606V163.234Z" fill="#3300C4"/>
<path d="M384.47 163.234H344.494V167.66H384.47V163.234Z" fill="#3300C4"/>
<path d="M372.074 172.767H355.34V177.193H372.074V172.767Z" fill="#3300C4"/>
<path d="M349.452 172.767H332.718V177.193H349.452V172.767Z" fill="#3300C4"/>
<path d="M326.83 172.767H320.942V177.193H326.83V172.767Z" fill="#3300C4"/>
<path d="M429.403 172.767H423.515V177.193H429.403V172.767Z" fill="#3300C4"/>
<path d="M417.627 172.767H377.651V177.193H417.627V172.767Z" fill="#3300C4"/>
</svg>
