<svg width="372" height="402" viewBox="0 0 372 402" fill="none" xmlns="http://www.w3.org/2000/svg">
<mask id="mask0" mask-type="alpha" maskUnits="userSpaceOnUse" x="0" y="0" width="405" height="402">
<ellipse cx="202.526" cy="201.196" rx="165.326" ry="163.617" transform="rotate(165.241 202.526 201.196)" fill="#FF33FF"/>
</mask>
<g mask="url(#mask0)">
<line y1="-2" x2="487.611" y2="-2" transform="matrix(-0.582089 0.812563 -0.819222 -0.574276 331.062 315.749)" stroke="#A5A5A5" stroke-opacity="0.2" stroke-width="4"/>
<line y1="-2" x2="487.611" y2="-2" transform="matrix(-0.582089 0.812563 -0.819222 -0.574276 246.637 254.918)" stroke="#A5A5A5" stroke-opacity="0.2" stroke-width="4"/>
<line y1="-2" x2="487.611" y2="-2" transform="matrix(-0.582089 0.812563 -0.819222 -0.574276 287.68 286.451)" stroke="#A5A5A5" stroke-opacity="0.2" stroke-width="4"/>
<line y1="-2" x2="487.611" y2="-2" transform="matrix(-0.582089 0.812563 -0.819222 -0.574276 203.254 225.62)" stroke="#A5A5A5" stroke-opacity="0.2" stroke-width="4"/>
<line y1="-2" x2="487.611" y2="-2" transform="matrix(-0.582089 0.812563 -0.819222 -0.574276 308.919 300.866)" stroke="#A5A5A5" stroke-opacity="0.2" stroke-width="4"/>
<line y1="-2" x2="487.611" y2="-2" transform="matrix(-0.582089 0.812563 -0.819222 -0.574276 224.491 240.034)" stroke="#A5A5A5" stroke-opacity="0.2" stroke-width="4"/>
<line y1="-2" x2="487.611" y2="-2" transform="matrix(-0.582089 0.812563 -0.819222 -0.574276 265.536 271.568)" stroke="#A5A5A5" stroke-opacity="0.2" stroke-width="4"/>
<line y1="-2" x2="487.611" y2="-2" transform="matrix(-0.582089 0.812563 -0.819222 -0.574276 181.109 210.736)" stroke="#A5A5A5" stroke-opacity="0.2" stroke-width="4"/>
<line y1="-2" x2="487.611" y2="-2" transform="matrix(-0.582089 0.812563 -0.819222 -0.574276 319.489 310.344)" stroke="#A5A5A5" stroke-opacity="0.2" stroke-width="4"/>
<line y1="-2" x2="487.611" y2="-2" transform="matrix(-0.582089 0.812563 -0.819222 -0.574276 214.422 276.962)" stroke="#A5A5A5" stroke-opacity="0.2" stroke-width="4"/>
<line y1="-2" x2="487.611" y2="-2" transform="matrix(-0.582089 0.812563 -0.819222 -0.574276 276.106 281.045)" stroke="#A5A5A5" stroke-opacity="0.2" stroke-width="4"/>
<line y1="-2" x2="487.611" y2="-2" transform="matrix(-0.582089 0.812563 -0.819222 -0.574276 170.448 244.736)" stroke="#A5A5A5" stroke-opacity="0.2" stroke-width="4"/>
<line y1="-2" x2="487.611" y2="-2" transform="matrix(-0.582089 0.812563 -0.819222 -0.574276 297.345 295.46)" stroke="#A5A5A5" stroke-opacity="0.2" stroke-width="4"/>
<line y1="-2" x2="487.611" y2="-2" transform="matrix(-0.582089 0.812563 -0.819222 -0.574276 163.848 305.393)" stroke="#A5A5A5" stroke-opacity="0.2" stroke-width="4"/>
<path d="M240.375 289.764C129.531 444.495 67.3858 531.247 -43.4578 685.979" stroke="#A5A5A5" stroke-opacity="0.2" stroke-width="4"/>
<line y1="-2" x2="487.611" y2="-2" transform="matrix(-0.582089 0.812563 -0.819222 -0.574276 150.9 231.757)" stroke="#A5A5A5" stroke-opacity="0.2" stroke-width="4"/>
<line y1="-2" x2="487.611" y2="-2" transform="matrix(-0.582089 0.812563 -0.819222 -0.574276 161.943 197.203)" stroke="#A5A5A5" stroke-opacity="0.2" stroke-width="4"/>
<line y1="-2" x2="487.611" y2="-2" transform="matrix(-0.582089 0.812563 -0.819222 -0.574276 77.5176 136.372)" stroke="#A5A5A5" stroke-opacity="0.2" stroke-width="4"/>
<line y1="-2" x2="487.611" y2="-2" transform="matrix(-0.582089 0.812563 -0.819222 -0.574276 118.562 167.905)" stroke="#A5A5A5" stroke-opacity="0.2" stroke-width="4"/>
<line y1="-2" x2="487.611" y2="-2" transform="matrix(-0.582089 0.812563 -0.819222 -0.574276 34.1357 107.074)" stroke="#A5A5A5" stroke-opacity="0.2" stroke-width="4"/>
<line y1="-2" x2="487.611" y2="-2" transform="matrix(-0.582089 0.812563 -0.819222 -0.574276 127.278 197.191)" stroke="#A5A5A5" stroke-opacity="0.2" stroke-width="4"/>
<line y1="-2" x2="487.611" y2="-2" transform="matrix(-0.582089 0.812563 -0.819222 -0.574276 55.374 121.489)" stroke="#A5A5A5" stroke-opacity="0.2" stroke-width="4"/>
<line y1="-2" x2="487.611" y2="-2" transform="matrix(-0.582089 0.812563 -0.819222 -0.574276 96.417 153.021)" stroke="#A5A5A5" stroke-opacity="0.2" stroke-width="4"/>
<line y1="-2" x2="487.611" y2="-2" transform="matrix(-0.582089 0.812563 -0.819222 -0.574276 11.9902 92.1903)" stroke="#A5A5A5" stroke-opacity="0.2" stroke-width="4"/>
<line y1="-2" x2="487.611" y2="-2" transform="matrix(-0.582089 0.812563 -0.819222 -0.574276 92.374 272.858)" stroke="#A5A5A5" stroke-opacity="0.2" stroke-width="4"/>
<line y1="-2" x2="487.611" y2="-2" transform="matrix(-0.582089 0.812563 -0.819222 -0.574276 65.9434 130.966)" stroke="#A5A5A5" stroke-opacity="0.2" stroke-width="4"/>
<line y1="-2" x2="487.611" y2="-2" transform="matrix(-0.582089 0.812563 -0.819222 -0.574276 106.987 162.499)" stroke="#A5A5A5" stroke-opacity="0.2" stroke-width="4"/>
<line y1="-2" x2="487.611" y2="-2" transform="matrix(-0.582089 0.812563 -0.819222 -0.574276 22.5605 101.668)" stroke="#A5A5A5" stroke-opacity="0.2" stroke-width="4"/>
<line y1="-2" x2="487.611" y2="-2" transform="matrix(-0.582089 0.812563 -0.819222 -0.574276 116.387 186.464)" stroke="#A5A5A5" stroke-opacity="0.2" stroke-width="4"/>
<line y1="-2" x2="487.611" y2="-2" transform="matrix(-0.582089 0.812563 -0.819222 -0.574276 43.7988 116.083)" stroke="#A5A5A5" stroke-opacity="0.2" stroke-width="4"/>
<path d="M85.1377 147.823C-25.7059 302.554 -87.8515 389.306 -198.695 544.037" stroke="#A5A5A5" stroke-opacity="0.2" stroke-width="4"/>
<line y1="-2" x2="487.611" y2="-2" transform="matrix(-0.582089 0.812563 -0.819222 -0.574276 0.416992 86.7847)" stroke="#A5A5A5" stroke-opacity="0.2" stroke-width="4"/>
<line y1="-2" x2="486.272" y2="-2" transform="matrix(-0.819599 -0.57375 0.581562 -0.812933 404.148 359.594)" stroke="#A5A5A5" stroke-opacity="0.2" stroke-width="4"/>
<line y1="-2" x2="486.272" y2="-2" transform="matrix(-0.819599 -0.57375 0.581562 -0.812933 409.994 235.672)" stroke="#A5A5A5" stroke-opacity="0.2" stroke-width="4"/>
<line y1="-2" x2="486.272" y2="-2" transform="matrix(-0.819599 -0.57375 0.581562 -0.812933 286.497 213.821)" stroke="#A5A5A5" stroke-opacity="0.2" stroke-width="4"/>
<line y1="-2" x2="486.272" y2="-2" transform="matrix(-0.819599 -0.57375 0.581562 -0.812933 495.668 232.414)" stroke="#A5A5A5" stroke-opacity="0.2" stroke-width="4"/>
<line y1="-2" x2="486.272" y2="-2" transform="matrix(-0.819599 -0.57375 0.581562 -0.812933 419.266 337.562)" stroke="#A5A5A5" stroke-opacity="0.2" stroke-width="4"/>
<line y1="-2" x2="486.272" y2="-2" transform="matrix(-0.819599 -0.57375 0.581562 -0.812933 481.027 253.545)" stroke="#A5A5A5" stroke-opacity="0.2" stroke-width="4"/>
<line y1="-2" x2="486.272" y2="-2" transform="matrix(-0.819599 -0.57375 0.581562 -0.812933 449.023 294.401)" stroke="#A5A5A5" stroke-opacity="0.2" stroke-width="4"/>
<line y1="-2" x2="486.272" y2="-2" transform="matrix(-0.819599 -0.57375 0.581562 -0.812933 508.713 213.897)" stroke="#A5A5A5" stroke-opacity="0.2" stroke-width="4"/>
<line y1="-2" x2="486.272" y2="-2" transform="matrix(-0.819599 -0.57375 0.581562 -0.812933 307.396 274.786)" stroke="#A5A5A5" stroke-opacity="0.2" stroke-width="4"/>
<line y1="-2" x2="486.272" y2="-2" transform="matrix(-0.819599 -0.57375 0.581562 -0.812933 471.416 264.075)" stroke="#A5A5A5" stroke-opacity="0.2" stroke-width="4"/>
<line y1="-2" x2="486.272" y2="-2" transform="matrix(-0.819599 -0.57375 0.581562 -0.812933 439.413 304.932)" stroke="#A5A5A5" stroke-opacity="0.2" stroke-width="4"/>
<line y1="-2" x2="486.272" y2="-2" transform="matrix(-0.819599 -0.57375 0.581562 -0.812933 501.175 220.914)" stroke="#A5A5A5" stroke-opacity="0.2" stroke-width="4"/>
<line y1="-2" x2="486.272" y2="-2" transform="matrix(-0.819599 -0.57375 0.581562 -0.812933 424.772 326.062)" stroke="#A5A5A5" stroke-opacity="0.2" stroke-width="4"/>
<line y1="-2" x2="486.272" y2="-2" transform="matrix(-0.819599 -0.57375 0.581562 -0.812933 648.45 357.157)" stroke="#A5A5A5" stroke-opacity="0.2" stroke-width="4"/>
<path d="M343.771 210.818C188.128 101.862 100.865 40.7753 -54.7775 -68.1804" stroke="#A5A5A5" stroke-opacity="0.2" stroke-width="4"/>
<line y1="-2" x2="486.272" y2="-2" transform="matrix(-0.819599 -0.57375 0.581562 -0.812933 516.292 198.882)" stroke="#A5A5A5" stroke-opacity="0.2" stroke-width="4"/>
</g>
</svg>
