<svg width="584" height="531" viewBox="0 0 584 531" fill="none" xmlns="http://www.w3.org/2000/svg">
<path fill-rule="evenodd" clip-rule="evenodd" d="M286.308 7.44187C366.101 0.731441 459.102 -7.17487 509.455 58.2324C559.66 123.447 532.376 216.978 509.379 297.204C489.304 367.234 452.037 427.71 392.614 465.838C324.648 509.447 245.188 543.389 170.262 514.792C88.3712 483.537 21.5352 408.596 6.55366 318.489C-7.59981 233.362 43.6134 155.44 100.077 92.6604C148.984 38.2828 215.268 13.4162 286.308 7.44187Z" fill="url(#paint0_linear)" fill-opacity="0.5"/>
<path fill-rule="evenodd" clip-rule="evenodd" d="M286.308 7.44187C366.101 0.731441 459.102 -7.17487 509.455 58.2324C559.66 123.447 532.376 216.978 509.379 297.204C489.304 367.234 452.037 427.71 392.614 465.838C324.648 509.447 245.188 543.389 170.262 514.792C88.3712 483.537 21.5352 408.596 6.55366 318.489C-7.59981 233.362 43.6134 155.44 100.077 92.6604C148.984 38.2828 215.268 13.4162 286.308 7.44187Z" fill="url(#paint1_linear)" fill-opacity="0.3"/>
<path fill-rule="evenodd" clip-rule="evenodd" d="M333.645 27.538C413.798 28.7627 507.226 30.1108 551.609 95.7279C595.861 161.152 560.334 245.684 530.267 318.229C504.02 381.555 461.481 434.374 398.842 464.31C327.198 498.549 244.953 522.712 172.795 489.068C93.9285 452.296 33.96 376.259 27.0415 290.956C20.5055 210.368 78.5008 142.611 140.383 89.4445C193.984 43.3934 262.284 26.4476 333.645 27.538Z" fill="#E53170"/>
<path d="M386.402 275.001V385.498L403.806 415.62L405.131 417.911H473.803L475.191 275.001H386.402Z" fill="#E6E6E6"/>
<path opacity="0.1" d="M386.402 275.001V385.498L403.806 415.62L404.875 275.001H386.402Z" fill="black"/>
<path d="M220.617 272.054V382.552L203.213 412.673L201.889 414.964H133.217L131.829 272.054H220.617Z" fill="#E6E6E6"/>
<path opacity="0.1" d="M220.618 272.054V382.552L203.214 412.673L202.146 272.054H220.618Z" fill="black"/>
<path d="M496 269.845V276.474H122.812V266.897L157.494 247.745H465.479L496 269.845Z" fill="#E6E6E6"/>
<path opacity="0.1" d="M496 269.845V276.474H122.812V266.897L496 269.845Z" fill="black"/>
<path d="M176.223 302.993H159.575L152.639 297.837H183.853L176.223 302.993Z" fill="#3F3D56"/>
<path d="M176.223 324.356H159.575L152.639 319.2H183.853L176.223 324.356Z" fill="#3F3D56"/>
<path d="M176.223 354.559H159.575L152.639 349.402H183.853L176.223 354.559Z" fill="#3F3D56"/>
<path d="M176.223 384.762H159.575L152.639 379.605H183.853L176.223 384.762Z" fill="#3F3D56"/>
<path d="M430.796 305.94H447.444L454.381 300.783H423.166L430.796 305.94Z" fill="#3F3D56"/>
<path d="M430.796 327.303H447.444L454.381 322.146H423.166L430.796 327.303Z" fill="#3F3D56"/>
<path d="M430.796 357.506H447.444L454.381 352.349H423.166L430.796 357.506Z" fill="#3F3D56"/>
<path d="M430.796 387.708H447.444L454.381 382.552H423.166L430.796 387.708Z" fill="#3F3D56"/>
<path d="M442.133 119.965H301.981C301.285 119.965 300.596 120.111 299.953 120.394C299.309 120.676 298.725 121.091 298.233 121.614C297.741 122.136 297.35 122.757 297.084 123.44C296.818 124.123 296.681 124.855 296.681 125.594V225.855C296.681 226.594 296.818 227.326 297.084 228.009C297.35 228.692 297.741 229.313 298.233 229.836C298.725 230.358 299.309 230.773 299.953 231.056C300.596 231.339 301.285 231.484 301.981 231.484H355.184L353.191 244.999C353.191 244.999 341.8 251.425 349.809 251.614C357.818 251.803 395.551 251.614 395.551 251.614C395.551 251.614 402.848 251.614 391.279 244.81L389.404 231.484H442.133C442.829 231.484 443.518 231.339 444.161 231.056C444.804 230.773 445.389 230.358 445.881 229.836C446.373 229.313 446.763 228.692 447.03 228.009C447.296 227.326 447.433 226.594 447.433 225.855V125.594C447.433 124.855 447.296 124.123 447.03 123.44C446.763 122.757 446.373 122.136 445.881 121.614C445.389 121.091 444.804 120.676 444.161 120.394C443.518 120.111 442.829 119.965 442.133 119.965Z" fill="#3F3D56"/>
<path d="M442.361 125.919H301.754V209.464H442.361V125.919Z" fill="#F2F2F2"/>
<path d="M372.057 124.218C372.548 124.218 372.947 123.795 372.947 123.273C372.947 122.751 372.548 122.328 372.057 122.328C371.565 122.328 371.167 122.751 371.167 123.273C371.167 123.795 371.565 124.218 372.057 124.218Z" fill="#F2F2F2"/>
<path d="M372.057 227.42C373.925 227.42 375.439 225.812 375.439 223.829C375.439 221.846 373.925 220.238 372.057 220.238C370.19 220.238 368.676 221.846 368.676 223.829C368.676 225.812 370.19 227.42 372.057 227.42Z" fill="#F2F2F2"/>
<path d="M366.788 261.821V263.711H271.032V262.199L271.164 261.821L273.524 255.017H364.83L366.788 261.821Z" fill="#3F3D56"/>
<path d="M403.637 259.971C403.462 260.763 402.804 261.598 401.316 262.388C395.976 265.223 385.119 261.632 385.119 261.632C385.119 261.632 376.754 260.12 376.754 256.151C376.989 255.98 377.234 255.825 377.487 255.688C379.732 254.426 387.175 251.314 400.373 255.819C401.345 256.144 402.214 256.748 402.882 257.565C403.178 257.874 403.4 258.253 403.532 258.672C403.663 259.09 403.699 259.535 403.637 259.971Z" fill="#3F3D56"/>
<path opacity="0.1" d="M403.638 259.971C397.102 262.63 391.277 262.829 385.298 258.419C383.037 256.644 380.3 255.686 377.488 255.688C379.733 254.426 387.176 251.314 400.374 255.819C401.347 256.144 402.215 256.748 402.883 257.565C403.179 257.874 403.402 258.253 403.533 258.672C403.664 259.09 403.7 259.535 403.638 259.971Z" fill="black"/>
<path d="M395.443 258.419C396.721 258.419 397.757 258.08 397.757 257.663C397.757 257.245 396.721 256.907 395.443 256.907C394.165 256.907 393.129 257.245 393.129 257.663C393.129 258.08 394.165 258.419 395.443 258.419Z" fill="#F2F2F2"/>
<path opacity="0.1" d="M366.788 261.821V263.711H271.032V262.199L271.164 261.821H366.788Z" fill="black"/>
<path d="M149.241 48.0171C148.269 47.9324 147.296 48.1633 146.451 48.6791C145.621 49.2829 145.097 50.3406 144.563 51.3248C142.521 55.133 139.757 58.4492 136.445 61.0636C134.033 62.9403 130.966 65.2803 131.378 68.7404C131.596 69.8831 131.994 70.9787 132.554 71.9811C134.78 76.7517 140.852 80.4384 140.255 85.882C142.466 81.9513 139.509 80.0076 141.72 76.0769C142.772 74.205 144.602 72.0919 146.191 73.2675C146.724 73.6611 147.073 74.3671 147.627 74.7124C148.95 75.5366 150.357 73.961 151.527 72.8451C155.564 68.9969 161.304 70.0051 166.327 71.2041C168.698 71.7701 171.303 72.5127 172.705 74.9197C174.548 78.0843 170.954 81.5021 170.046 85.08C169.972 85.3849 169.968 85.7043 170.035 86.0109C170.103 86.3175 170.239 86.6022 170.433 86.8407C170.627 87.0791 170.872 87.2642 171.147 87.3802C171.423 87.4961 171.721 87.5394 172.016 87.5063C173.523 87.3484 175.309 87.219 175.398 86.5166C177.294 86.5883 179.618 86.3602 180.43 84.2633C180.678 83.4337 180.81 82.5695 180.82 81.699C181.118 78.1766 182.525 74.9632 183.458 71.6107C184.391 68.2582 184.796 64.3293 183.222 61.357C182.661 60.368 181.966 59.4715 181.16 58.6957C172.229 49.5172 160.487 48.0035 149.241 48.0171Z" fill="#2F2E41"/>
<path d="M142.197 92.7578C142.197 92.7578 144.14 109.947 137.018 111.322C129.896 112.697 143.492 136.075 143.492 136.075L175.865 140.2L168.095 112.697C168.095 112.697 162.916 110.635 166.153 96.8832C169.39 83.1318 142.197 92.7578 142.197 92.7578Z" fill="#FFB8B8"/>
<path d="M122.45 388.069L125.04 425.886H138.636L134.752 388.069H122.45Z" fill="#FFB8B8"/>
<path d="M222.157 316.562L224.099 348.19L238.991 341.315L233.164 315.187L222.157 316.562Z" fill="#FFB8B8"/>
<path d="M113 247.702C113 247.702 113.646 293.416 117.523 308.391C121.4 323.366 120.754 324.154 120.108 326.519C119.462 328.883 118.815 327.307 118.815 331.248C118.815 335.189 117.523 397.453 118.815 402.97C120.108 408.488 114.938 417.946 118.815 418.734C122.692 419.522 140.785 418.734 141.431 414.005C142.077 409.276 136.262 407.699 138.846 404.547C141.431 401.394 145.308 336.765 145.308 336.765L154.354 291.84L171.154 268.195H206.692L217.677 320.213L220.5 340.5C220.5 340.5 237 339 240.5 334C244 329 232.538 254.008 231.246 252.431C229.954 250.855 231.892 245.338 229.954 242.973C228.015 240.609 205.4 224.058 197 220.905C188.6 217.752 176.816 214 176.816 214L113 247.702Z" fill="#2F2E41"/>
<path d="M238.99 335.814C238.99 335.814 229.279 332.376 224.747 342.69C220.215 353.003 222.157 355.754 222.157 355.754C222.157 355.754 237.048 361.254 239.638 358.504C240.765 357.307 244.343 356.892 248.025 356.804C253.635 356.67 255.127 348.243 249.829 346.28C249.671 346.222 249.511 346.171 249.35 346.128C244.17 344.753 238.99 335.814 238.99 335.814Z" fill="#2F2E41"/>
<path d="M156.765 104.103C167.492 104.103 176.188 94.8676 176.188 83.4755C176.188 72.0835 167.492 62.8484 156.765 62.8484C146.038 62.8484 137.342 72.0835 137.342 83.4755C137.342 94.8676 146.038 104.103 156.765 104.103Z" fill="#FFB8B8"/>
<path d="M131.514 119.917C131.514 119.917 163.239 126.793 171.008 115.791C178.778 104.79 182.015 146.732 182.015 146.732L185.9 190.737L180.073 214.802C180.073 214.802 149.643 240.929 139.931 242.992C130.219 245.055 115.328 246.43 115.328 246.43C115.328 246.43 119.86 170.11 119.86 168.734C119.86 167.359 131.514 119.917 131.514 119.917Z" fill="#3300C4"/>
<path d="M141.163 107.022C141.163 107.022 134.105 102.728 132.162 106.853C130.22 110.978 112.092 121.292 110.149 121.292C108.207 121.292 114.034 178.36 111.444 185.236C108.854 192.112 96.5529 242.305 103.675 246.43C110.797 250.555 105.617 242.305 112.739 252.618C119.861 262.932 154.823 262.932 156.765 258.806C158.708 254.681 141.227 223.74 144.464 194.862C147.701 165.984 152.881 126.105 148.348 120.604C143.816 115.104 141.163 107.022 141.163 107.022Z" fill="#575A89"/>
<path d="M164.534 111.666L165.436 108.37C165.436 108.37 192.374 117.854 193.669 124.042C194.964 130.23 194.317 173.547 189.785 176.985C185.252 180.423 178.778 185.924 183.31 194.175C187.842 202.425 193.022 211.364 196.906 212.051C200.791 212.739 207.913 217.552 205.971 222.365C204.028 227.178 180.72 218.24 180.72 218.24C180.72 218.24 165.182 205.863 165.829 186.611C166.477 167.359 164.534 111.666 164.534 111.666Z" fill="#575A89"/>
<path d="M187.195 192.799L171.656 223.74C171.656 223.74 148.996 248.493 161.945 251.243C174.894 253.993 182.016 228.553 182.016 228.553L198.849 203.113L187.195 192.799Z" fill="#FFB8B8"/>
<path d="M150.188 53.4142C149.405 53.3526 148.621 53.5141 147.916 53.8821C147.279 54.3761 146.754 55.0149 146.38 55.752C144.653 58.5107 142.402 60.8553 139.771 62.6353C137.807 63.9617 135.311 65.6156 135.647 68.0613C135.829 68.8812 136.154 69.658 136.604 70.3517C138.422 73.7576 139.145 77.6997 138.665 81.5813L144.065 73.2466C144.922 71.9236 146.411 70.4301 147.705 71.261C148.138 71.5392 148.423 72.0382 148.874 72.2823C149.951 72.8647 151.096 71.7512 152.049 70.9624C155.335 68.2426 160.007 68.9551 164.096 69.8025C166.027 70.2026 168.147 70.7275 169.288 72.4287C171.185 75.2558 169.205 79.3407 170.311 82.6067C170.621 82.3763 170.884 82.0823 171.085 81.7419C171.286 81.4016 171.42 81.0219 171.48 80.6253C173.024 80.676 174.915 80.5148 175.577 79.0327C175.778 78.4519 175.885 77.8391 175.894 77.2203C176.137 74.7307 177.283 72.4594 178.042 70.0899C178.801 67.7204 179.131 64.9435 177.85 62.8427C177.381 62.1309 176.816 61.4969 176.171 60.9617C168.901 54.4744 159.343 53.4045 150.188 53.4142Z" fill="#2F2E41"/>
<path d="M187.195 121.292L193.227 122.992C193.227 122.992 207.266 161.171 204.029 187.299C200.792 213.427 198.849 207.926 198.849 207.926C198.849 207.926 193.67 195.55 182.016 198.3L187.195 121.292Z" fill="#575A89"/>
<path d="M123.347 420.888C121.786 423.141 122.099 426.362 120.716 428.743C119.517 430.807 117.258 431.889 115.759 433.718C115.28 434.325 114.854 434.977 114.484 435.665C113.093 438.139 111.962 441.31 113.332 443.798C114.434 445.799 116.751 446.581 118.875 447.114C121.56 447.788 124.35 448.327 127.066 447.812C129.782 447.297 132.437 445.531 133.405 442.788C133.596 442.098 133.822 441.42 134.083 440.756C135.555 437.679 140.173 437.645 141.68 434.586C142.734 432.446 141.765 429.858 140.796 427.672L137.837 420.996C136.855 418.781 132.874 420.055 130.799 419.524C128.092 418.831 125.294 418.069 123.347 420.888Z" fill="#2F2E41"/>
<path d="M101.732 206.551L128.925 251.243C128.925 251.243 145.759 273.933 150.938 263.619C156.118 253.306 132.81 236.116 132.81 236.116L115.329 201.738L101.732 206.551Z" fill="#FFB8B8"/>
<path d="M115.329 122.667L110.149 121.292C110.149 121.292 99.7899 124.73 97.2001 139.169C94.6103 153.608 96.5526 211.364 99.7899 212.051C103.027 212.739 115.778 201.995 117.82 204.273C119.861 206.551 113.386 194.862 115.329 188.674C117.271 182.486 115.329 122.667 115.329 122.667Z" fill="#575A89"/>
<path d="M358.749 153.358H342.015V157.636H358.749V153.358Z" fill="#3300C4"/>
<path d="M416.697 153.358H410.81V157.636H416.697V153.358Z" fill="#3300C4"/>
<path d="M428.473 153.358H422.585V157.636H428.473V153.358Z" fill="#3300C4"/>
<path d="M404.612 153.358H364.637V157.636H404.612V153.358Z" fill="#3300C4"/>
<path d="M337.676 181.002H320.942V185.28H337.676V181.002Z" fill="#3300C4"/>
<path d="M395.625 181.002H389.737V185.28H395.625V181.002Z" fill="#3300C4"/>
<path d="M407.401 181.002H401.513V185.28H407.401V181.002Z" fill="#3300C4"/>
<path d="M383.54 181.002H343.564V185.28H383.54V181.002Z" fill="#3300C4"/>
<path d="M406.781 162.902H390.047V167.18H406.781V162.902Z" fill="#3300C4"/>
<path d="M429.403 162.902H412.669V167.18H429.403V162.902Z" fill="#3300C4"/>
<path d="M326.83 162.902H320.942V167.18H326.83V162.902Z" fill="#3300C4"/>
<path d="M338.606 162.902H332.718V167.18H338.606V162.902Z" fill="#3300C4"/>
<path d="M384.469 162.902H344.493V167.18H384.469V162.902Z" fill="#3300C4"/>
<path d="M372.074 172.116H355.34V176.395H372.074V172.116Z" fill="#3300C4"/>
<path d="M349.452 172.116H332.718V176.395H349.452V172.116Z" fill="#3300C4"/>
<path d="M326.83 172.116H320.942V176.395H326.83V172.116Z" fill="#3300C4"/>
<path d="M429.403 172.116H423.515V176.395H429.403V172.116Z" fill="#3300C4"/>
<path d="M417.627 172.116H377.651V176.395H417.627V172.116Z" fill="#3300C4"/>
<defs>
<linearGradient id="paint0_linear" x1="268.399" y1="4.1816" x2="274.598" y2="524.81" gradientUnits="userSpaceOnUse">
<stop offset="0.9999" stop-color="#F972A1"/>
<stop offset="1" stop-color="#E53170" stop-opacity="0"/>
</linearGradient>
<linearGradient id="paint1_linear" x1="268.399" y1="4.1816" x2="274.598" y2="524.81" gradientUnits="userSpaceOnUse">
<stop offset="0.9999" stop-color="#E53170"/>
<stop offset="1" stop-color="#E53170" stop-opacity="0"/>
</linearGradient>
</defs>
</svg>
