<svg width="766" height="350" viewBox="0 0 766 350" fill="none" xmlns="http://www.w3.org/2000/svg">
<path d="M328.877 329.476C311.008 329.74 296.675 316.102 296.429 299.452C296.183 282.802 310.106 268.747 327.974 268.482C345.843 268.218 360.176 281.856 360.422 298.506C360.668 315.156 346.745 329.211 328.877 329.476Z" stroke="#A5A5A5" stroke-width="10"/>
<circle cx="241.289" cy="230.489" r="17" transform="rotate(89.1527 241.289 230.489)" stroke="#A5A5A5" stroke-width="5"/>
<rect x="426.276" y="106.983" width="101" height="101" transform="rotate(0.97229 426.276 106.983)" stroke="#A5A5A5" stroke-width="4"/>
<path d="M329.235 96.0473L336.713 42.0026L379.778 75.5009L329.235 96.0473Z" stroke="#A5A5A5" stroke-width="2"/>
<path d="M485.085 335.275C479.278 330.059 478.756 321.37 483.689 315.876C488.623 310.383 497.319 309.972 503.126 315.187C508.933 320.402 509.455 329.092 504.521 334.585C499.587 340.079 490.892 340.49 485.085 335.275Z" stroke="#A5A5A5" stroke-width="5"/>
<line y1="-2" x2="448.317" y2="-2" transform="matrix(0.00945173 1.00123 -0.99856 -0.0189057 299.934 195.666)" stroke="#A5A5A5" stroke-opacity="0.2" stroke-width="4"/>
<line y1="-2" x2="448.317" y2="-2" transform="matrix(0.00945173 1.00123 -0.99856 -0.0189057 203.428 192.596)" stroke="#A5A5A5" stroke-opacity="0.2" stroke-width="4"/>
<line y1="-2" x2="448.317" y2="-2" transform="matrix(0.00945173 1.00123 -0.99856 -0.0189057 251.416 195.587)" stroke="#A5A5A5" stroke-opacity="0.2" stroke-width="4"/>
<line y1="-2" x2="448.317" y2="-2" transform="matrix(0.00945173 1.00123 -0.99856 -0.0189057 154.91 192.517)" stroke="#A5A5A5" stroke-opacity="0.2" stroke-width="4"/>
<line y1="-2" x2="448.317" y2="-2" transform="matrix(0.00945173 1.00123 -0.99856 -0.0189057 275.207 195.68)" stroke="#A5A5A5" stroke-opacity="0.2" stroke-width="4"/>
<line y1="-2" x2="448.317" y2="-2" transform="matrix(0.00945173 1.00123 -0.99856 -0.0189057 178.701 192.611)" stroke="#A5A5A5" stroke-opacity="0.2" stroke-width="4"/>
<line y1="-2" x2="448.317" y2="-2" transform="matrix(0.00945173 1.00123 -0.99856 -0.0189057 226.689 195.602)" stroke="#A5A5A5" stroke-opacity="0.2" stroke-width="4"/>
<line y1="-2" x2="448.317" y2="-2" transform="matrix(0.00945173 1.00123 -0.99856 -0.0189057 130.186 192.532)" stroke="#A5A5A5" stroke-opacity="0.2" stroke-width="4"/>
<line y1="-2" x2="448.317" y2="-2" transform="matrix(0.00945173 1.00123 -0.99856 -0.0189057 288.309 197.488)" stroke="#A5A5A5" stroke-opacity="0.2" stroke-width="4"/>
<line y1="-2" x2="448.317" y2="-2" transform="matrix(0.00945173 1.00123 -0.99856 -0.0189057 191.363 226.018)" stroke="#A5A5A5" stroke-opacity="0.2" stroke-width="4"/>
<line y1="-2" x2="448.317" y2="-2" transform="matrix(0.00945173 1.00123 -0.99856 -0.0189057 239.791 197.409)" stroke="#A5A5A5" stroke-opacity="0.2" stroke-width="4"/>
<line y1="-2" x2="448.317" y2="-2" transform="matrix(0.00945173 1.00123 -0.99856 -0.0189057 140.805 224.005)" stroke="#A5A5A5" stroke-opacity="0.2" stroke-width="4"/>
<line y1="-2" x2="448.317" y2="-2" transform="matrix(0.00945173 1.00123 -0.99856 -0.0189057 263.582 197.502)" stroke="#A5A5A5" stroke-opacity="0.2" stroke-width="4"/>
<line y1="-2" x2="448.317" y2="-2" transform="matrix(0.00945173 1.00123 -0.99856 -0.0189057 169.049 273.766)" stroke="#A5A5A5" stroke-opacity="0.2" stroke-width="4"/>
<path d="M217.805 222.454C219.459 397.749 220.387 496.029 222.042 671.324" stroke="#A5A5A5" stroke-opacity="0.2" stroke-width="4"/>
<line y1="-2" x2="448.317" y2="-2" transform="matrix(0.00945173 1.00123 -0.99856 -0.0189057 119.064 224.14)" stroke="#A5A5A5" stroke-opacity="0.2" stroke-width="4"/>
<line y1="-2" x2="448.317" y2="-2" transform="matrix(0.00945173 1.00123 -0.99856 -0.0189057 108.428 192.045)" stroke="#A7A7A7" stroke-opacity="0.2" stroke-width="4"/>
<line y1="-2" x2="448.317" y2="-2" transform="matrix(0.00945173 1.00123 -0.99856 -0.0189057 11.9238 188.976)" stroke="#A7A7A7" stroke-opacity="0.2" stroke-width="4"/>
<line y1="-2" x2="448.317" y2="-2" transform="matrix(0.00945173 1.00123 -0.99856 -0.0189057 59.9121 191.965)" stroke="#A7A7A7" stroke-opacity="0.2" stroke-width="4"/>
<line y1="-2" x2="448.317" y2="-2" transform="matrix(0.00945173 1.00123 -0.99856 -0.0189057 82.4629 209.868)" stroke="#A7A7A7" stroke-opacity="0.2" stroke-width="4"/>
<line y1="-2" x2="448.317" y2="-2" transform="matrix(0.00945173 1.00123 -0.99856 -0.0189057 35.1855 191.98)" stroke="#A7A7A7" stroke-opacity="0.2" stroke-width="4"/>
<line y1="-2" x2="448.317" y2="-2" transform="matrix(0.00945173 1.00123 -0.99856 -0.0189057 97.7266 285.663)" stroke="#A7A7A7" stroke-opacity="0.2" stroke-width="4"/>
<line y1="-2" x2="448.317" y2="-2" transform="matrix(0.00945173 1.00123 -0.99856 -0.0189057 0.298828 190.797)" stroke="#A7A7A7" stroke-opacity="0.2" stroke-width="4"/>
<line y1="-2" x2="448.317" y2="-2" transform="matrix(0.00945173 1.00123 -0.99856 -0.0189057 48.2871 193.788)" stroke="#A7A7A7" stroke-opacity="0.2" stroke-width="4"/>
<line y1="-2" x2="448.317" y2="-2" transform="matrix(0.00945173 1.00123 -0.99856 -0.0189057 68.4395 207.271)" stroke="#A7A7A7" stroke-opacity="0.2" stroke-width="4"/>
<path d="M23.8965 193.808C25.5513 369.103 26.4791 467.384 28.1339 642.679" stroke="#A7A7A7" stroke-opacity="0.2" stroke-width="4"/>
<line y1="-2" x2="451.749" y2="-2" transform="matrix(-0.998554 -0.0182645 -0.0101009 -1.00125 378.65 191.585)" stroke="#F3F3F3" stroke-opacity="0.3" stroke-width="4"/>
<line y1="-2" x2="451.749" y2="-2" transform="matrix(-0.998554 -0.0182645 -0.0101009 -1.00125 315.225 93.8526)" stroke="#F3F3F3" stroke-opacity="0.3" stroke-width="4"/>
<line y1="-2" x2="451.749" y2="-2" transform="matrix(-0.998554 -0.0182645 -0.0101009 -1.00125 210.791 140.677)" stroke="#F3F3F3" stroke-opacity="0.3" stroke-width="4"/>
<line y1="-2" x2="451.749" y2="-2" transform="matrix(-0.998554 -0.0182645 -0.0101009 -1.00125 377.598 47.2913)" stroke="#F3F3F3" stroke-opacity="0.3" stroke-width="4"/>
<line y1="-2" x2="451.749" y2="-2" transform="matrix(-0.998554 -0.0182645 -0.0101009 -1.00125 377.916 166.968)" stroke="#F3F3F3" stroke-opacity="0.3" stroke-width="4"/>
<line y1="-2" x2="451.749" y2="-2" transform="matrix(-0.998554 -0.0182645 -0.0101009 -1.00125 378.197 70.9745)" stroke="#F3F3F3" stroke-opacity="0.3" stroke-width="4"/>
<line y1="-2" x2="451.749" y2="-2" transform="matrix(-0.998554 -0.0182645 -0.0101009 -1.00125 376.584 118.668)" stroke="#F3F3F3" stroke-opacity="0.3" stroke-width="4"/>
<line y1="-2" x2="451.749" y2="-2" transform="matrix(-0.998554 -0.0182645 -0.0101009 -1.00125 377.234 26.4271)" stroke="#F3F3F3" stroke-opacity="0.3" stroke-width="4"/>
<line y1="-2" x2="451.749" y2="-2" transform="matrix(-0.998554 -0.0182645 -0.0101009 -1.00125 259.797 176.528)" stroke="#F3F3F3" stroke-opacity="0.3" stroke-width="4"/>
<line y1="-2" x2="451.749" y2="-2" transform="matrix(-0.998554 -0.0182645 -0.0101009 -1.00125 376.76 83.9685)" stroke="#F3F3F3" stroke-opacity="0.3" stroke-width="4"/>
<line y1="-2" x2="451.749" y2="-2" transform="matrix(-0.998554 -0.0182645 -0.0101009 -1.00125 375.148 131.662)" stroke="#F3F3F3" stroke-opacity="0.3" stroke-width="4"/>
<line y1="-2" x2="451.749" y2="-2" transform="matrix(-0.998554 -0.0182645 -0.0101009 -1.00125 375.43 35.6678)" stroke="#F3F3F3" stroke-opacity="0.3" stroke-width="4"/>
<line y1="-2" x2="451.749" y2="-2" transform="matrix(-0.998554 -0.0182645 -0.0101009 -1.00125 375.746 155.344)" stroke="#F3F3F3" stroke-opacity="0.3" stroke-width="4"/>
<path d="M252.035 108.92C75.8712 105.698 -22.897 103.892 -199.061 100.669" stroke="#F3F3F3" stroke-opacity="0.3" stroke-width="4"/>
<line y1="-2" x2="451.749" y2="-2" transform="matrix(-0.998554 -0.0182645 -0.0101009 -1.00125 374.695 11.0506)" stroke="#F3F3F3" stroke-opacity="0.3" stroke-width="4"/>
</svg>
