<svg width="669" height="350" viewBox="0 0 669 350" fill="none" xmlns="http://www.w3.org/2000/svg">
<path d="M328.877 329.476C311.008 329.74 296.675 316.102 296.429 299.452C296.183 282.802 310.106 268.746 327.974 268.482C345.843 268.218 360.176 281.856 360.422 298.506C360.668 315.156 346.745 329.211 328.877 329.476Z" stroke="#A5A5A5" stroke-width="10"/>
<circle cx="241.289" cy="230.489" r="17" transform="rotate(89.1527 241.289 230.489)" stroke="#A5A5A5" stroke-width="5"/>
<rect x="426.276" y="106.983" width="101" height="101" transform="rotate(0.97229 426.276 106.983)" stroke="#A5A5A5" stroke-width="4"/>
<path d="M329.235 96.0473L336.713 42.0025L379.778 75.5008L329.235 96.0473Z" stroke="#A5A5A5" stroke-width="2"/>
<path d="M485.085 335.274C479.278 330.059 478.756 321.369 483.689 315.876C488.623 310.382 497.319 309.971 503.126 315.186C508.933 320.402 509.455 329.091 504.521 334.585C499.587 340.078 490.892 340.489 485.085 335.274Z" stroke="#A5A5A5" stroke-width="5"/>
<line y1="-2" x2="487.611" y2="-2" transform="matrix(-0.367772 0.929425 -0.933991 -0.358578 273.574 203.31)" stroke="#A5A5A5" stroke-opacity="0.2" stroke-width="4"/>
<line y1="-2" x2="487.611" y2="-2" transform="matrix(-0.367772 0.929425 -0.933991 -0.358578 176.92 164.757)" stroke="#A5A5A5" stroke-opacity="0.2" stroke-width="4"/>
<line y1="-2" x2="487.611" y2="-2" transform="matrix(-0.367772 0.929425 -0.933991 -0.358578 224.383 185.401)" stroke="#A5A5A5" stroke-opacity="0.2" stroke-width="4"/>
<line y1="-2" x2="487.611" y2="-2" transform="matrix(-0.367772 0.929425 -0.933991 -0.358578 127.729 146.848)" stroke="#A5A5A5" stroke-opacity="0.2" stroke-width="4"/>
<line y1="-2" x2="487.611" y2="-2" transform="matrix(-0.367772 0.929425 -0.933991 -0.358578 248.482 194.238)" stroke="#A5A5A5" stroke-opacity="0.2" stroke-width="4"/>
<line y1="-2" x2="487.611" y2="-2" transform="matrix(-0.367772 0.929425 -0.933991 -0.358578 151.826 155.685)" stroke="#A5A5A5" stroke-opacity="0.2" stroke-width="4"/>
<line y1="-2" x2="487.611" y2="-2" transform="matrix(-0.367772 0.929425 -0.933991 -0.358578 199.291 176.33)" stroke="#A5A5A5" stroke-opacity="0.2" stroke-width="4"/>
<line y1="-2" x2="487.611" y2="-2" transform="matrix(-0.367772 0.929425 -0.933991 -0.358578 102.637 137.776)" stroke="#A5A5A5" stroke-opacity="0.2" stroke-width="4"/>
<line y1="-2" x2="487.611" y2="-2" transform="matrix(-0.367772 0.929425 -0.933991 -0.358578 261.035 200.872)" stroke="#A5A5A5" stroke-opacity="0.2" stroke-width="4"/>
<line y1="-2" x2="487.611" y2="-2" transform="matrix(-0.367772 0.929425 -0.933991 -0.358578 151.008 193.952)" stroke="#A5A5A5" stroke-opacity="0.2" stroke-width="4"/>
<line y1="-2" x2="487.611" y2="-2" transform="matrix(-0.367772 0.929425 -0.933991 -0.358578 211.844 182.962)" stroke="#A5A5A5" stroke-opacity="0.2" stroke-width="4"/>
<line y1="-2" x2="487.611" y2="-2" transform="matrix(-0.367772 0.929425 -0.933991 -0.358578 100.535 173.346)" stroke="#A5A5A5" stroke-opacity="0.2" stroke-width="4"/>
<line y1="-2" x2="487.611" y2="-2" transform="matrix(-0.367772 0.929425 -0.933991 -0.358578 235.943 191.8)" stroke="#A5A5A5" stroke-opacity="0.2" stroke-width="4"/>
<line y1="-2" x2="487.611" y2="-2" transform="matrix(-0.367772 0.929425 -0.933991 -0.358578 108.834 233.794)" stroke="#A5A5A5" stroke-opacity="0.2" stroke-width="4"/>
<path d="M179.291 200.082C109.258 377.066 69.994 476.295 -0.0385726 653.279" stroke="#A5A5A5" stroke-opacity="0.2" stroke-width="4"/>
<line y1="-2" x2="487.611" y2="-2" transform="matrix(-0.367772 0.929425 -0.933991 -0.358578 78.4238 165.493)" stroke="#A5A5A5" stroke-opacity="0.2" stroke-width="4"/>
<line y1="-2" x2="487.611" y2="-2" transform="matrix(-0.367772 0.929425 -0.933991 -0.358578 80.7637 129.292)" stroke="#A7A7A7" stroke-opacity="0.2" stroke-width="4"/>
<line y1="-2" x2="487.611" y2="-2" transform="matrix(-0.367772 0.929425 -0.933991 -0.358578 31.5742 111.383)" stroke="#A7A7A7" stroke-opacity="0.2" stroke-width="4"/>
<line y1="-2" x2="487.611" y2="-2" transform="matrix(-0.367772 0.929425 -0.933991 -0.358578 47.1289 137.683)" stroke="#A7A7A7" stroke-opacity="0.2" stroke-width="4"/>
<line y1="-2" x2="487.611" y2="-2" transform="matrix(-0.367772 0.929425 -0.933991 -0.358578 6.48047 102.311)" stroke="#A7A7A7" stroke-opacity="0.2" stroke-width="4"/>
<line y1="-2" x2="487.611" y2="-2" transform="matrix(-0.367772 0.929425 -0.933991 -0.358578 31.6074 219.554)" stroke="#A7A7A7" stroke-opacity="0.2" stroke-width="4"/>
<line y1="-2" x2="487.611" y2="-2" transform="matrix(-0.367772 0.929425 -0.933991 -0.358578 19.0332 108.944)" stroke="#A7A7A7" stroke-opacity="0.2" stroke-width="4"/>
<line y1="-2" x2="487.611" y2="-2" transform="matrix(-0.367772 0.929425 -0.933991 -0.358578 33.9629 129.916)" stroke="#A7A7A7" stroke-opacity="0.2" stroke-width="4"/>
<line y1="-2" x2="486.272" y2="-2" transform="matrix(-0.934229 -0.357976 0.367171 -0.929655 355.107 228.132)" stroke="#F3F3F3" stroke-opacity="0.3" stroke-width="4"/>
<line y1="-2" x2="486.272" y2="-2" transform="matrix(-0.934229 -0.357976 0.367171 -0.929655 330.74 106.488)" stroke="#F3F3F3" stroke-opacity="0.3" stroke-width="4"/>
<line y1="-2" x2="486.272" y2="-2" transform="matrix(-0.934229 -0.357976 0.367171 -0.929655 205.631 115.224)" stroke="#F3F3F3" stroke-opacity="0.3" stroke-width="4"/>
<line y1="-2" x2="486.272" y2="-2" transform="matrix(-0.934229 -0.357976 0.367171 -0.929655 413.07 82.5614)" stroke="#F3F3F3" stroke-opacity="0.3" stroke-width="4"/>
<line y1="-2" x2="486.272" y2="-2" transform="matrix(-0.934229 -0.357976 0.367171 -0.929655 364.434 203.093)" stroke="#F3F3F3" stroke-opacity="0.3" stroke-width="4"/>
<line y1="-2" x2="486.272" y2="-2" transform="matrix(-0.934229 -0.357976 0.367171 -0.929655 403.988 106.61)" stroke="#F3F3F3" stroke-opacity="0.3" stroke-width="4"/>
<line y1="-2" x2="486.272" y2="-2" transform="matrix(-0.934229 -0.357976 0.367171 -0.929655 382.842 154.006)" stroke="#F3F3F3" stroke-opacity="0.3" stroke-width="4"/>
<line y1="-2" x2="486.272" y2="-2" transform="matrix(-0.934229 -0.357976 0.367171 -0.929655 421.236 61.4347)" stroke="#F3F3F3" stroke-opacity="0.3" stroke-width="4"/>
<line y1="-2" x2="486.272" y2="-2" transform="matrix(-0.934229 -0.357976 0.367171 -0.929655 240.684 169.305)" stroke="#F3F3F3" stroke-opacity="0.3" stroke-width="4"/>
<line y1="-2" x2="486.272" y2="-2" transform="matrix(-0.934229 -0.357976 0.367171 -0.929655 397.215 119.157)" stroke="#F3F3F3" stroke-opacity="0.3" stroke-width="4"/>
<line y1="-2" x2="486.272" y2="-2" transform="matrix(-0.934229 -0.357976 0.367171 -0.929655 376.07 166.552)" stroke="#F3F3F3" stroke-opacity="0.3" stroke-width="4"/>
<line y1="-2" x2="486.272" y2="-2" transform="matrix(-0.934229 -0.357976 0.367171 -0.929655 415.625 70.0692)" stroke="#F3F3F3" stroke-opacity="0.3" stroke-width="4"/>
<line y1="-2" x2="486.272" y2="-2" transform="matrix(-0.934229 -0.357976 0.367171 -0.929655 366.988 190.601)" stroke="#F3F3F3" stroke-opacity="0.3" stroke-width="4"/>
<path d="M260.467 98.428C83.0557 30.4479 -16.4116 -7.66583 -193.823 -75.6459" stroke="#F3F3F3" stroke-opacity="0.3" stroke-width="4"/>
<line y1="-2" x2="486.272" y2="-2" transform="matrix(-0.934229 -0.357976 0.367171 -0.929655 424.951 45.0304)" stroke="#F3F3F3" stroke-opacity="0.3" stroke-width="4"/>
</svg>
