<svg width="714" height="350" viewBox="0 0 714 350" fill="none" xmlns="http://www.w3.org/2000/svg">
<path d="M328.877 329.476C311.008 329.74 296.675 316.102 296.429 299.452C296.183 282.802 310.106 268.747 327.974 268.482C345.843 268.218 360.176 281.856 360.422 298.506C360.668 315.156 346.745 329.211 328.877 329.476Z" stroke="#A5A5A5" stroke-width="10"/>
<circle cx="241.289" cy="230.489" r="17" transform="rotate(89.1527 241.289 230.489)" stroke="#A5A5A5" stroke-width="5"/>
<rect x="426.276" y="106.983" width="101" height="101" transform="rotate(0.97229 426.276 106.983)" stroke="#A5A5A5" stroke-width="4"/>
<path d="M329.235 96.0473L336.713 42.0026L379.778 75.5009L329.235 96.0473Z" stroke="#A5A5A5" stroke-width="2"/>
<path d="M485.085 335.274C479.278 330.059 478.756 321.369 483.689 315.876C488.623 310.382 497.319 309.971 503.126 315.186C508.933 320.402 509.455 329.091 504.521 334.585C499.587 340.078 490.892 340.489 485.085 335.274Z" stroke="#A5A5A5" stroke-width="5"/>
<line y1="-2" x2="448.317" y2="-2" transform="matrix(0.00945173 1.00123 -0.99856 -0.0189057 273.934 181.666)" stroke="#555555" stroke-opacity="0.2" stroke-width="4"/>
<line y1="-2" x2="448.317" y2="-2" transform="matrix(0.00945173 1.00123 -0.99856 -0.0189057 177.428 178.596)" stroke="#555555" stroke-opacity="0.2" stroke-width="4"/>
<line y1="-2" x2="448.317" y2="-2" transform="matrix(0.00945173 1.00123 -0.99856 -0.0189057 225.416 181.587)" stroke="#555555" stroke-opacity="0.2" stroke-width="4"/>
<line y1="-2" x2="448.317" y2="-2" transform="matrix(0.00945173 1.00123 -0.99856 -0.0189057 128.91 178.517)" stroke="#555555" stroke-opacity="0.2" stroke-width="4"/>
<line y1="-2" x2="448.317" y2="-2" transform="matrix(0.00945173 1.00123 -0.99856 -0.0189057 249.207 181.68)" stroke="#555555" stroke-opacity="0.2" stroke-width="4"/>
<line y1="-2" x2="448.317" y2="-2" transform="matrix(0.00945173 1.00123 -0.99856 -0.0189057 152.701 178.611)" stroke="#555555" stroke-opacity="0.2" stroke-width="4"/>
<line y1="-2" x2="448.317" y2="-2" transform="matrix(0.00945173 1.00123 -0.99856 -0.0189057 200.689 181.602)" stroke="#555555" stroke-opacity="0.2" stroke-width="4"/>
<line y1="-2" x2="448.317" y2="-2" transform="matrix(0.00945173 1.00123 -0.99856 -0.0189057 104.186 178.532)" stroke="#555555" stroke-opacity="0.2" stroke-width="4"/>
<line y1="-2" x2="448.317" y2="-2" transform="matrix(0.00945173 1.00123 -0.99856 -0.0189057 262.309 183.488)" stroke="#555555" stroke-opacity="0.2" stroke-width="4"/>
<line y1="-2" x2="448.317" y2="-2" transform="matrix(0.00945173 1.00123 -0.99856 -0.0189057 165.363 212.018)" stroke="#555555" stroke-opacity="0.2" stroke-width="4"/>
<line y1="-2" x2="448.317" y2="-2" transform="matrix(0.00945173 1.00123 -0.99856 -0.0189057 213.791 183.409)" stroke="#555555" stroke-opacity="0.2" stroke-width="4"/>
<line y1="-2" x2="448.317" y2="-2" transform="matrix(0.00945173 1.00123 -0.99856 -0.0189057 114.805 210.005)" stroke="#555555" stroke-opacity="0.2" stroke-width="4"/>
<line y1="-2" x2="448.317" y2="-2" transform="matrix(0.00945173 1.00123 -0.99856 -0.0189057 237.582 183.502)" stroke="#555555" stroke-opacity="0.2" stroke-width="4"/>
<line y1="-2" x2="448.317" y2="-2" transform="matrix(0.00945173 1.00123 -0.99856 -0.0189057 143.049 259.766)" stroke="#555555" stroke-opacity="0.2" stroke-width="4"/>
<path d="M191.805 208.454C193.459 383.749 194.387 482.029 196.042 657.324" stroke="#555555" stroke-opacity="0.2" stroke-width="4"/>
<line y1="-2" x2="448.317" y2="-2" transform="matrix(0.00945173 1.00123 -0.99856 -0.0189057 93.0645 210.14)" stroke="#555555" stroke-opacity="0.2" stroke-width="4"/>
<line y1="-2" x2="448.317" y2="-2" transform="matrix(0.00945173 1.00123 -0.99856 -0.0189057 82.4297 178.045)" stroke="#2C2C2C" stroke-opacity="0.2" stroke-width="4"/>
<line y1="-2" x2="448.317" y2="-2" transform="matrix(0.00945173 1.00123 -0.99856 -0.0189057 33.9141 177.965)" stroke="#2C2C2C" stroke-opacity="0.2" stroke-width="4"/>
<line y1="-2" x2="448.317" y2="-2" transform="matrix(0.00945173 1.00123 -0.99856 -0.0189057 56.4648 195.868)" stroke="#2C2C2C" stroke-opacity="0.2" stroke-width="4"/>
<line y1="-2" x2="448.317" y2="-2" transform="matrix(0.00945173 1.00123 -0.99856 -0.0189057 9.1875 177.98)" stroke="#2C2C2C" stroke-opacity="0.2" stroke-width="4"/>
<line y1="-2" x2="448.317" y2="-2" transform="matrix(0.00945173 1.00123 -0.99856 -0.0189057 71.7285 271.662)" stroke="#2C2C2C" stroke-opacity="0.2" stroke-width="4"/>
<line y1="-2" x2="448.317" y2="-2" transform="matrix(0.00945173 1.00123 -0.99856 -0.0189057 22.2891 179.787)" stroke="#2C2C2C" stroke-opacity="0.2" stroke-width="4"/>
<line y1="-2" x2="448.317" y2="-2" transform="matrix(0.00945173 1.00123 -0.99856 -0.0189057 42.4414 193.271)" stroke="#2C2C2C" stroke-opacity="0.2" stroke-width="4"/>
<path d="M-2.10156 179.808C-0.446764 355.103 0.481016 453.384 2.13582 628.679" stroke="#2C2C2C" stroke-opacity="0.2" stroke-width="4"/>
<line y1="-2" x2="451.749" y2="-2" transform="matrix(-0.998554 -0.0182645 -0.0101009 -1.00125 352.65 177.585)" stroke="#E1E1E1" stroke-width="4"/>
<line y1="-2" x2="451.749" y2="-2" transform="matrix(-0.998554 -0.0182645 -0.0101009 -1.00125 289.225 79.8526)" stroke="#E1E1E1" stroke-width="4"/>
<line y1="-2" x2="451.749" y2="-2" transform="matrix(-0.998554 -0.0182645 -0.0101009 -1.00125 184.791 126.677)" stroke="#E1E1E1" stroke-width="4"/>
<line y1="-2" x2="451.749" y2="-2" transform="matrix(-0.998554 -0.0182645 -0.0101009 -1.00125 351.598 33.2913)" stroke="#E1E1E1" stroke-width="4"/>
<line y1="-2" x2="451.749" y2="-2" transform="matrix(-0.998554 -0.0182645 -0.0101009 -1.00125 351.916 152.968)" stroke="#E1E1E1" stroke-width="4"/>
<line y1="-2" x2="451.749" y2="-2" transform="matrix(-0.998554 -0.0182645 -0.0101009 -1.00125 352.197 56.9745)" stroke="#E1E1E1" stroke-width="4"/>
<line y1="-2" x2="451.749" y2="-2" transform="matrix(-0.998554 -0.0182645 -0.0101009 -1.00125 350.584 104.668)" stroke="#E1E1E1" stroke-width="4"/>
<line y1="-2" x2="451.749" y2="-2" transform="matrix(-0.998554 -0.0182645 -0.0101009 -1.00125 351.234 12.4271)" stroke="#E1E1E1" stroke-width="4"/>
<line y1="-2" x2="451.749" y2="-2" transform="matrix(-0.998554 -0.0182645 -0.0101009 -1.00125 233.797 162.528)" stroke="#E1E1E1" stroke-width="4"/>
<line y1="-2" x2="451.749" y2="-2" transform="matrix(-0.998554 -0.0182645 -0.0101009 -1.00125 350.76 69.9684)" stroke="#E1E1E1" stroke-width="4"/>
<line y1="-2" x2="451.749" y2="-2" transform="matrix(-0.998554 -0.0182645 -0.0101009 -1.00125 349.148 117.662)" stroke="#E1E1E1" stroke-width="4"/>
<line y1="-2" x2="451.749" y2="-2" transform="matrix(-0.998554 -0.0182645 -0.0101009 -1.00125 349.43 21.6677)" stroke="#E1E1E1" stroke-width="4"/>
<line y1="-2" x2="451.749" y2="-2" transform="matrix(-0.998554 -0.0182645 -0.0101009 -1.00125 349.746 141.344)" stroke="#E1E1E1" stroke-width="4"/>
<path d="M226.035 94.9205C49.8712 91.6983 -48.897 89.8917 -225.061 86.6695" stroke="#E1E1E1" stroke-width="4"/>
<line y1="-2" x2="451.749" y2="-2" transform="matrix(-0.998554 -0.0182645 -0.0101009 -1.00125 348.695 -2.94946)" stroke="#E1E1E1" stroke-width="4"/>
</svg>
