<svg width="460" height="359" viewBox="0 0 460 359" fill="none" xmlns="http://www.w3.org/2000/svg">
<path d="M190.344 359C290.403 359 371.517 278.635 371.517 179.5C371.517 80.3649 290.403 0 190.344 0C90.2841 0 9.16992 80.3649 9.16992 179.5C9.16992 278.635 90.2841 359 190.344 359Z" fill="#C4C4C4"/>
<g filter="url(#filter0_d)">
<path d="M266.494 143.66C266.265 154.468 255.63 172.113 234.586 196.595C221.896 211.282 215.512 220.379 215.439 223.884C215.365 227.39 217.282 229.176 221.19 229.242C225.424 229.314 231.333 227.222 238.917 222.968C257.723 211.89 276.578 198.476 295.481 182.725C298.137 180.432 299.94 179.878 300.893 181.063C301.845 182.248 302.315 183.133 302.303 183.717C302.291 184.301 298.637 187.6 291.342 193.612C284.047 199.625 275.932 205.917 266.996 212.486C258.386 219.061 247.49 225.889 234.308 232.971C221.132 239.76 210.31 243.084 201.841 242.94C184.253 242.641 175.607 235.481 175.903 221.46C176.008 216.494 177.108 210.668 179.204 203.983C183.678 192.662 202.546 170.92 235.807 138.756C240.127 134.738 242.312 131.56 242.361 129.223C242.411 126.886 239.179 125.663 232.665 125.552C226.151 125.442 215.783 130.38 201.562 140.366C196.602 143.788 190.466 148.944 183.152 155.833C175.845 162.431 167.146 173.241 157.054 188.265C147.288 203.294 140.002 216.613 135.195 228.22C133.13 233.445 129.166 236.008 123.304 235.908C122.001 235.886 120.375 235.713 118.427 235.387C112.27 233.822 109.883 231.151 111.265 227.376C137.527 187.203 153.209 162.046 158.31 151.905C163.411 141.764 166.008 134.503 166.101 130.121C166.193 125.739 164.285 123.515 160.377 123.449C143.114 123.156 117.828 148.003 84.5164 197.992C72.4461 214.152 62.7545 225.676 55.4406 232.565C48.1275 239.454 41.5391 242.849 35.6769 242.749C35.0251 242.738 34.3741 242.727 33.7223 242.716C25.2545 242.573 17.0137 239.365 9 233.091C11.0102 230.496 15.853 224.88 23.5292 216.243C40.522 198.414 55.3857 181.133 68.1198 164.401C53.8499 176.724 41.7548 186.308 31.8362 193.153C28.5299 195.434 26.7355 195.55 26.4528 193.5C25.8446 191.444 26.5325 189.703 28.5179 188.275C30.5093 186.555 33.8216 183.982 38.4554 180.554C43.0952 176.834 46.079 174.4 47.4066 173.254C49.0597 172.113 51.8743 169.969 55.8503 166.823C60.1586 163.389 63.3115 160.666 65.3089 158.655C74.6322 149.17 81.4815 141.104 85.8575 134.457C87.5602 130.979 88.2819 127.631 88.0241 124.412C88.0985 120.907 87.3302 118.702 85.7199 117.798C84.4419 116.608 83.9811 115.285 84.3374 113.83C84.3871 111.493 85.7147 110.347 88.3203 110.391C89.6231 110.413 91.0822 110.73 92.6985 111.342C102.709 115.602 107.57 124.598 107.28 138.327C107.107 146.507 105.128 155.386 101.341 164.964C108.047 156.019 115.238 147.229 122.914 138.592C136.594 123.337 150.111 115.823 163.465 116.05C172.585 116.205 177.046 120.955 176.849 130.303C176.664 139.066 169.494 154.578 155.34 176.84C169.353 161.297 180.181 149.938 187.827 142.763C205.428 126.99 222.208 119.238 238.168 119.509C255.105 119.797 264.574 126.532 266.576 139.716C266.546 141.177 266.518 142.492 266.494 143.66Z" fill="url(#paint0_linear)"/>
</g>
<g filter="url(#filter1_d)">
<path d="M266.494 143.66C266.265 154.468 255.63 172.113 234.586 196.595C221.896 211.282 215.512 220.379 215.439 223.884C215.365 227.39 217.282 229.176 221.19 229.242C225.424 229.314 231.333 227.222 238.917 222.968C257.723 211.89 276.578 198.476 295.481 182.725C298.137 180.432 299.94 179.878 300.893 181.063C301.845 182.248 302.315 183.133 302.303 183.717C302.291 184.301 298.637 187.6 291.342 193.612C284.047 199.625 275.932 205.917 266.996 212.486C258.386 219.061 247.49 225.889 234.308 232.971C221.132 239.76 210.31 243.084 201.841 242.94C184.253 242.641 175.607 235.481 175.903 221.46C176.008 216.494 177.108 210.668 179.204 203.983C183.678 192.662 202.546 170.92 235.807 138.756C240.127 134.738 242.312 131.56 242.361 129.223C242.411 126.886 239.179 125.663 232.665 125.552C226.151 125.442 215.783 130.38 201.562 140.366C196.602 143.788 190.466 148.944 183.152 155.833C175.845 162.431 167.146 173.241 157.054 188.265C147.288 203.294 140.002 216.613 135.195 228.22C133.13 233.445 129.166 236.008 123.304 235.908C122.001 235.886 120.375 235.713 118.427 235.387C112.27 233.822 109.883 231.151 111.265 227.376C137.527 187.203 153.209 162.046 158.31 151.905C163.411 141.764 166.008 134.503 166.101 130.121C166.193 125.739 164.285 123.515 160.377 123.449C143.114 123.156 117.828 148.003 84.5164 197.992C72.4461 214.152 62.7545 225.676 55.4406 232.565C48.1275 239.454 41.5391 242.849 35.6769 242.749C35.0251 242.738 34.3741 242.727 33.7223 242.716C25.2545 242.573 17.0137 239.365 9 233.091C11.0102 230.496 15.853 224.88 23.5292 216.243C40.522 198.414 55.3857 181.133 68.1198 164.401C53.8499 176.724 41.7548 186.308 31.8362 193.153C28.5299 195.434 26.7355 195.55 26.4528 193.5C25.8446 191.444 26.5325 189.703 28.5179 188.275C30.5093 186.555 33.8216 183.982 38.4554 180.554C43.0952 176.834 46.079 174.4 47.4066 173.254C49.0597 172.113 51.8743 169.969 55.8503 166.823C60.1586 163.389 63.3115 160.666 65.3089 158.655C74.6322 149.17 81.4815 141.104 85.8575 134.457C87.5602 130.979 88.2819 127.631 88.0241 124.412C88.0985 120.907 87.3302 118.702 85.7199 117.798C84.4419 116.608 83.9811 115.285 84.3374 113.83C84.3871 111.493 85.7147 110.347 88.3203 110.391C89.6231 110.413 91.0822 110.73 92.6985 111.342C102.709 115.602 107.57 124.598 107.28 138.327C107.107 146.507 105.128 155.386 101.341 164.964C108.047 156.019 115.238 147.229 122.914 138.592C136.594 123.337 150.111 115.823 163.465 116.05C172.585 116.205 177.046 120.955 176.849 130.303C176.664 139.066 169.494 154.578 155.34 176.84C169.353 161.297 180.181 149.938 187.827 142.763C205.428 126.99 222.208 119.238 238.168 119.509C255.105 119.797 264.574 126.532 266.576 139.716C266.546 141.177 266.518 142.492 266.494 143.66Z" fill="url(#paint1_linear)"/>
</g>
<path d="M312.849 174.27L385.831 123.776" stroke="url(#paint2_linear)" stroke-width="6" stroke-linecap="round" stroke-linejoin="round"/>
<g filter="url(#filter2_d)">
<path d="M312.849 174.27L385.831 123.776" stroke="url(#paint3_linear)" stroke-width="6" stroke-linecap="round" stroke-linejoin="round"/>
</g>
<g filter="url(#filter3_d)">
<path d="M379.377 171.582C365.043 186.483 353.316 200.214 344.194 212.778C335.399 225.049 331.001 233.814 331.001 239.073C331.001 244.039 334.258 246.523 340.774 246.523C347.615 246.523 361.297 240.533 381.82 228.555C402.668 216.576 421.889 203.136 439.48 188.236C441.108 186.775 442.574 186.19 443.878 186.483C445.18 186.774 445.832 187.505 445.832 188.674C445.832 189.842 445.18 191.157 443.878 192.618C401.854 227.094 369.766 248.714 347.615 257.479C337.842 260.985 330.838 262.738 326.603 262.738C310.967 262.738 300.217 260.401 294.353 255.726C288.815 251.051 286.046 245.938 286.046 240.387C286.046 229.285 288.489 220.812 293.376 214.969C309.338 194.809 322.042 177.718 331.49 163.693C334.422 159.603 333.77 156.827 329.535 155.367C325.626 153.614 320.576 152.737 314.387 152.737C308.524 152.737 305.429 152.591 305.103 152.299C283.277 178.594 261.614 199.337 240.114 214.531C237.507 216.576 236.041 216.576 235.716 214.531C235.716 212.193 237.507 209.417 241.091 206.204C263.894 188.674 282.625 170.121 297.285 150.546C294.353 148.793 292.887 146.455 292.887 143.534C292.887 140.32 293.049 136.522 293.376 132.139C294.027 127.757 296.633 121.913 301.194 114.609C309.012 102.338 317.156 96.2029 325.626 96.2029C332.793 96.2029 336.376 99.7089 336.376 106.721C336.376 116.362 331.327 126.88 321.228 138.275C316.342 143.534 311.781 147.332 307.546 149.669C319.599 146.163 337.19 144.41 360.32 144.41C371.721 144.41 379.865 148.208 384.752 155.805C385.403 156.973 385.729 158.726 385.729 161.064C385.729 163.401 383.611 166.907 379.377 171.582Z" fill="url(#paint4_linear)"/>
</g>
<g filter="url(#filter4_d)">
<path d="M379.377 171.582C365.043 186.483 353.316 200.214 344.194 212.778C335.399 225.049 331.001 233.814 331.001 239.073C331.001 244.039 334.258 246.523 340.774 246.523C347.615 246.523 361.297 240.533 381.82 228.555C402.668 216.576 421.889 203.136 439.48 188.236C441.108 186.775 442.574 186.19 443.878 186.483C445.18 186.774 445.832 187.505 445.832 188.674C445.832 189.842 445.18 191.157 443.878 192.618C401.854 227.094 369.766 248.714 347.615 257.479C337.842 260.985 330.838 262.738 326.603 262.738C310.967 262.738 300.217 260.401 294.353 255.726C288.815 251.051 286.046 245.938 286.046 240.387C286.046 229.285 288.489 220.812 293.376 214.969C309.338 194.809 322.042 177.718 331.49 163.693C334.422 159.603 333.77 156.827 329.535 155.367C325.626 153.614 320.576 152.737 314.387 152.737C308.524 152.737 305.429 152.591 305.103 152.299C283.277 178.594 261.614 199.337 240.114 214.531C237.507 216.576 236.041 216.576 235.716 214.531C235.716 212.193 237.507 209.417 241.091 206.204C263.894 188.674 282.625 170.121 297.285 150.546C294.353 148.793 292.887 146.455 292.887 143.534C292.887 140.32 293.049 136.522 293.376 132.139C294.027 127.757 296.633 121.913 301.194 114.609C309.012 102.338 317.156 96.2029 325.626 96.2029C332.793 96.2029 336.376 99.7089 336.376 106.721C336.376 116.362 331.327 126.88 321.228 138.275C316.342 143.534 311.781 147.332 307.546 149.669C319.599 146.163 337.19 144.41 360.32 144.41C371.721 144.41 379.865 148.208 384.752 155.805C385.403 156.973 385.729 158.726 385.729 161.064C385.729 163.401 383.611 166.907 379.377 171.582Z" fill="url(#paint5_linear)"/>
</g>
<path d="M383.018 212.623L456 162.129" stroke="url(#paint6_linear)" stroke-width="7" stroke-linecap="round" stroke-linejoin="round"/>
<defs>
<filter id="filter0_d" x="5" y="110.389" width="301.303" height="140.555" filterUnits="userSpaceOnUse" color-interpolation-filters="sRGB">
<feFlood flood-opacity="0" result="BackgroundImageFix"/>
<feColorMatrix in="SourceAlpha" type="matrix" values="0 0 0 0 0 0 0 0 0 0 0 0 0 0 0 0 0 0 127 0"/>
<feOffset dy="4"/>
<feGaussianBlur stdDeviation="2"/>
<feColorMatrix type="matrix" values="0 0 0 0 0 0 0 0 0 0 0 0 0 0 0 0 0 0 0.25 0"/>
<feBlend mode="normal" in2="BackgroundImageFix" result="effect1_dropShadow"/>
<feBlend mode="normal" in="SourceGraphic" in2="effect1_dropShadow" result="shape"/>
</filter>
<filter id="filter1_d" x="0" y="110.389" width="302.303" height="140.555" filterUnits="userSpaceOnUse" color-interpolation-filters="sRGB">
<feFlood flood-opacity="0" result="BackgroundImageFix"/>
<feColorMatrix in="SourceAlpha" type="matrix" values="0 0 0 0 0 0 0 0 0 0 0 0 0 0 0 0 0 0 127 0"/>
<feOffset dx="-5" dy="4"/>
<feGaussianBlur stdDeviation="2"/>
<feColorMatrix type="matrix" values="0 0 0 0 0.980392 0 0 0 0 0.980392 0 0 0 0 0.980392 0 0 0 1 0"/>
<feBlend mode="normal" in2="BackgroundImageFix" result="effect1_dropShadow"/>
<feBlend mode="normal" in="SourceGraphic" in2="effect1_dropShadow" result="shape"/>
</filter>
<filter id="filter2_d" x="301.849" y="106.775" width="98.9827" height="76.4951" filterUnits="userSpaceOnUse" color-interpolation-filters="sRGB">
<feFlood flood-opacity="0" result="BackgroundImageFix"/>
<feColorMatrix in="SourceAlpha" type="matrix" values="0 0 0 0 0 0 0 0 0 0 0 0 0 0 0 0 0 0 127 0"/>
<feOffset dx="2" dy="-4"/>
<feGaussianBlur stdDeviation="5"/>
<feColorMatrix type="matrix" values="0 0 0 0 1 0 0 0 0 1 0 0 0 0 1 0 0 0 1 0"/>
<feBlend mode="normal" in2="BackgroundImageFix" result="effect1_dropShadow"/>
<feBlend mode="normal" in="SourceGraphic" in2="effect1_dropShadow" result="shape"/>
</filter>
<filter id="filter3_d" x="231.716" y="96.2029" width="218.116" height="174.535" filterUnits="userSpaceOnUse" color-interpolation-filters="sRGB">
<feFlood flood-opacity="0" result="BackgroundImageFix"/>
<feColorMatrix in="SourceAlpha" type="matrix" values="0 0 0 0 0 0 0 0 0 0 0 0 0 0 0 0 0 0 127 0"/>
<feOffset dy="4"/>
<feGaussianBlur stdDeviation="2"/>
<feColorMatrix type="matrix" values="0 0 0 0 0 0 0 0 0 0 0 0 0 0 0 0 0 0 0.25 0"/>
<feBlend mode="normal" in2="BackgroundImageFix" result="effect1_dropShadow"/>
<feBlend mode="normal" in="SourceGraphic" in2="effect1_dropShadow" result="shape"/>
</filter>
<filter id="filter4_d" x="226.716" y="96.2029" width="219.116" height="174.535" filterUnits="userSpaceOnUse" color-interpolation-filters="sRGB">
<feFlood flood-opacity="0" result="BackgroundImageFix"/>
<feColorMatrix in="SourceAlpha" type="matrix" values="0 0 0 0 0 0 0 0 0 0 0 0 0 0 0 0 0 0 127 0"/>
<feOffset dx="-5" dy="4"/>
<feGaussianBlur stdDeviation="2"/>
<feColorMatrix type="matrix" values="0 0 0 0 1 0 0 0 0 1 0 0 0 0 1 0 0 0 1 0"/>
<feBlend mode="normal" in2="BackgroundImageFix" result="effect1_dropShadow"/>
<feBlend mode="normal" in="SourceGraphic" in2="effect1_dropShadow" result="shape"/>
</filter>
<linearGradient id="paint0_linear" x1="171.735" y1="-154.698" x2="162.432" y2="393.394" gradientUnits="userSpaceOnUse">
<stop offset="0.50439" stop-color="#641419"/>
<stop offset="0.880208" stop-color="#ECBC3D"/>
</linearGradient>
<linearGradient id="paint1_linear" x1="171.735" y1="-154.698" x2="162.432" y2="393.394" gradientUnits="userSpaceOnUse">
<stop offset="0.50439" stop-color="#3300C4"/>
<stop offset="0.791667" stop-color="#A5A5A5"/>
</linearGradient>
<linearGradient id="paint2_linear" x1="351.636" y1="151.692" x2="352.034" y2="152.268" gradientUnits="userSpaceOnUse">
<stop offset="0.161458" stop-color="#8E4824"/>
<stop offset="0.161558" stop-color="#CE8D4C"/>
<stop offset="0.979167" stop-color="#ECBC3D"/>
</linearGradient>
<linearGradient id="paint3_linear" x1="351.636" y1="151.692" x2="352.034" y2="152.268" gradientUnits="userSpaceOnUse">
<stop offset="0.161458" stop-color="#6244B8"/>
<stop offset="0.161558" stop-color="#CE8D4C"/>
<stop offset="0.979167" stop-color="#ECBC3D"/>
</linearGradient>
<linearGradient id="paint4_linear" x1="332.843" y1="-135.194" x2="332.843" y2="412.957" gradientUnits="userSpaceOnUse">
<stop offset="0.474647" stop-color="#641419"/>
<stop offset="1" stop-color="#ECBC3D"/>
</linearGradient>
<linearGradient id="paint5_linear" x1="332.843" y1="-135.194" x2="332.843" y2="412.957" gradientUnits="userSpaceOnUse">
<stop offset="0.474647" stop-color="#A5A5A5"/>
<stop offset="1" stop-color="#3300C4"/>
</linearGradient>
<linearGradient id="paint6_linear" x1="421.805" y1="190.045" x2="422.203" y2="190.621" gradientUnits="userSpaceOnUse">
<stop offset="0.161458" stop-color="#8171AF"/>
<stop offset="0.161558" stop-color="#CE8D4C"/>
<stop offset="0.979167" stop-color="#ECBC3D"/>
</linearGradient>
</defs>
</svg>
