<svg width="275" height="114" viewBox="0 0 275 114" fill="none" xmlns="http://www.w3.org/2000/svg">
<path d="M40.5147 95.2542C57.6108 95.2542 71.4699 81.3553 71.4699 64.2101C71.4699 47.065 57.6108 33.1661 40.5147 33.1661C23.4187 33.1661 9.55957 47.065 9.55957 64.2101C9.55957 81.3553 23.4187 95.2542 40.5147 95.2542Z" fill="url(#paint0_linear)"/>
<g filter="url(#filter0_d)">
<path d="M51.6777 55.4126C51.6386 57.4774 49.8215 60.8485 46.226 65.5258C44.0577 68.3319 42.9671 70.0699 42.9545 70.7396C42.9419 71.4093 43.2694 71.7505 43.9372 71.7631C44.6606 71.7769 45.6702 71.3773 46.9659 70.5645C50.1791 68.4481 53.4006 65.8852 56.6305 62.876C57.0842 62.4379 57.3923 62.3322 57.555 62.5585C57.7178 62.785 57.7981 62.954 57.796 63.0656C57.7939 63.1772 57.1696 63.8073 55.9233 64.9561C54.6768 66.1049 53.2903 67.3068 51.7635 68.5619C50.2924 69.818 48.4307 71.1227 46.1784 72.4756C43.9272 73.7728 42.0781 74.4077 40.6312 74.3802C37.6261 74.3232 36.1488 72.9552 36.1994 70.2764C36.2173 69.3277 36.4053 68.2146 36.7634 66.9374C37.528 64.7745 40.7517 60.6206 46.4346 54.4756C47.1727 53.708 47.546 53.1009 47.5545 52.6544C47.5629 52.2079 47.0106 51.9741 45.8977 51.953C44.7847 51.9319 43.0133 52.8753 40.5835 54.7832C39.736 55.437 38.6877 56.4221 37.438 57.7383C36.1896 58.9987 34.7032 61.0641 32.979 63.9345C31.3103 66.8059 30.0654 69.3504 29.2442 71.568C28.8913 72.5663 28.214 73.0559 27.2124 73.0368C26.9898 73.0326 26.712 72.9995 26.3792 72.9373C25.3271 72.6382 24.9193 72.1279 25.1555 71.4067C29.6426 63.7316 32.322 58.9253 33.1935 56.9878C34.0651 55.0503 34.5089 53.663 34.5247 52.8259C34.5405 51.9887 34.2145 51.5639 33.5467 51.5511C30.5972 51.4952 26.2767 56.2424 20.5852 65.7929C18.5229 68.8801 16.867 71.0818 15.6173 72.3981C14.3678 73.7143 13.2422 74.3628 12.2405 74.3438C12.1292 74.3417 12.0179 74.3395 11.9066 74.3375C10.4597 74.31 9.05173 73.6971 7.68262 72.4986C8.02599 72.0027 8.85344 70.9298 10.165 69.2797C13.0684 65.8735 15.608 62.5719 17.7837 59.3751C15.3456 61.7294 13.279 63.5605 11.5843 64.8683C11.0194 65.3042 10.7128 65.3263 10.6645 64.9346C10.5606 64.5418 10.6782 64.2091 11.0174 63.9364C11.3576 63.6078 11.9235 63.1161 12.7153 62.4612C13.508 61.7504 14.0178 61.2856 14.2447 61.0666C14.5271 60.8486 15.008 60.439 15.6874 59.8378C16.4235 59.1818 16.9622 58.6616 17.3034 58.2774C18.8964 56.4652 20.0667 54.9242 20.8143 53.6544C21.1053 52.9898 21.2286 52.3501 21.1845 51.7352C21.1972 51.0655 21.066 50.6443 20.7908 50.4717C20.5725 50.2442 20.4937 49.9914 20.5546 49.7135C20.5631 49.267 20.7899 49.048 21.2351 49.0564C21.4577 49.0606 21.707 49.1212 21.9832 49.2381C23.6936 50.0521 24.5241 51.7707 24.4745 54.3938C24.4451 55.9564 24.1069 57.6528 23.4599 59.4828C24.6056 57.7738 25.8342 56.0944 27.1458 54.4444C29.4832 51.5299 31.7926 50.0942 34.0743 50.1375C35.6325 50.1671 36.3947 51.0748 36.361 52.8608C36.3294 54.535 35.1045 57.4986 32.6861 61.7516C35.0803 58.7822 36.9304 56.6121 38.2367 55.2411C41.2441 52.2276 44.1111 50.7467 46.838 50.7985C49.7317 50.8535 51.3496 52.1403 51.6918 54.6591C51.6865 54.9381 51.6818 55.1893 51.6777 55.4126Z" fill="url(#paint1_linear)"/>
</g>
<path d="M51.6777 55.4126C51.6386 57.4774 49.8215 60.8485 46.226 65.5258C44.0577 68.3319 42.9671 70.0699 42.9545 70.7396C42.9419 71.4093 43.2694 71.7505 43.9372 71.7631C44.6606 71.7769 45.6702 71.3773 46.9659 70.5645C50.1791 68.4481 53.4006 65.8852 56.6305 62.876C57.0842 62.4379 57.3923 62.3322 57.555 62.5585C57.7178 62.785 57.7981 62.954 57.796 63.0656C57.7939 63.1772 57.1696 63.8073 55.9233 64.9561C54.6768 66.1049 53.2903 67.3068 51.7635 68.5619C50.2924 69.818 48.4307 71.1227 46.1784 72.4756C43.9272 73.7728 42.0781 74.4077 40.6312 74.3802C37.6261 74.3232 36.1488 72.9552 36.1994 70.2764C36.2173 69.3277 36.4053 68.2146 36.7634 66.9374C37.528 64.7745 40.7517 60.6206 46.4346 54.4756C47.1727 53.708 47.546 53.1009 47.5545 52.6544C47.5629 52.2079 47.0106 51.9741 45.8977 51.953C44.7847 51.9319 43.0133 52.8753 40.5835 54.7832C39.736 55.437 38.6877 56.4221 37.438 57.7383C36.1896 58.9987 34.7032 61.0641 32.979 63.9345C31.3103 66.8059 30.0654 69.3504 29.2442 71.568C28.8913 72.5663 28.214 73.0559 27.2124 73.0368C26.9898 73.0326 26.712 72.9995 26.3792 72.9373C25.3271 72.6382 24.9193 72.1279 25.1555 71.4067C29.6426 63.7316 32.322 58.9253 33.1935 56.9878C34.0651 55.0503 34.5089 53.663 34.5247 52.8259C34.5405 51.9887 34.2145 51.5639 33.5467 51.5511C30.5972 51.4952 26.2767 56.2424 20.5852 65.7929C18.5229 68.8801 16.867 71.0818 15.6173 72.3981C14.3678 73.7143 13.2422 74.3628 12.2405 74.3438C12.1292 74.3417 12.0179 74.3395 11.9066 74.3375C10.4597 74.31 9.05173 73.6971 7.68262 72.4986C8.02599 72.0027 8.85344 70.9298 10.165 69.2797C13.0684 65.8735 15.608 62.5719 17.7837 59.3751C15.3456 61.7294 13.279 63.5605 11.5843 64.8683C11.0194 65.3042 10.7128 65.3263 10.6645 64.9346C10.5606 64.5418 10.6782 64.2091 11.0174 63.9364C11.3576 63.6078 11.9235 63.1161 12.7153 62.4612C13.508 61.7504 14.0178 61.2856 14.2447 61.0666C14.5271 60.8486 15.008 60.439 15.6874 59.8378C16.4235 59.1818 16.9622 58.6616 17.3034 58.2774C18.8964 56.4652 20.0667 54.9242 20.8143 53.6544C21.1053 52.9898 21.2286 52.3501 21.1845 51.7352C21.1972 51.0655 21.066 50.6443 20.7908 50.4717C20.5725 50.2442 20.4937 49.9914 20.5546 49.7135C20.5631 49.267 20.7899 49.048 21.2351 49.0564C21.4577 49.0606 21.707 49.1212 21.9832 49.2381C23.6936 50.0521 24.5241 51.7707 24.4745 54.3938C24.4451 55.9564 24.1069 57.6528 23.4599 59.4828C24.6056 57.7738 25.8342 56.0944 27.1458 54.4444C29.4832 51.5299 31.7926 50.0942 34.0743 50.1375C35.6325 50.1671 36.3947 51.0748 36.361 52.8608C36.3294 54.535 35.1045 57.4986 32.6861 61.7516C35.0803 58.7822 36.9304 56.6121 38.2367 55.2411C41.2441 52.2276 44.1111 50.7467 46.838 50.7985C49.7317 50.8535 51.3496 52.1403 51.6918 54.6591C51.6865 54.9381 51.6818 55.1893 51.6777 55.4126Z" fill="url(#paint2_linear)"/>
<path d="M59.0752 61.103L71.5449 51.4559" stroke="#6244B8" stroke-linecap="round" stroke-linejoin="round"/>
<g filter="url(#filter1_d)">
<path d="M70.9647 60.7472C68.5157 63.594 66.5119 66.2174 64.9535 68.6177C63.4507 70.9621 62.6993 72.6367 62.6993 73.6414C62.6993 74.5902 63.2559 75.0648 64.3691 75.0648C65.5379 75.0648 67.8756 73.9204 71.3822 71.6319C74.9443 69.3433 78.2283 66.7756 81.2339 63.9289C81.5121 63.6497 81.7626 63.538 81.9853 63.594C82.2079 63.6497 82.3192 63.7892 82.3192 64.0126C82.3192 64.2358 82.2079 64.487 81.9853 64.7661C74.8052 71.3528 69.3227 75.4834 65.5379 77.158C63.8682 77.8278 62.6714 78.1628 61.9479 78.1628C59.2763 78.1628 57.4395 77.7162 56.4376 76.8231C55.4914 75.9299 55.0183 74.9531 55.0183 73.8926C55.0183 71.7714 55.4358 70.1526 56.2707 69.0363C58.9979 65.1848 61.1686 61.9194 62.7828 59.2401C63.2837 58.4585 63.1724 57.9282 62.4488 57.6492C61.7809 57.3143 60.9182 57.1468 59.8607 57.1468C58.8588 57.1468 58.33 57.1189 58.2744 57.0631C54.5451 62.0868 50.8439 66.0499 47.1703 68.9526C46.725 69.3433 46.4746 69.3433 46.4189 68.9526C46.4189 68.506 46.725 67.9757 47.3373 67.3617C51.2334 64.0126 54.4339 60.468 56.9386 56.7282C56.4376 56.3933 56.1872 55.9467 56.1872 55.3885C56.1872 54.7745 56.2149 54.0489 56.2707 53.2116C56.3819 52.3743 56.8272 51.2579 57.6065 49.8624C58.9423 47.518 60.3337 46.3458 61.7809 46.3458C63.0054 46.3458 63.6177 47.0157 63.6177 48.3553C63.6177 50.1973 62.7549 52.2068 61.0295 54.3838C60.1946 55.3885 59.4154 56.1141 58.6918 56.5607C60.7512 55.8909 63.7568 55.556 67.7087 55.556C69.6566 55.556 71.0482 56.2816 71.8831 57.7329C71.9943 57.9562 72.0501 58.2911 72.0501 58.7377C72.0501 59.1841 71.6883 59.854 70.9647 60.7472Z" fill="url(#paint3_linear)"/>
</g>
<path d="M70.9647 60.7472C68.5157 63.594 66.5119 66.2174 64.9535 68.6177C63.4507 70.9621 62.6993 72.6367 62.6993 73.6414C62.6993 74.5902 63.2559 75.0648 64.3691 75.0648C65.5379 75.0648 67.8756 73.9204 71.3822 71.6319C74.9443 69.3433 78.2283 66.7756 81.2339 63.9289C81.5121 63.6497 81.7626 63.538 81.9853 63.594C82.2079 63.6497 82.3192 63.7892 82.3192 64.0126C82.3192 64.2358 82.2079 64.487 81.9853 64.7661C74.8052 71.3528 69.3227 75.4834 65.5379 77.158C63.8682 77.8278 62.6714 78.1628 61.9479 78.1628C59.2763 78.1628 57.4395 77.7162 56.4376 76.8231C55.4914 75.9299 55.0183 74.9531 55.0183 73.8926C55.0183 71.7714 55.4358 70.1526 56.2707 69.0363C58.9979 65.1848 61.1686 61.9194 62.7828 59.2401C63.2837 58.4585 63.1724 57.9282 62.4488 57.6492C61.7809 57.3143 60.9182 57.1468 59.8607 57.1468C58.8588 57.1468 58.33 57.1189 58.2744 57.0631C54.5451 62.0868 50.8439 66.0499 47.1703 68.9526C46.725 69.3433 46.4746 69.3433 46.4189 68.9526C46.4189 68.506 46.725 67.9757 47.3373 67.3617C51.2334 64.0126 54.4339 60.468 56.9386 56.7282C56.4376 56.3933 56.1872 55.9467 56.1872 55.3885C56.1872 54.7745 56.2149 54.0489 56.2707 53.2116C56.3819 52.3743 56.8272 51.2579 57.6065 49.8624C58.9423 47.518 60.3337 46.3458 61.7809 46.3458C63.0054 46.3458 63.6177 47.0157 63.6177 48.3553C63.6177 50.1973 62.7549 52.2068 61.0295 54.3838C60.1946 55.3885 59.4154 56.1141 58.6918 56.5607C60.7512 55.8909 63.7568 55.556 67.7087 55.556C69.6566 55.556 71.0482 56.2816 71.8831 57.7329C71.9943 57.9562 72.0501 58.2911 72.0501 58.7377C72.0501 59.1841 71.6883 59.854 70.9647 60.7472Z" fill="url(#paint4_linear)"/>
<path d="M71.5869 68.5881L84.0566 58.941" stroke="#7965B2" stroke-linecap="round" stroke-linejoin="round"/>
<path d="M92.584 68.976H94.924V54.432H92.584V51.408H104.464C106.936 51.408 108.88 51.888 110.296 52.848C111.736 53.808 112.456 55.272 112.456 57.24C112.456 60.168 110.92 61.98 107.848 62.676L111.7 68.94H114.148V72H108.136L103.096 63.252H101.224V60.156H103.996C105.196 60.156 106.06 59.892 106.588 59.364C107.14 58.812 107.416 58.08 107.416 57.168C107.416 56.352 107.152 55.692 106.624 55.188C106.096 54.684 105.316 54.432 104.284 54.432H99.856V68.976H102.124V72H92.584V68.976ZM123.862 72.396C122.302 72.396 120.922 72.084 119.722 71.46C118.546 70.836 117.634 69.948 116.986 68.796C116.338 67.644 116.014 66.324 116.014 64.836C116.014 63.348 116.338 62.04 116.986 60.912C117.634 59.76 118.546 58.872 119.722 58.248C120.922 57.624 122.302 57.312 123.862 57.312C125.422 57.312 126.802 57.624 128.002 58.248C129.202 58.872 130.126 59.748 130.774 60.876C131.446 62.004 131.782 63.312 131.782 64.8C131.782 66.312 131.446 67.644 130.774 68.796C130.126 69.948 129.202 70.836 128.002 71.46C126.802 72.084 125.422 72.396 123.862 72.396ZM123.862 69.084C125.014 69.108 125.926 68.736 126.598 67.968C127.294 67.176 127.642 66.12 127.642 64.8C127.642 63.528 127.294 62.52 126.598 61.776C125.926 61.008 125.014 60.624 123.862 60.624C122.734 60.624 121.834 61.008 121.162 61.776C120.49 62.52 120.154 63.54 120.154 64.836C120.154 66.132 120.49 67.176 121.162 67.968C121.834 68.736 122.734 69.108 123.862 69.084ZM161.319 69.3V72H153.003V69.3H154.839V62.964C154.839 62.148 154.647 61.512 154.263 61.056C153.879 60.6 153.339 60.372 152.643 60.372C151.539 60.372 150.435 60.756 149.331 61.524C149.355 61.692 149.367 61.944 149.367 62.28V69.3H151.491V72H143.175V69.3H145.011V62.964C145.011 62.148 144.807 61.512 144.399 61.056C144.015 60.6 143.475 60.372 142.779 60.372C141.891 60.372 140.883 60.684 139.755 61.308V69.3H141.699V72H133.203V69.3H135.399V60.372H133.239V57.672H139.503L139.575 59.004C141.279 57.876 142.935 57.312 144.543 57.312C145.479 57.312 146.295 57.504 146.991 57.888C147.711 58.272 148.275 58.812 148.683 59.508C149.643 58.788 150.579 58.248 151.491 57.888C152.427 57.504 153.399 57.312 154.407 57.312C155.847 57.312 156.999 57.768 157.863 58.68C158.751 59.568 159.195 60.756 159.195 62.244V69.3H161.319ZM179.811 69.3V72H173.763L173.727 70.956C172.383 71.916 170.871 72.396 169.191 72.396C167.871 72.396 166.695 72.084 165.663 71.46C164.631 70.836 163.815 69.96 163.215 68.832C162.615 67.68 162.315 66.336 162.315 64.8C162.315 63.288 162.603 61.968 163.179 60.84C163.779 59.712 164.583 58.848 165.591 58.248C166.623 57.624 167.775 57.312 169.047 57.312C170.775 57.312 172.263 57.816 173.511 58.824V53.712H171.171V51.048H177.867V69.3H179.811ZM166.851 64.944C166.851 66.216 167.199 67.236 167.895 68.004C168.615 68.748 169.539 69.12 170.667 69.12C171.675 69.12 172.623 68.832 173.511 68.256V61.632C172.599 60.936 171.603 60.588 170.523 60.588C169.419 60.588 168.531 60.972 167.859 61.74C167.187 62.484 166.851 63.552 166.851 64.944ZM189.006 72.396C187.446 72.396 186.066 72.084 184.866 71.46C183.69 70.836 182.778 69.948 182.13 68.796C181.482 67.644 181.158 66.324 181.158 64.836C181.158 63.348 181.482 62.04 182.13 60.912C182.778 59.76 183.69 58.872 184.866 58.248C186.066 57.624 187.446 57.312 189.006 57.312C190.566 57.312 191.946 57.624 193.146 58.248C194.346 58.872 195.27 59.748 195.918 60.876C196.59 62.004 196.926 63.312 196.926 64.8C196.926 66.312 196.59 67.644 195.918 68.796C195.27 69.948 194.346 70.836 193.146 71.46C191.946 72.084 190.566 72.396 189.006 72.396ZM189.006 69.084C190.158 69.108 191.07 68.736 191.742 67.968C192.438 67.176 192.786 66.12 192.786 64.8C192.786 63.528 192.438 62.52 191.742 61.776C191.07 61.008 190.158 60.624 189.006 60.624C187.878 60.624 186.978 61.008 186.306 61.776C185.634 62.52 185.298 63.54 185.298 64.836C185.298 66.132 185.634 67.176 186.306 67.968C186.978 68.736 187.878 69.108 189.006 69.084ZM216.671 69.3V72H208.355V69.3H210.191V62.964C210.191 62.148 209.999 61.512 209.615 61.056C209.231 60.6 208.691 60.372 207.995 60.372C207.035 60.372 206.003 60.696 204.899 61.344V69.3H206.843V72H198.347V69.3H200.543V60.372H198.347V57.672H204.647L204.683 59.004C206.435 57.876 208.115 57.312 209.723 57.312C211.187 57.312 212.351 57.768 213.215 58.68C214.103 59.568 214.547 60.756 214.547 62.244V69.3H216.671Z" fill="url(#paint5_linear)"/>
<path d="M92.584 68.976V67.976H91.584V68.976H92.584ZM94.924 68.976V69.976H95.924V68.976H94.924ZM94.924 54.432H95.924V53.432H94.924V54.432ZM92.584 54.432H91.584V55.432H92.584V54.432ZM92.584 51.408V50.408H91.584V51.408H92.584ZM110.296 52.848L109.735 53.6757L109.741 53.6801L110.296 52.848ZM107.848 62.676L107.627 61.7007L106.264 62.0095L106.996 63.1998L107.848 62.676ZM111.7 68.94L110.848 69.4638L111.141 69.94H111.7V68.94ZM114.148 68.94H115.148V67.94H114.148V68.94ZM114.148 72V73H115.148V72H114.148ZM108.136 72L107.27 72.4992L107.558 73H108.136V72ZM103.096 63.252L103.962 62.7528L103.674 62.252H103.096V63.252ZM101.224 63.252H100.224V64.252H101.224V63.252ZM101.224 60.156V59.156H100.224V60.156H101.224ZM106.588 59.364L107.295 60.0711L107.295 60.0711L106.588 59.364ZM106.624 55.188L105.934 55.9114L105.934 55.9114L106.624 55.188ZM99.856 54.432V53.432H98.856V54.432H99.856ZM99.856 68.976H98.856V69.976H99.856V68.976ZM102.124 68.976H103.124V67.976H102.124V68.976ZM102.124 72V73H103.124V72H102.124ZM92.584 72H91.584V73H92.584V72ZM92.584 69.976H94.924V67.976H92.584V69.976ZM95.924 68.976V54.432H93.924V68.976H95.924ZM94.924 53.432H92.584V55.432H94.924V53.432ZM93.584 54.432V51.408H91.584V54.432H93.584ZM92.584 52.408H104.464V50.408H92.584V52.408ZM104.464 52.408C106.821 52.408 108.543 52.8677 109.735 53.6757L110.857 52.0203C109.217 50.9083 107.051 50.408 104.464 50.408V52.408ZM109.741 53.6801C110.861 54.4267 111.456 55.5528 111.456 57.24H113.456C113.456 54.9912 112.611 53.1893 110.851 52.0159L109.741 53.6801ZM111.456 57.24C111.456 58.5242 111.123 59.4623 110.541 60.1484C109.953 60.8423 109.02 61.3851 107.627 61.7007L108.069 63.6513C109.748 63.2709 111.119 62.5597 112.067 61.4416C113.021 60.3157 113.456 58.8838 113.456 57.24H111.456ZM106.996 63.1998L110.848 69.4638L112.552 68.4162L108.7 62.1522L106.996 63.1998ZM111.7 69.94H114.148V67.94H111.7V69.94ZM113.148 68.94V72H115.148V68.94H113.148ZM114.148 71H108.136V73H114.148V71ZM109.002 71.5008L103.962 62.7528L102.23 63.7512L107.27 72.4992L109.002 71.5008ZM103.096 62.252H101.224V64.252H103.096V62.252ZM102.224 63.252V60.156H100.224V63.252H102.224ZM101.224 61.156H103.996V59.156H101.224V61.156ZM103.996 61.156C105.307 61.156 106.493 60.8732 107.295 60.0711L105.881 58.6569C105.627 58.9108 105.085 59.156 103.996 59.156V61.156ZM107.295 60.0711C108.066 59.3001 108.416 58.2971 108.416 57.168H106.416C106.416 57.8629 106.214 58.3239 105.881 58.6569L107.295 60.0711ZM108.416 57.168C108.416 56.1142 108.064 55.1805 107.314 54.4646L105.934 55.9114C106.24 56.2035 106.416 56.5898 106.416 57.168H108.416ZM107.314 54.4646C106.535 53.7209 105.466 53.432 104.284 53.432V55.432C105.166 55.432 105.657 55.6471 105.934 55.9114L107.314 54.4646ZM104.284 53.432H99.856V55.432H104.284V53.432ZM98.856 54.432V68.976H100.856V54.432H98.856ZM99.856 69.976H102.124V67.976H99.856V69.976ZM101.124 68.976V72H103.124V68.976H101.124ZM102.124 71H92.584V73H102.124V71ZM93.584 72V68.976H91.584V72H93.584ZM119.722 71.46L119.253 72.3434L119.26 72.3472L119.722 71.46ZM116.986 68.796L116.114 69.2863L116.114 69.2863L116.986 68.796ZM116.986 60.912L117.853 61.4101L117.857 61.4023L116.986 60.912ZM119.722 58.248L119.26 57.3608L119.253 57.3647L119.722 58.248ZM128.002 58.248L128.463 57.3608L128.463 57.3608L128.002 58.248ZM130.774 60.876L129.907 61.3741L129.911 61.381L129.915 61.3878L130.774 60.876ZM130.774 68.796L129.91 68.2921L129.906 68.2989L129.902 68.3057L130.774 68.796ZM128.002 71.46L127.54 70.5728L127.54 70.5728L128.002 71.46ZM123.862 69.084L123.883 68.0842L123.862 68.0838L123.841 68.0842L123.862 69.084ZM126.598 67.968L125.847 67.3079L125.845 67.3095L126.598 67.968ZM126.598 61.776L125.845 62.4345L125.856 62.447L125.868 62.4592L126.598 61.776ZM121.162 61.776L121.904 62.4463L121.909 62.4404L121.914 62.4345L121.162 61.776ZM121.162 67.968L120.399 68.615L120.404 68.6208L120.409 68.6265L121.162 67.968ZM123.862 71.396C122.438 71.396 121.22 71.1121 120.183 70.5728L119.26 72.3472C120.623 73.0559 122.166 73.396 123.862 73.396V71.396ZM120.191 70.5767C119.182 70.0417 118.411 69.2896 117.857 68.3057L116.114 69.2863C116.857 70.6064 117.909 71.6303 119.253 72.3433L120.191 70.5767ZM117.857 68.3057C117.304 67.3215 117.014 66.1743 117.014 64.836H115.014C115.014 66.4737 115.372 67.9665 116.114 69.2863L117.857 68.3057ZM117.014 64.836C117.014 63.4973 117.304 62.3659 117.853 61.4101L116.119 60.4139C115.372 61.7141 115.014 63.1987 115.014 64.836H117.014ZM117.857 61.4023C118.411 60.4184 119.182 59.6663 120.191 59.1313L119.253 57.3647C117.909 58.0777 116.857 59.1016 116.114 60.4217L117.857 61.4023ZM120.183 59.1352C121.22 58.5959 122.438 58.312 123.862 58.312V56.312C122.166 56.312 120.623 56.6521 119.26 57.3608L120.183 59.1352ZM123.862 58.312C125.286 58.312 126.503 58.5959 127.54 59.1352L128.463 57.3608C127.1 56.6521 125.558 56.312 123.862 56.312V58.312ZM127.54 59.1352C128.578 59.6747 129.358 60.4188 129.907 61.3741L131.641 60.3779C130.894 59.0772 129.826 58.0693 128.463 57.3608L127.54 59.1352ZM129.915 61.3878C130.483 62.3412 130.782 63.4677 130.782 64.8H132.782C132.782 63.1563 132.409 61.6668 131.633 60.3642L129.915 61.3878ZM130.782 64.8C130.782 66.1591 130.481 67.3126 129.91 68.2921L131.638 69.2999C132.41 67.9754 132.782 66.4649 132.782 64.8H130.782ZM129.902 68.3057C129.352 69.2842 128.572 70.0362 127.54 70.5728L128.463 72.3472C129.831 71.6358 130.9 70.6118 131.645 69.2863L129.902 68.3057ZM127.54 70.5728C126.503 71.1121 125.286 71.396 123.862 71.396V73.396C125.558 73.396 127.1 73.0559 128.463 72.3472L127.54 70.5728ZM123.841 70.0838C125.246 70.113 126.457 69.6473 127.35 68.6265L125.845 67.3095C125.394 67.8247 124.782 68.103 123.883 68.0842L123.841 70.0838ZM127.349 68.6281C128.243 67.611 128.642 66.2996 128.642 64.8H126.642C126.642 65.9404 126.345 66.741 125.847 67.3079L127.349 68.6281ZM128.642 64.8C128.642 63.3403 128.238 62.0652 127.328 61.0928L125.868 62.4592C126.35 62.9748 126.642 63.7157 126.642 64.8H128.642ZM127.35 61.1175C126.463 60.1031 125.261 59.624 123.862 59.624V61.624C124.767 61.624 125.389 61.9129 125.845 62.4345L127.35 61.1175ZM123.862 59.624C122.48 59.624 121.292 60.1081 120.409 61.1175L121.914 62.4345C122.375 61.9079 122.988 61.624 123.862 61.624V59.624ZM120.42 61.1057C119.538 62.0822 119.154 63.3669 119.154 64.836H121.154C121.154 63.7131 121.442 62.9578 121.904 62.4463L120.42 61.1057ZM119.154 64.836C119.154 66.3084 119.539 67.6009 120.399 68.615L121.924 67.321C121.441 66.7511 121.154 65.9556 121.154 64.836H119.154ZM120.409 68.6265C121.298 69.6424 122.495 70.1133 123.883 70.0838L123.841 68.0842C122.973 68.1027 122.37 67.8296 121.914 67.3095L120.409 68.6265ZM161.319 69.3H162.319V68.3H161.319V69.3ZM161.319 72V73H162.319V72H161.319ZM153.003 72H152.003V73H153.003V72ZM153.003 69.3V68.3H152.003V69.3H153.003ZM154.839 69.3V70.3H155.839V69.3H154.839ZM154.263 61.056L155.028 60.4119L155.028 60.4119L154.263 61.056ZM149.331 61.524L148.76 60.7031L148.254 61.0551L148.341 61.6654L149.331 61.524ZM149.367 69.3H148.367V70.3H149.367V69.3ZM151.491 69.3H152.491V68.3H151.491V69.3ZM151.491 72V73H152.491V72H151.491ZM143.175 72H142.175V73H143.175V72ZM143.175 69.3V68.3H142.175V69.3H143.175ZM145.011 69.3V70.3H146.011V69.3H145.011ZM144.399 61.056L143.634 61.7001L143.643 61.7116L143.653 61.7228L144.399 61.056ZM139.755 61.308L139.271 60.433L138.755 60.7184V61.308H139.755ZM139.755 69.3H138.755V70.3H139.755V69.3ZM141.699 69.3H142.699V68.3H141.699V69.3ZM141.699 72V73H142.699V72H141.699ZM133.203 72H132.203V73H133.203V72ZM133.203 69.3V68.3H132.203V69.3H133.203ZM135.399 69.3V70.3H136.399V69.3H135.399ZM135.399 60.372H136.399V59.372H135.399V60.372ZM133.239 60.372H132.239V61.372H133.239V60.372ZM133.239 57.672V56.672H132.239V57.672H133.239ZM139.503 57.672L140.501 57.618L140.45 56.672H139.503V57.672ZM139.575 59.004L138.576 59.058L138.67 60.8019L140.127 59.8379L139.575 59.004ZM146.991 57.888L146.508 58.7636L146.514 58.767L146.52 58.7704L146.991 57.888ZM148.683 59.508L147.82 60.0137L148.387 60.9801L149.283 60.308L148.683 59.508ZM151.491 57.888L151.858 58.8182L151.87 58.8132L151.491 57.888ZM157.863 58.68L157.137 59.3677L157.146 59.3776L157.156 59.3871L157.863 58.68ZM159.195 69.3H158.195V70.3H159.195V69.3ZM160.319 69.3V72H162.319V69.3H160.319ZM161.319 71H153.003V73H161.319V71ZM154.003 72V69.3H152.003V72H154.003ZM153.003 70.3H154.839V68.3H153.003V70.3ZM155.839 69.3V62.964H153.839V69.3H155.839ZM155.839 62.964C155.839 61.9991 155.611 61.105 155.028 60.4119L153.498 61.7001C153.682 61.919 153.839 62.2969 153.839 62.964H155.839ZM155.028 60.4119C154.421 59.6914 153.579 59.372 152.643 59.372V61.372C153.099 61.372 153.337 61.5086 153.498 61.7001L155.028 60.4119ZM152.643 59.372C151.294 59.372 149.994 59.8443 148.76 60.7031L149.902 62.3449C150.875 61.6677 151.784 61.372 152.643 61.372V59.372ZM148.341 61.6654C148.354 61.7607 148.367 61.955 148.367 62.28H150.367C150.367 61.933 150.355 61.6233 150.321 61.3826L148.341 61.6654ZM148.367 62.28V69.3H150.367V62.28H148.367ZM149.367 70.3H151.491V68.3H149.367V70.3ZM150.491 69.3V72H152.491V69.3H150.491ZM151.491 71H143.175V73H151.491V71ZM144.175 72V69.3H142.175V72H144.175ZM143.175 70.3H145.011V68.3H143.175V70.3ZM146.011 69.3V62.964H144.011V69.3H146.011ZM146.011 62.964C146.011 61.9854 145.764 61.0824 145.144 60.3892L143.653 61.7228C143.849 61.9416 144.011 62.3106 144.011 62.964H146.011ZM145.164 60.4119C144.557 59.6914 143.715 59.372 142.779 59.372V61.372C143.235 61.372 143.473 61.5086 143.634 61.7001L145.164 60.4119ZM142.779 59.372C141.662 59.372 140.484 59.7616 139.271 60.433L140.239 62.183C141.281 61.6064 142.119 61.372 142.779 61.372V59.372ZM138.755 61.308V69.3H140.755V61.308H138.755ZM139.755 70.3H141.699V68.3H139.755V70.3ZM140.699 69.3V72H142.699V69.3H140.699ZM141.699 71H133.203V73H141.699V71ZM134.203 72V69.3H132.203V72H134.203ZM133.203 70.3H135.399V68.3H133.203V70.3ZM136.399 69.3V60.372H134.399V69.3H136.399ZM135.399 59.372H133.239V61.372H135.399V59.372ZM134.239 60.372V57.672H132.239V60.372H134.239ZM133.239 58.672H139.503V56.672H133.239V58.672ZM138.504 57.726L138.576 59.058L140.573 58.95L140.501 57.618L138.504 57.726ZM140.127 59.8379C141.711 58.789 143.178 58.312 144.543 58.312V56.312C142.691 56.312 140.846 56.963 139.023 58.1701L140.127 59.8379ZM144.543 58.312C145.34 58.312 145.984 58.4746 146.508 58.7636L147.474 57.0124C146.606 56.5334 145.618 56.312 144.543 56.312V58.312ZM146.52 58.7704C147.079 59.0685 147.507 59.479 147.82 60.0137L149.545 59.0023C149.043 58.145 148.342 57.4755 147.461 57.0056L146.52 58.7704ZM149.283 60.308C150.187 59.6301 151.045 59.139 151.858 58.8182L151.124 56.9578C150.112 57.357 149.099 57.9459 148.083 58.708L149.283 60.308ZM151.87 58.8132C152.686 58.4784 153.529 58.312 154.407 58.312V56.312C153.268 56.312 152.167 56.5296 151.111 56.9628L151.87 58.8132ZM154.407 58.312C155.616 58.312 156.49 58.6849 157.137 59.3677L158.589 57.9923C157.508 56.8511 156.077 56.312 154.407 56.312V58.312ZM157.156 59.3871C157.822 60.0533 158.195 60.9685 158.195 62.244H160.195C160.195 60.5435 159.68 59.0827 158.57 57.9729L157.156 59.3871ZM158.195 62.244V69.3H160.195V62.244H158.195ZM159.195 70.3H161.319V68.3H159.195V70.3ZM179.811 69.3H180.811V68.3H179.811V69.3ZM179.811 72V73H180.811V72H179.811ZM173.763 72L172.764 72.0345L172.797 73H173.763V72ZM173.727 70.956L174.727 70.9215L174.663 69.0591L173.146 70.1423L173.727 70.956ZM165.663 71.46L165.146 72.3157L165.146 72.3157L165.663 71.46ZM163.215 68.832L162.328 69.294L162.333 69.3016L163.215 68.832ZM163.179 60.84L162.297 60.3704L162.293 60.3778L162.289 60.3852L163.179 60.84ZM165.591 58.248L166.103 59.1073L166.109 59.1037L165.591 58.248ZM173.511 58.824L172.883 59.6019L174.511 60.9171V58.824H173.511ZM173.511 53.712H174.511V52.712H173.511V53.712ZM171.171 53.712H170.171V54.712H171.171V53.712ZM171.171 51.048V50.048H170.171V51.048H171.171ZM177.867 51.048H178.867V50.048H177.867V51.048ZM177.867 69.3H176.867V70.3H177.867V69.3ZM167.895 68.004L167.154 68.6755L167.165 68.6877L167.177 68.6994L167.895 68.004ZM173.511 68.256L174.056 69.095L174.511 68.7993V68.256H173.511ZM173.511 61.632H174.511V61.1372L174.118 60.837L173.511 61.632ZM167.859 61.74L168.602 62.4103L168.607 62.4044L168.612 62.3985L167.859 61.74ZM178.811 69.3V72H180.811V69.3H178.811ZM179.811 71H173.763V73H179.811V71ZM174.763 71.9655L174.727 70.9215L172.728 70.9905L172.764 72.0345L174.763 71.9655ZM173.146 70.1423C171.975 70.9789 170.667 71.396 169.191 71.396V73.396C171.076 73.396 172.792 72.8531 174.309 71.7697L173.146 70.1423ZM169.191 71.396C168.036 71.396 167.042 71.1251 166.181 70.6043L165.146 72.3157C166.349 73.0429 167.707 73.396 169.191 73.396V71.396ZM166.181 70.6043C165.313 70.0793 164.619 69.3409 164.098 68.3624L162.333 69.3016C163.012 70.5791 163.95 71.5927 165.146 72.3157L166.181 70.6043ZM164.102 68.3701C163.589 67.3846 163.315 66.2044 163.315 64.8H161.315C161.315 66.4676 161.642 67.9754 162.329 69.2939L164.102 68.3701ZM163.315 64.8C163.315 63.4157 163.579 62.2572 164.07 61.2948L162.289 60.3852C161.628 61.6788 161.315 63.1603 161.315 64.8H163.315ZM164.062 61.3096C164.584 60.3281 165.266 59.6055 166.103 59.1073L165.08 57.3887C163.901 58.0905 162.974 59.0959 162.297 60.3704L164.062 61.3096ZM166.109 59.1037C166.976 58.5794 167.947 58.312 169.047 58.312V56.312C167.603 56.312 166.271 56.6686 165.074 57.3923L166.109 59.1037ZM169.047 58.312C170.566 58.312 171.827 58.7491 172.883 59.6019L174.14 58.0461C172.7 56.8829 170.985 56.312 169.047 56.312V58.312ZM174.511 58.824V53.712H172.511V58.824H174.511ZM173.511 52.712H171.171V54.712H173.511V52.712ZM172.171 53.712V51.048H170.171V53.712H172.171ZM171.171 52.048H177.867V50.048H171.171V52.048ZM176.867 51.048V69.3H178.867V51.048H176.867ZM177.867 70.3H179.811V68.3H177.867V70.3ZM165.851 64.944C165.851 66.4052 166.256 67.6841 167.154 68.6755L168.636 67.3325C168.143 66.7879 167.851 66.0268 167.851 64.944H165.851ZM167.177 68.6994C168.103 69.6566 169.295 70.12 170.667 70.12V68.12C169.783 68.12 169.128 67.8394 168.614 67.3086L167.177 68.6994ZM170.667 70.12C171.879 70.12 173.014 69.7705 174.056 69.095L172.967 67.417C172.233 67.8935 171.472 68.12 170.667 68.12V70.12ZM174.511 68.256V61.632H172.511V68.256H174.511ZM174.118 60.837C173.043 60.0169 171.837 59.588 170.523 59.588V61.588C171.37 61.588 172.155 61.8551 172.905 62.427L174.118 60.837ZM170.523 59.588C169.158 59.588 167.986 60.0772 167.107 61.0815L168.612 62.3985C169.077 61.8668 169.681 61.588 170.523 61.588V59.588ZM167.117 61.0697C166.224 62.0583 165.851 63.4008 165.851 64.944H167.851C167.851 63.7032 168.15 62.9097 168.602 62.4103L167.117 61.0697ZM184.866 71.46L184.398 72.3434L184.405 72.3472L184.866 71.46ZM182.13 68.796L181.259 69.2863L181.259 69.2863L182.13 68.796ZM182.13 60.912L182.997 61.4101L183.002 61.4023L182.13 60.912ZM184.866 58.248L184.405 57.3608L184.398 57.3647L184.866 58.248ZM193.146 58.248L193.608 57.3608L193.608 57.3608L193.146 58.248ZM195.918 60.876L195.051 61.3741L195.055 61.381L195.059 61.3878L195.918 60.876ZM195.918 68.796L195.055 68.2921L195.051 68.2989L195.047 68.3057L195.918 68.796ZM193.146 71.46L192.685 70.5728L192.685 70.5728L193.146 71.46ZM189.006 69.084L189.027 68.0842L189.006 68.0838L188.985 68.0842L189.006 69.084ZM191.742 67.968L190.991 67.3079L190.99 67.3095L191.742 67.968ZM191.742 61.776L190.99 62.4345L191.001 62.447L191.012 62.4592L191.742 61.776ZM186.306 61.776L187.048 62.4463L187.054 62.4404L187.059 62.4345L186.306 61.776ZM186.306 67.968L185.544 68.615L185.549 68.6208L185.554 68.6265L186.306 67.968ZM189.006 71.396C187.582 71.396 186.365 71.1121 185.328 70.5728L184.405 72.3472C185.768 73.0559 187.31 73.396 189.006 73.396V71.396ZM185.335 70.5767C184.327 70.0417 183.555 69.2896 183.002 68.3057L181.259 69.2863C182.001 70.6064 183.054 71.6303 184.398 72.3433L185.335 70.5767ZM183.002 68.3057C182.448 67.3215 182.158 66.1743 182.158 64.836H180.158C180.158 66.4737 180.516 67.9665 181.259 69.2863L183.002 68.3057ZM182.158 64.836C182.158 63.4973 182.448 62.3659 182.997 61.4101L181.263 60.4139C180.516 61.7141 180.158 63.1987 180.158 64.836H182.158ZM183.002 61.4023C183.555 60.4184 184.327 59.6663 185.335 59.1313L184.398 57.3647C183.054 58.0777 182.001 59.1016 181.259 60.4217L183.002 61.4023ZM185.328 59.1352C186.365 58.5959 187.582 58.312 189.006 58.312V56.312C187.31 56.312 185.768 56.6521 184.405 57.3608L185.328 59.1352ZM189.006 58.312C190.43 58.312 191.648 58.5959 192.685 59.1352L193.608 57.3608C192.245 56.6521 190.702 56.312 189.006 56.312V58.312ZM192.685 59.1352C193.722 59.6747 194.502 60.4188 195.051 61.3741L196.785 60.3779C196.038 59.0772 194.97 58.0693 193.608 57.3608L192.685 59.1352ZM195.059 61.3878C195.627 62.3412 195.926 63.4677 195.926 64.8H197.926C197.926 63.1563 197.553 61.6668 196.777 60.3642L195.059 61.3878ZM195.926 64.8C195.926 66.1591 195.626 67.3126 195.055 68.2921L196.782 69.2999C197.555 67.9754 197.926 66.4649 197.926 64.8H195.926ZM195.047 68.3057C194.496 69.2842 193.717 70.0362 192.685 70.5728L193.608 72.3472C194.976 71.6358 196.044 70.6118 196.79 69.2863L195.047 68.3057ZM192.685 70.5728C191.648 71.1121 190.43 71.396 189.006 71.396V73.396C190.702 73.396 192.245 73.0559 193.608 72.3472L192.685 70.5728ZM188.986 70.0838C190.39 70.113 191.602 69.6473 192.495 68.6265L190.99 67.3095C190.539 67.8247 189.926 68.103 189.027 68.0842L188.986 70.0838ZM192.494 68.6281C193.387 67.611 193.786 66.2996 193.786 64.8H191.786C191.786 65.9404 191.489 66.741 190.991 67.3079L192.494 68.6281ZM193.786 64.8C193.786 63.3403 193.382 62.0652 192.473 61.0928L191.012 62.4592C191.494 62.9748 191.786 63.7157 191.786 64.8H193.786ZM192.495 61.1175C191.607 60.1031 190.405 59.624 189.006 59.624V61.624C189.911 61.624 190.533 61.9129 190.99 62.4345L192.495 61.1175ZM189.006 59.624C187.624 59.624 186.437 60.1081 185.554 61.1175L187.059 62.4345C187.52 61.9079 188.133 61.624 189.006 61.624V59.624ZM185.564 61.1057C184.682 62.0822 184.298 63.3669 184.298 64.836H186.298C186.298 63.7131 186.586 62.9578 187.048 62.4463L185.564 61.1057ZM184.298 64.836C184.298 66.3084 184.683 67.6009 185.544 68.615L187.069 67.321C186.585 66.7511 186.298 65.9556 186.298 64.836H184.298ZM185.554 68.6265C186.443 69.6424 187.639 70.1133 189.028 70.0838L188.985 68.0842C188.118 68.1027 187.514 67.8296 187.059 67.3095L185.554 68.6265ZM216.671 69.3H217.671V68.3H216.671V69.3ZM216.671 72V73H217.671V72H216.671ZM208.355 72H207.355V73H208.355V72ZM208.355 69.3V68.3H207.355V69.3H208.355ZM210.191 69.3V70.3H211.191V69.3H210.191ZM209.615 61.056L210.38 60.4119L210.38 60.4119L209.615 61.056ZM204.899 61.344L204.393 60.4816L203.899 60.7714V61.344H204.899ZM204.899 69.3H203.899V70.3H204.899V69.3ZM206.843 69.3H207.843V68.3H206.843V69.3ZM206.843 72V73H207.843V72H206.843ZM198.347 72H197.347V73H198.347V72ZM198.347 69.3V68.3H197.347V69.3H198.347ZM200.543 69.3V70.3H201.543V69.3H200.543ZM200.543 60.372H201.543V59.372H200.543V60.372ZM198.347 60.372H197.347V61.372H198.347V60.372ZM198.347 57.672V56.672H197.347V57.672H198.347ZM204.647 57.672L205.647 57.645L205.621 56.672H204.647V57.672ZM204.683 59.004L203.684 59.031L203.732 60.806L205.225 59.8448L204.683 59.004ZM213.215 58.68L212.489 59.3677L212.499 59.3776L212.508 59.3871L213.215 58.68ZM214.547 69.3H213.547V70.3H214.547V69.3ZM215.671 69.3V72H217.671V69.3H215.671ZM216.671 71H208.355V73H216.671V71ZM209.355 72V69.3H207.355V72H209.355ZM208.355 70.3H210.191V68.3H208.355V70.3ZM211.191 69.3V62.964H209.191V69.3H211.191ZM211.191 62.964C211.191 61.9991 210.964 61.105 210.38 60.4119L208.85 61.7001C209.035 61.919 209.191 62.2969 209.191 62.964H211.191ZM210.38 60.4119C209.773 59.6914 208.931 59.372 207.995 59.372V61.372C208.451 61.372 208.689 61.5086 208.85 61.7001L210.38 60.4119ZM207.995 59.372C206.807 59.372 205.601 59.7726 204.393 60.4816L205.405 62.2064C206.405 61.6194 207.263 61.372 207.995 61.372V59.372ZM203.899 61.344V69.3H205.899V61.344H203.899ZM204.899 70.3H206.843V68.3H204.899V70.3ZM205.843 69.3V72H207.843V69.3H205.843ZM206.843 71H198.347V73H206.843V71ZM199.347 72V69.3H197.347V72H199.347ZM198.347 70.3H200.543V68.3H198.347V70.3ZM201.543 69.3V60.372H199.543V69.3H201.543ZM200.543 59.372H198.347V61.372H200.543V59.372ZM199.347 60.372V57.672H197.347V60.372H199.347ZM198.347 58.672H204.647V56.672H198.347V58.672ZM203.648 57.699L203.684 59.031L205.683 58.977L205.647 57.645L203.648 57.699ZM205.225 59.8448C206.862 58.7904 208.356 58.312 209.723 58.312V56.312C207.874 56.312 206.008 56.9616 204.142 58.1632L205.225 59.8448ZM209.723 58.312C210.962 58.312 211.846 58.6884 212.489 59.3677L213.941 57.9923C212.857 56.8476 211.412 56.312 209.723 56.312V58.312ZM212.508 59.3871C213.174 60.0533 213.547 60.9685 213.547 62.244H215.547C215.547 60.5435 215.032 59.0827 213.922 57.9729L212.508 59.3871ZM213.547 62.244V69.3H215.547V62.244H213.547ZM214.547 70.3H216.671V68.3H214.547V70.3Z" fill="#2F2E41"/>
<defs>
<filter id="filter0_d" x="3.68262" y="49.0562" width="58.1134" height="33.3249" filterUnits="userSpaceOnUse" color-interpolation-filters="sRGB">
<feFlood flood-opacity="0" result="BackgroundImageFix"/>
<feColorMatrix in="SourceAlpha" type="matrix" values="0 0 0 0 0 0 0 0 0 0 0 0 0 0 0 0 0 0 127 0"/>
<feOffset dy="4"/>
<feGaussianBlur stdDeviation="2"/>
<feColorMatrix type="matrix" values="0 0 0 0 0 0 0 0 0 0 0 0 0 0 0 0 0 0 0.25 0"/>
<feBlend mode="normal" in2="BackgroundImageFix" result="effect1_dropShadow"/>
<feBlend mode="normal" in="SourceGraphic" in2="effect1_dropShadow" result="shape"/>
</filter>
<filter id="filter1_d" x="42.4189" y="46.3458" width="43.9003" height="39.8169" filterUnits="userSpaceOnUse" color-interpolation-filters="sRGB">
<feFlood flood-opacity="0" result="BackgroundImageFix"/>
<feColorMatrix in="SourceAlpha" type="matrix" values="0 0 0 0 0 0 0 0 0 0 0 0 0 0 0 0 0 0 127 0"/>
<feOffset dy="4"/>
<feGaussianBlur stdDeviation="2"/>
<feColorMatrix type="matrix" values="0 0 0 0 0 0 0 0 0 0 0 0 0 0 0 0 0 0 0.25 0"/>
<feBlend mode="normal" in2="BackgroundImageFix" result="effect1_dropShadow"/>
<feBlend mode="normal" in="SourceGraphic" in2="effect1_dropShadow" result="shape"/>
</filter>
<linearGradient id="paint0_linear" x1="41" y1="43" x2="40.5147" y2="95.2542" gradientUnits="userSpaceOnUse">
<stop stop-color="#343434"/>
<stop offset="1" stop-color="#343434" stop-opacity="0"/>
</linearGradient>
<linearGradient id="paint1_linear" x1="35.4872" y1="-1.58935" x2="33.5" y2="103.117" gradientUnits="userSpaceOnUse">
<stop offset="0.50439" stop-color="#641419"/>
<stop offset="0.880208" stop-color="#ECBC3D"/>
</linearGradient>
<linearGradient id="paint2_linear" x1="35.4872" y1="-1.58935" x2="33.5" y2="103.117" gradientUnits="userSpaceOnUse">
<stop offset="0.50439" stop-color="#3300C4"/>
<stop offset="0.791667" stop-color="#A5A5A5"/>
</linearGradient>
<linearGradient id="paint3_linear" x1="63.014" y1="2.13698" x2="63.014" y2="106.862" gradientUnits="userSpaceOnUse">
<stop offset="0.474647" stop-color="#641419"/>
<stop offset="1" stop-color="#ECBC3D"/>
</linearGradient>
<linearGradient id="paint4_linear" x1="63.014" y1="2.13698" x2="63.014" y2="106.862" gradientUnits="userSpaceOnUse">
<stop offset="0.474647" stop-color="#A5A5A5"/>
<stop offset="1" stop-color="#3300C4"/>
</linearGradient>
<linearGradient id="paint5_linear" x1="154" y1="43" x2="154" y2="84" gradientUnits="userSpaceOnUse">
<stop stop-color="#FFFFFE"/>
<stop offset="1" stop-color="#FFFFFE" stop-opacity="0"/>
</linearGradient>
</defs>
</svg>
