<svg width="84" height="63" viewBox="0 0 84 63" fill="none" xmlns="http://www.w3.org/2000/svg">
<path d="M37.5147 62.2542C54.6108 62.2542 68.4699 48.3553 68.4699 31.2101C68.4699 14.065 54.6108 0.166077 37.5147 0.166077C20.4187 0.166077 6.55957 14.065 6.55957 31.2101C6.55957 48.3553 20.4187 62.2542 37.5147 62.2542Z" fill="#C4C4C4"/>
<g filter="url(#filter0_d)">
<path d="M48.6777 22.4126C48.6386 24.4774 46.8215 27.8485 43.226 32.5258C41.0577 35.3319 39.9671 37.0699 39.9545 37.7396C39.9419 38.4093 40.2694 38.7505 40.9372 38.7631C41.6606 38.7769 42.6702 38.3773 43.9659 37.5645C47.1791 35.4481 50.4006 32.8852 53.6305 29.876C54.0842 29.4379 54.3923 29.3322 54.555 29.5585C54.7178 29.785 54.7981 29.954 54.796 30.0656C54.7939 30.1772 54.1696 30.8073 52.9233 31.9561C51.6768 33.1049 50.2903 34.3068 48.7635 35.5619C47.2924 36.818 45.4307 38.1227 43.1784 39.4756C40.9272 40.7728 39.0781 41.4077 37.6312 41.3802C34.6261 41.3232 33.1488 39.9552 33.1994 37.2764C33.2173 36.3277 33.4053 35.2146 33.7634 33.9374C34.528 31.7745 37.7517 27.6206 43.4346 21.4756C44.1727 20.708 44.546 20.1009 44.5545 19.6544C44.5629 19.2079 44.0106 18.9741 42.8977 18.953C41.7847 18.9319 40.0133 19.8753 37.5835 21.7832C36.736 22.437 35.6877 23.4221 34.438 24.7383C33.1896 25.9987 31.7032 28.0641 29.979 30.9345C28.3103 33.8059 27.0654 36.3504 26.2442 38.568C25.8913 39.5663 25.214 40.0559 24.2124 40.0368C23.9898 40.0326 23.712 39.9995 23.3792 39.9373C22.3271 39.6382 21.9193 39.1279 22.1555 38.4067C26.6426 30.7316 29.322 25.9253 30.1935 23.9878C31.0651 22.0503 31.5089 20.663 31.5247 19.8259C31.5405 18.9887 31.2145 18.5639 30.5467 18.5511C27.5972 18.4952 23.2767 23.2424 17.5852 32.7929C15.5229 35.8801 13.867 38.0818 12.6173 39.3981C11.3678 40.7143 10.2422 41.3628 9.24054 41.3438C9.12918 41.3417 9.01794 41.3395 8.90658 41.3375C7.45973 41.31 6.05173 40.6971 4.68262 39.4986C5.02599 39.0027 5.85344 37.9298 7.16498 36.2797C10.0684 32.8735 12.608 29.5719 14.7837 26.3751C12.3456 28.7294 10.279 30.5605 8.58432 31.8683C8.01942 32.3042 7.71277 32.3263 7.66449 31.9346C7.56056 31.5418 7.67818 31.2091 8.01736 30.9364C8.35761 30.6078 8.92354 30.1161 9.71527 29.4612C10.508 28.7504 11.0178 28.2856 11.2447 28.0666C11.5271 27.8486 12.008 27.439 12.6874 26.8378C13.4235 26.1818 13.9622 25.6616 14.3034 25.2774C15.8964 23.4652 17.0667 21.9242 17.8143 20.6544C18.1053 19.9898 18.2286 19.3501 18.1845 18.7352C18.1972 18.0655 18.066 17.6443 17.7908 17.4717C17.5725 17.2442 17.4937 16.9914 17.5546 16.7135C17.5631 16.267 17.7899 16.048 18.2351 16.0564C18.4577 16.0606 18.707 16.1212 18.9832 16.2381C20.6936 17.0521 21.5241 18.7707 21.4745 21.3938C21.4451 22.9564 21.1069 24.6528 20.4599 26.4828C21.6056 24.7738 22.8342 23.0944 24.1458 21.4444C26.4832 18.5299 28.7926 17.0942 31.0743 17.1375C32.6325 17.1671 33.3947 18.0748 33.361 19.8608C33.3294 21.535 32.1045 24.4986 29.6861 28.7516C32.0803 25.7822 33.9304 23.6121 35.2367 22.2411C38.2441 19.2276 41.1111 17.7467 43.838 17.7985C46.7317 17.8535 48.3496 19.1403 48.6918 21.6591C48.6865 21.9381 48.6818 22.1893 48.6777 22.4126Z" fill="url(#paint0_linear)"/>
</g>
<g filter="url(#filter1_d)">
<path d="M48.6777 22.4126C48.6386 24.4774 46.8215 27.8485 43.226 32.5258C41.0577 35.3319 39.9671 37.0699 39.9545 37.7396C39.9419 38.4093 40.2694 38.7505 40.9372 38.7631C41.6606 38.7769 42.6702 38.3773 43.9659 37.5645C47.1791 35.4481 50.4006 32.8852 53.6305 29.876C54.0842 29.4379 54.3923 29.3322 54.555 29.5585C54.7178 29.785 54.7981 29.954 54.796 30.0656C54.7939 30.1772 54.1696 30.8073 52.9233 31.9561C51.6768 33.1049 50.2903 34.3068 48.7635 35.5619C47.2924 36.818 45.4307 38.1227 43.1784 39.4756C40.9272 40.7728 39.0781 41.4077 37.6312 41.3802C34.6261 41.3232 33.1488 39.9552 33.1994 37.2764C33.2173 36.3277 33.4053 35.2146 33.7634 33.9374C34.528 31.7745 37.7517 27.6206 43.4346 21.4756C44.1727 20.708 44.546 20.1009 44.5545 19.6544C44.5629 19.2079 44.0106 18.9741 42.8977 18.953C41.7847 18.9319 40.0133 19.8753 37.5835 21.7832C36.736 22.437 35.6877 23.4221 34.438 24.7383C33.1896 25.9987 31.7032 28.0641 29.979 30.9345C28.3103 33.8059 27.0654 36.3504 26.2442 38.568C25.8913 39.5663 25.214 40.0559 24.2124 40.0368C23.9898 40.0326 23.712 39.9995 23.3792 39.9373C22.3271 39.6382 21.9193 39.1279 22.1555 38.4067C26.6426 30.7316 29.322 25.9253 30.1935 23.9878C31.0651 22.0503 31.5089 20.663 31.5247 19.8259C31.5405 18.9887 31.2145 18.5639 30.5467 18.5511C27.5972 18.4952 23.2767 23.2424 17.5852 32.7929C15.5229 35.8801 13.867 38.0818 12.6173 39.3981C11.3678 40.7143 10.2422 41.3628 9.24054 41.3438C9.12918 41.3417 9.01794 41.3395 8.90658 41.3375C7.45973 41.31 6.05173 40.6971 4.68262 39.4986C5.02599 39.0027 5.85344 37.9298 7.16498 36.2797C10.0684 32.8735 12.608 29.5719 14.7837 26.3751C12.3456 28.7294 10.279 30.5605 8.58432 31.8683C8.01942 32.3042 7.71277 32.3263 7.66449 31.9346C7.56056 31.5418 7.67818 31.2091 8.01736 30.9364C8.35761 30.6078 8.92354 30.1161 9.71527 29.4612C10.508 28.7504 11.0178 28.2856 11.2447 28.0666C11.5271 27.8486 12.008 27.439 12.6874 26.8378C13.4235 26.1818 13.9622 25.6616 14.3034 25.2774C15.8964 23.4652 17.0667 21.9242 17.8143 20.6544C18.1053 19.9898 18.2286 19.3501 18.1845 18.7352C18.1972 18.0655 18.066 17.6443 17.7908 17.4717C17.5725 17.2442 17.4937 16.9914 17.5546 16.7135C17.5631 16.267 17.7899 16.048 18.2351 16.0564C18.4577 16.0606 18.707 16.1212 18.9832 16.2381C20.6936 17.0521 21.5241 18.7707 21.4745 21.3938C21.4451 22.9564 21.1069 24.6528 20.4599 26.4828C21.6056 24.7738 22.8342 23.0944 24.1458 21.4444C26.4832 18.5299 28.7926 17.0942 31.0743 17.1375C32.6325 17.1671 33.3947 18.0748 33.361 19.8608C33.3294 21.535 32.1045 24.4986 29.6861 28.7516C32.0803 25.7822 33.9304 23.6121 35.2367 22.2411C38.2441 19.2276 41.1111 17.7467 43.838 17.7985C46.7317 17.8535 48.3496 19.1403 48.6918 21.6591C48.6865 21.9381 48.6818 22.1893 48.6777 22.4126Z" fill="url(#paint1_linear)"/>
</g>
<g filter="url(#filter2_d)">
<path d="M56.0752 28.103L68.5449 18.4559" stroke="#6244B8" stroke-linecap="round" stroke-linejoin="round"/>
</g>
<g filter="url(#filter3_d)">
<path d="M67.9647 27.7472C65.5157 30.594 63.5119 33.2174 61.9535 35.6177C60.4507 37.9621 59.6993 39.6367 59.6993 40.6414C59.6993 41.5902 60.2559 42.0648 61.3691 42.0648C62.5379 42.0648 64.8756 40.9204 68.3822 38.6319C71.9443 36.3433 75.2283 33.7756 78.2339 30.9289C78.5121 30.6497 78.7626 30.538 78.9853 30.594C79.2079 30.6497 79.3192 30.7892 79.3192 31.0126C79.3192 31.2358 79.2079 31.487 78.9853 31.7661C71.8052 38.3528 66.3227 42.4834 62.5379 44.158C60.8682 44.8278 59.6714 45.1628 58.9479 45.1628C56.2763 45.1628 54.4395 44.7162 53.4376 43.8231C52.4914 42.9299 52.0183 41.9531 52.0183 40.8926C52.0183 38.7714 52.4358 37.1526 53.2707 36.0363C55.9979 32.1848 58.1686 28.9194 59.7828 26.2401C60.2837 25.4585 60.1724 24.9282 59.4488 24.6492C58.7809 24.3143 57.9182 24.1468 56.8607 24.1468C55.8588 24.1468 55.33 24.1189 55.2744 24.0631C51.5451 29.0868 47.8439 33.0499 44.1703 35.9526C43.725 36.3433 43.4746 36.3433 43.4189 35.9526C43.4189 35.506 43.725 34.9757 44.3373 34.3617C48.2334 31.0126 51.4339 27.468 53.9386 23.7282C53.4376 23.3933 53.1872 22.9467 53.1872 22.3885C53.1872 21.7745 53.2149 21.0489 53.2707 20.2116C53.3819 19.3743 53.8272 18.2579 54.6065 16.8624C55.9423 14.518 57.3337 13.3458 58.7809 13.3458C60.0054 13.3458 60.6177 14.0157 60.6177 15.3553C60.6177 17.1973 59.7549 19.2068 58.0295 21.3838C57.1946 22.3885 56.4154 23.1141 55.6918 23.5607C57.7512 22.8909 60.7568 22.556 64.7087 22.556C66.6566 22.556 68.0482 23.2816 68.8831 24.7329C68.9943 24.9562 69.0501 25.2911 69.0501 25.7377C69.0501 26.1841 68.6883 26.854 67.9647 27.7472Z" fill="url(#paint2_linear)"/>
</g>
<g filter="url(#filter4_d)">
<path d="M67.9647 27.7472C65.5157 30.594 63.5119 33.2174 61.9535 35.6177C60.4507 37.9621 59.6993 39.6367 59.6993 40.6414C59.6993 41.5902 60.2559 42.0648 61.3691 42.0648C62.5379 42.0648 64.8756 40.9204 68.3822 38.6319C71.9443 36.3433 75.2283 33.7756 78.2339 30.9289C78.5121 30.6497 78.7626 30.538 78.9853 30.594C79.2079 30.6497 79.3192 30.7892 79.3192 31.0126C79.3192 31.2358 79.2079 31.487 78.9853 31.7661C71.8052 38.3528 66.3227 42.4834 62.5379 44.158C60.8682 44.8278 59.6714 45.1628 58.9479 45.1628C56.2763 45.1628 54.4395 44.7162 53.4376 43.8231C52.4914 42.9299 52.0183 41.9531 52.0183 40.8926C52.0183 38.7714 52.4358 37.1526 53.2707 36.0363C55.9979 32.1848 58.1686 28.9194 59.7828 26.2401C60.2837 25.4585 60.1724 24.9282 59.4488 24.6492C58.7809 24.3143 57.9182 24.1468 56.8607 24.1468C55.8588 24.1468 55.33 24.1189 55.2744 24.0631C51.5451 29.0868 47.8439 33.0499 44.1703 35.9526C43.725 36.3433 43.4746 36.3433 43.4189 35.9526C43.4189 35.506 43.725 34.9757 44.3373 34.3617C48.2334 31.0126 51.4339 27.468 53.9386 23.7282C53.4376 23.3933 53.1872 22.9467 53.1872 22.3885C53.1872 21.7745 53.2149 21.0489 53.2707 20.2116C53.3819 19.3743 53.8272 18.2579 54.6065 16.8624C55.9423 14.518 57.3337 13.3458 58.7809 13.3458C60.0054 13.3458 60.6177 14.0157 60.6177 15.3553C60.6177 17.1973 59.7549 19.2068 58.0295 21.3838C57.1946 22.3885 56.4154 23.1141 55.6918 23.5607C57.7512 22.8909 60.7568 22.556 64.7087 22.556C66.6566 22.556 68.0482 23.2816 68.8831 24.7329C68.9943 24.9562 69.0501 25.2911 69.0501 25.7377C69.0501 26.1841 68.6883 26.854 67.9647 27.7472Z" fill="url(#paint3_linear)"/>
</g>
<g filter="url(#filter5_d)">
<path d="M68.5869 35.5881L81.0566 25.941" stroke="#7965B2" stroke-linecap="round" stroke-linejoin="round"/>
</g>
<defs>
<filter id="filter0_d" x="0.682617" y="16.0562" width="58.1134" height="33.3249" filterUnits="userSpaceOnUse" color-interpolation-filters="sRGB">
<feFlood flood-opacity="0" result="BackgroundImageFix"/>
<feColorMatrix in="SourceAlpha" type="matrix" values="0 0 0 0 0 0 0 0 0 0 0 0 0 0 0 0 0 0 127 0"/>
<feOffset dy="4"/>
<feGaussianBlur stdDeviation="2"/>
<feColorMatrix type="matrix" values="0 0 0 0 0 0 0 0 0 0 0 0 0 0 0 0 0 0 0.25 0"/>
<feBlend mode="normal" in2="BackgroundImageFix" result="effect1_dropShadow"/>
<feBlend mode="normal" in="SourceGraphic" in2="effect1_dropShadow" result="shape"/>
</filter>
<filter id="filter1_d" x="1.68262" y="15.0562" width="54.1134" height="29.3249" filterUnits="userSpaceOnUse" color-interpolation-filters="sRGB">
<feFlood flood-opacity="0" result="BackgroundImageFix"/>
<feColorMatrix in="SourceAlpha" type="matrix" values="0 0 0 0 0 0 0 0 0 0 0 0 0 0 0 0 0 0 127 0"/>
<feOffset dx="-1" dy="1"/>
<feGaussianBlur stdDeviation="1"/>
<feColorMatrix type="matrix" values="0 0 0 0 0.980392 0 0 0 0 0.980392 0 0 0 0 0.980392 0 0 0 1 0"/>
<feBlend mode="normal" in2="BackgroundImageFix" result="effect1_dropShadow"/>
<feBlend mode="normal" in="SourceGraphic" in2="effect1_dropShadow" result="shape"/>
</filter>
<filter id="filter2_d" x="52.5752" y="16.9559" width="17.4697" height="14.6472" filterUnits="userSpaceOnUse" color-interpolation-filters="sRGB">
<feFlood flood-opacity="0" result="BackgroundImageFix"/>
<feColorMatrix in="SourceAlpha" type="matrix" values="0 0 0 0 0 0 0 0 0 0 0 0 0 0 0 0 0 0 127 0"/>
<feOffset dx="-1" dy="1"/>
<feGaussianBlur stdDeviation="1"/>
<feColorMatrix type="matrix" values="0 0 0 0 1 0 0 0 0 1 0 0 0 0 1 0 0 0 1 0"/>
<feBlend mode="normal" in2="BackgroundImageFix" result="effect1_dropShadow"/>
<feBlend mode="normal" in="SourceGraphic" in2="effect1_dropShadow" result="shape"/>
</filter>
<filter id="filter3_d" x="39.4189" y="13.3458" width="43.9003" height="39.8169" filterUnits="userSpaceOnUse" color-interpolation-filters="sRGB">
<feFlood flood-opacity="0" result="BackgroundImageFix"/>
<feColorMatrix in="SourceAlpha" type="matrix" values="0 0 0 0 0 0 0 0 0 0 0 0 0 0 0 0 0 0 127 0"/>
<feOffset dy="4"/>
<feGaussianBlur stdDeviation="2"/>
<feColorMatrix type="matrix" values="0 0 0 0 0 0 0 0 0 0 0 0 0 0 0 0 0 0 0.25 0"/>
<feBlend mode="normal" in2="BackgroundImageFix" result="effect1_dropShadow"/>
<feBlend mode="normal" in="SourceGraphic" in2="effect1_dropShadow" result="shape"/>
</filter>
<filter id="filter4_d" x="40.4189" y="12.3458" width="39.9003" height="35.8169" filterUnits="userSpaceOnUse" color-interpolation-filters="sRGB">
<feFlood flood-opacity="0" result="BackgroundImageFix"/>
<feColorMatrix in="SourceAlpha" type="matrix" values="0 0 0 0 0 0 0 0 0 0 0 0 0 0 0 0 0 0 127 0"/>
<feOffset dx="-1" dy="1"/>
<feGaussianBlur stdDeviation="1"/>
<feColorMatrix type="matrix" values="0 0 0 0 1 0 0 0 0 1 0 0 0 0 1 0 0 0 1 0"/>
<feBlend mode="normal" in2="BackgroundImageFix" result="effect1_dropShadow"/>
<feBlend mode="normal" in="SourceGraphic" in2="effect1_dropShadow" result="shape"/>
</filter>
<filter id="filter5_d" x="65.0869" y="24.441" width="17.4697" height="14.6471" filterUnits="userSpaceOnUse" color-interpolation-filters="sRGB">
<feFlood flood-opacity="0" result="BackgroundImageFix"/>
<feColorMatrix in="SourceAlpha" type="matrix" values="0 0 0 0 0 0 0 0 0 0 0 0 0 0 0 0 0 0 127 0"/>
<feOffset dx="-1" dy="1"/>
<feGaussianBlur stdDeviation="1"/>
<feColorMatrix type="matrix" values="0 0 0 0 1 0 0 0 0 1 0 0 0 0 1 0 0 0 1 0"/>
<feBlend mode="normal" in2="BackgroundImageFix" result="effect1_dropShadow"/>
<feBlend mode="normal" in="SourceGraphic" in2="effect1_dropShadow" result="shape"/>
</filter>
<linearGradient id="paint0_linear" x1="32.4872" y1="-34.5894" x2="30.5" y2="70.1172" gradientUnits="userSpaceOnUse">
<stop offset="0.50439" stop-color="#641419"/>
<stop offset="0.880208" stop-color="#ECBC3D"/>
</linearGradient>
<linearGradient id="paint1_linear" x1="32.4872" y1="-34.5894" x2="30.5" y2="70.1172" gradientUnits="userSpaceOnUse">
<stop offset="0.50439" stop-color="#3300C4"/>
<stop offset="0.791667" stop-color="#A5A5A5"/>
</linearGradient>
<linearGradient id="paint2_linear" x1="60.014" y1="-30.863" x2="60.014" y2="73.8624" gradientUnits="userSpaceOnUse">
<stop offset="0.474647" stop-color="#641419"/>
<stop offset="1" stop-color="#ECBC3D"/>
</linearGradient>
<linearGradient id="paint3_linear" x1="60.014" y1="-30.863" x2="60.014" y2="73.8624" gradientUnits="userSpaceOnUse">
<stop offset="0.474647" stop-color="#A5A5A5"/>
<stop offset="1" stop-color="#3300C4"/>
</linearGradient>
</defs>
</svg>
