<svg width="275" height="114" viewBox="0 0 275 114" fill="none" xmlns="http://www.w3.org/2000/svg">
<path d="M42.5147 97.2542C59.6108 97.2542 73.4699 83.3553 73.4699 66.2101C73.4699 49.065 59.6108 35.1661 42.5147 35.1661C25.4187 35.1661 11.5596 49.065 11.5596 66.2101C11.5596 83.3553 25.4187 97.2542 42.5147 97.2542Z" fill="#C4C4C4"/>
<g filter="url(#filter0_d)">
<path d="M53.6777 57.4126C53.6386 59.4774 51.8215 62.8485 48.226 67.5258C46.0577 70.3319 44.9671 72.0699 44.9545 72.7396C44.9419 73.4093 45.2694 73.7505 45.9372 73.7631C46.6606 73.7769 47.6702 73.3773 48.9659 72.5645C52.1791 70.4481 55.4006 67.8852 58.6305 64.876C59.0842 64.4379 59.3923 64.3322 59.555 64.5585C59.7178 64.785 59.7981 64.954 59.796 65.0656C59.7939 65.1772 59.1696 65.8073 57.9233 66.9561C56.6768 68.1049 55.2903 69.3068 53.7635 70.5619C52.2924 71.818 50.4307 73.1227 48.1784 74.4756C45.9272 75.7728 44.0781 76.4077 42.6312 76.3802C39.6261 76.3232 38.1488 74.9552 38.1994 72.2764C38.2173 71.3277 38.4053 70.2146 38.7634 68.9374C39.528 66.7745 42.7517 62.6206 48.4346 56.4756C49.1727 55.708 49.546 55.1009 49.5545 54.6544C49.5629 54.2079 49.0106 53.9741 47.8977 53.953C46.7847 53.9319 45.0133 54.8753 42.5835 56.7832C41.736 57.437 40.6877 58.4221 39.438 59.7383C38.1896 60.9987 36.7032 63.0641 34.979 65.9345C33.3103 68.8059 32.0654 71.3504 31.2442 73.568C30.8913 74.5663 30.214 75.0559 29.2124 75.0368C28.9898 75.0326 28.712 74.9995 28.3792 74.9373C27.3271 74.6382 26.9193 74.1279 27.1555 73.4067C31.6426 65.7316 34.322 60.9253 35.1935 58.9878C36.0651 57.0503 36.5089 55.663 36.5247 54.8259C36.5405 53.9887 36.2145 53.5639 35.5467 53.5511C32.5972 53.4952 28.2767 58.2424 22.5852 67.7929C20.5229 70.8801 18.867 73.0818 17.6173 74.3981C16.3678 75.7143 15.2422 76.3628 14.2405 76.3438C14.1292 76.3417 14.0179 76.3395 13.9066 76.3375C12.4597 76.31 11.0517 75.6971 9.68262 74.4986C10.026 74.0027 10.8534 72.9298 12.165 71.2797C15.0684 67.8735 17.608 64.5719 19.7837 61.3751C17.3456 63.7294 15.279 65.5605 13.5843 66.8683C13.0194 67.3042 12.7128 67.3263 12.6645 66.9346C12.5606 66.5418 12.6782 66.2091 13.0174 65.9364C13.3576 65.6078 13.9235 65.1161 14.7153 64.4612C15.508 63.7504 16.0178 63.2856 16.2447 63.0666C16.5271 62.8486 17.008 62.439 17.6874 61.8378C18.4235 61.1818 18.9622 60.6616 19.3034 60.2774C20.8964 58.4652 22.0667 56.9242 22.8143 55.6544C23.1053 54.9898 23.2286 54.3501 23.1845 53.7352C23.1972 53.0655 23.066 52.6443 22.7908 52.4717C22.5725 52.2442 22.4937 51.9914 22.5546 51.7135C22.5631 51.267 22.7899 51.048 23.2351 51.0564C23.4577 51.0606 23.707 51.1212 23.9832 51.2381C25.6936 52.0521 26.5241 53.7707 26.4745 56.3938C26.4451 57.9564 26.1069 59.6528 25.4599 61.4828C26.6056 59.7738 27.8342 58.0944 29.1458 56.4444C31.4832 53.5299 33.7926 52.0942 36.0743 52.1375C37.6325 52.1671 38.3947 53.0748 38.361 54.8608C38.3294 56.535 37.1045 59.4986 34.6861 63.7516C37.0803 60.7822 38.9304 58.6121 40.2367 57.2411C43.2441 54.2276 46.1111 52.7467 48.838 52.7985C51.7317 52.8535 53.3496 54.1403 53.6918 56.6591C53.6865 56.9381 53.6818 57.1893 53.6777 57.4126Z" fill="url(#paint0_linear)"/>
</g>
<g filter="url(#filter1_d)">
<path d="M53.6777 57.4126C53.6386 59.4774 51.8215 62.8485 48.226 67.5258C46.0577 70.3319 44.9671 72.0699 44.9545 72.7396C44.9419 73.4093 45.2694 73.7505 45.9372 73.7631C46.6606 73.7769 47.6702 73.3773 48.9659 72.5645C52.1791 70.4481 55.4006 67.8852 58.6305 64.876C59.0842 64.4379 59.3923 64.3322 59.555 64.5585C59.7178 64.785 59.7981 64.954 59.796 65.0656C59.7939 65.1772 59.1696 65.8073 57.9233 66.9561C56.6768 68.1049 55.2903 69.3068 53.7635 70.5619C52.2924 71.818 50.4307 73.1227 48.1784 74.4756C45.9272 75.7728 44.0781 76.4077 42.6312 76.3802C39.6261 76.3232 38.1488 74.9552 38.1994 72.2764C38.2173 71.3277 38.4053 70.2146 38.7634 68.9374C39.528 66.7745 42.7517 62.6206 48.4346 56.4756C49.1727 55.708 49.546 55.1009 49.5545 54.6544C49.5629 54.2079 49.0106 53.9741 47.8977 53.953C46.7847 53.9319 45.0133 54.8753 42.5835 56.7832C41.736 57.437 40.6877 58.4221 39.438 59.7383C38.1896 60.9987 36.7032 63.0641 34.979 65.9345C33.3103 68.8059 32.0654 71.3504 31.2442 73.568C30.8913 74.5663 30.214 75.0559 29.2124 75.0368C28.9898 75.0326 28.712 74.9995 28.3792 74.9373C27.3271 74.6382 26.9193 74.1279 27.1555 73.4067C31.6426 65.7316 34.322 60.9253 35.1935 58.9878C36.0651 57.0503 36.5089 55.663 36.5247 54.8259C36.5405 53.9887 36.2145 53.5639 35.5467 53.5511C32.5972 53.4952 28.2767 58.2424 22.5852 67.7929C20.5229 70.8801 18.867 73.0818 17.6173 74.3981C16.3678 75.7143 15.2422 76.3628 14.2405 76.3438C14.1292 76.3417 14.0179 76.3395 13.9066 76.3375C12.4597 76.31 11.0517 75.6971 9.68262 74.4986C10.026 74.0027 10.8534 72.9298 12.165 71.2797C15.0684 67.8735 17.608 64.5719 19.7837 61.3751C17.3456 63.7294 15.279 65.5605 13.5843 66.8683C13.0194 67.3042 12.7128 67.3263 12.6645 66.9346C12.5606 66.5418 12.6782 66.2091 13.0174 65.9364C13.3576 65.6078 13.9235 65.1161 14.7153 64.4612C15.508 63.7504 16.0178 63.2856 16.2447 63.0666C16.5271 62.8486 17.008 62.439 17.6874 61.8378C18.4235 61.1818 18.9622 60.6616 19.3034 60.2774C20.8964 58.4652 22.0667 56.9242 22.8143 55.6544C23.1053 54.9898 23.2286 54.3501 23.1845 53.7352C23.1972 53.0655 23.066 52.6443 22.7908 52.4717C22.5725 52.2442 22.4937 51.9914 22.5546 51.7135C22.5631 51.267 22.7899 51.048 23.2351 51.0564C23.4577 51.0606 23.707 51.1212 23.9832 51.2381C25.6936 52.0521 26.5241 53.7707 26.4745 56.3938C26.4451 57.9564 26.1069 59.6528 25.4599 61.4828C26.6056 59.7738 27.8342 58.0944 29.1458 56.4444C31.4832 53.5299 33.7926 52.0942 36.0743 52.1375C37.6325 52.1671 38.3947 53.0748 38.361 54.8608C38.3294 56.535 37.1045 59.4986 34.6861 63.7516C37.0803 60.7822 38.9304 58.6121 40.2367 57.2411C43.2441 54.2276 46.1111 52.7467 48.838 52.7985C51.7317 52.8535 53.3496 54.1403 53.6918 56.6591C53.6865 56.9381 53.6818 57.1893 53.6777 57.4126Z" fill="url(#paint1_linear)"/>
</g>
<g filter="url(#filter2_d)">
<path d="M61.0752 63.103L73.5449 53.4559" stroke="#6244B8" stroke-linecap="round" stroke-linejoin="round"/>
</g>
<g filter="url(#filter3_d)">
<path d="M72.9647 62.7472C70.5157 65.594 68.5119 68.2174 66.9535 70.6177C65.4507 72.9621 64.6993 74.6367 64.6993 75.6414C64.6993 76.5902 65.2559 77.0648 66.3691 77.0648C67.5379 77.0648 69.8756 75.9204 73.3822 73.6319C76.9443 71.3433 80.2283 68.7756 83.2339 65.9289C83.5121 65.6497 83.7626 65.538 83.9853 65.594C84.2079 65.6497 84.3192 65.7892 84.3192 66.0126C84.3192 66.2358 84.2079 66.487 83.9853 66.7661C76.8052 73.3528 71.3227 77.4834 67.5379 79.158C65.8682 79.8278 64.6714 80.1628 63.9479 80.1628C61.2763 80.1628 59.4395 79.7162 58.4376 78.8231C57.4914 77.9299 57.0183 76.9531 57.0183 75.8926C57.0183 73.7714 57.4358 72.1526 58.2707 71.0363C60.9979 67.1848 63.1686 63.9194 64.7828 61.2401C65.2837 60.4585 65.1724 59.9282 64.4488 59.6492C63.7809 59.3143 62.9182 59.1468 61.8607 59.1468C60.8588 59.1468 60.33 59.1189 60.2744 59.0631C56.5451 64.0868 52.8439 68.0499 49.1703 70.9526C48.725 71.3433 48.4746 71.3433 48.4189 70.9526C48.4189 70.506 48.725 69.9757 49.3373 69.3617C53.2334 66.0126 56.4339 62.468 58.9386 58.7282C58.4376 58.3933 58.1872 57.9467 58.1872 57.3885C58.1872 56.7745 58.2149 56.0489 58.2707 55.2116C58.3819 54.3743 58.8272 53.2579 59.6065 51.8624C60.9423 49.518 62.3337 48.3458 63.7809 48.3458C65.0054 48.3458 65.6177 49.0157 65.6177 50.3553C65.6177 52.1973 64.7549 54.2068 63.0295 56.3838C62.1946 57.3885 61.4154 58.1141 60.6918 58.5607C62.7512 57.8909 65.7568 57.556 69.7087 57.556C71.6566 57.556 73.0482 58.2816 73.8831 59.7329C73.9943 59.9562 74.0501 60.2911 74.0501 60.7377C74.0501 61.1841 73.6883 61.854 72.9647 62.7472Z" fill="url(#paint2_linear)"/>
</g>
<g filter="url(#filter4_d)">
<path d="M72.9647 62.7472C70.5157 65.594 68.5119 68.2174 66.9535 70.6177C65.4507 72.9621 64.6993 74.6367 64.6993 75.6414C64.6993 76.5902 65.2559 77.0648 66.3691 77.0648C67.5379 77.0648 69.8756 75.9204 73.3822 73.6319C76.9443 71.3433 80.2283 68.7756 83.2339 65.9289C83.5121 65.6497 83.7626 65.538 83.9853 65.594C84.2079 65.6497 84.3192 65.7892 84.3192 66.0126C84.3192 66.2358 84.2079 66.487 83.9853 66.7661C76.8052 73.3528 71.3227 77.4834 67.5379 79.158C65.8682 79.8278 64.6714 80.1628 63.9479 80.1628C61.2763 80.1628 59.4395 79.7162 58.4376 78.8231C57.4914 77.9299 57.0183 76.9531 57.0183 75.8926C57.0183 73.7714 57.4358 72.1526 58.2707 71.0363C60.9979 67.1848 63.1686 63.9194 64.7828 61.2401C65.2837 60.4585 65.1724 59.9282 64.4488 59.6492C63.7809 59.3143 62.9182 59.1468 61.8607 59.1468C60.8588 59.1468 60.33 59.1189 60.2744 59.0631C56.5451 64.0868 52.8439 68.0499 49.1703 70.9526C48.725 71.3433 48.4746 71.3433 48.4189 70.9526C48.4189 70.506 48.725 69.9757 49.3373 69.3617C53.2334 66.0126 56.4339 62.468 58.9386 58.7282C58.4376 58.3933 58.1872 57.9467 58.1872 57.3885C58.1872 56.7745 58.2149 56.0489 58.2707 55.2116C58.3819 54.3743 58.8272 53.2579 59.6065 51.8624C60.9423 49.518 62.3337 48.3458 63.7809 48.3458C65.0054 48.3458 65.6177 49.0157 65.6177 50.3553C65.6177 52.1973 64.7549 54.2068 63.0295 56.3838C62.1946 57.3885 61.4154 58.1141 60.6918 58.5607C62.7512 57.8909 65.7568 57.556 69.7087 57.556C71.6566 57.556 73.0482 58.2816 73.8831 59.7329C73.9943 59.9562 74.0501 60.2911 74.0501 60.7377C74.0501 61.1841 73.6883 61.854 72.9647 62.7472Z" fill="url(#paint3_linear)"/>
</g>
<g filter="url(#filter5_d)">
<path d="M73.5869 70.5881L86.0566 60.941" stroke="#7965B2" stroke-linecap="round" stroke-linejoin="round"/>
</g>
<g filter="url(#filter6_d)">
<path d="M91.2354 74.7119V51.66H101.003C103.46 51.66 105.242 51.8698 106.35 52.289C107.469 52.6979 108.362 53.4316 109.031 54.4905C109.7 55.5492 110.035 56.7599 110.035 58.1227C110.035 59.8525 109.528 61.2833 108.514 62.4155C107.5 63.5372 105.984 64.2447 103.967 64.5383C104.97 65.1253 105.796 65.77 106.444 66.4723C107.103 67.1747 107.986 68.4222 109.094 70.2147L111.901 74.7119H106.35L102.995 69.6959C101.803 67.9033 100.988 66.7763 100.549 66.315C100.11 65.8433 99.6446 65.5236 99.1533 65.3559C98.662 65.1777 97.8833 65.0886 96.8172 65.0886H95.8763V74.7119H91.2354ZM95.8763 61.4092H99.3102C101.537 61.4092 102.927 61.3147 103.481 61.126C104.035 60.9373 104.469 60.6125 104.782 60.1512C105.096 59.6899 105.253 59.1133 105.253 58.4215C105.253 57.6458 105.044 57.022 104.625 56.5503C104.218 56.068 103.638 55.764 102.885 55.6383C102.509 55.5859 101.38 55.5596 99.4983 55.5596H95.8763V61.4092ZM114.769 63.3275C114.769 60.9793 115.119 59.0085 115.819 57.4152C116.342 56.241 117.053 55.1875 117.952 54.2546C118.861 53.3216 119.854 52.6298 120.931 52.1789C122.363 51.5709 124.014 51.2669 125.885 51.2669C129.272 51.2669 131.979 52.3205 134.007 54.4275C136.046 56.5346 137.064 59.4645 137.064 63.2175C137.064 66.9389 136.056 69.853 134.038 71.9602C132.022 74.0567 129.324 75.105 125.948 75.105C122.53 75.105 119.812 74.0619 117.795 71.9759C115.777 69.8793 114.769 66.9965 114.769 63.3275ZM119.551 63.1702C119.551 65.7805 120.152 67.7617 121.354 69.114C122.556 70.4559 124.082 71.1267 125.932 71.1267C127.782 71.1267 129.299 70.461 130.479 69.1297C131.671 67.7879 132.267 65.7805 132.267 63.1073C132.267 60.4656 131.686 58.4949 130.526 57.195C129.377 55.8952 127.845 55.2452 125.932 55.2452C124.019 55.2452 122.478 55.9056 121.307 57.2265C120.136 58.5368 119.551 60.518 119.551 63.1702ZM141.923 74.7119V51.66H148.87L153.04 67.3843L157.165 51.66H164.126V74.7119H159.814V56.566L155.251 74.7119H150.782L146.235 56.566V74.7119H141.923ZM170.004 51.66H178.486C180.4 51.66 181.858 51.8068 182.861 52.1003C184.21 52.4986 185.365 53.2063 186.327 54.223C187.287 55.2399 188.02 56.4875 188.522 57.9655C189.023 59.433 189.274 61.2466 189.274 63.406C189.274 65.3035 189.039 66.9389 188.568 68.312C187.994 69.9893 187.173 71.3469 186.107 72.3847C185.302 73.1709 184.215 73.7842 182.846 74.2244C181.821 74.5494 180.452 74.7119 178.738 74.7119H170.004V51.66ZM174.646 55.5596V70.828H178.11C179.406 70.828 180.342 70.7546 180.917 70.6079C181.669 70.4192 182.291 70.0994 182.783 69.6486C183.285 69.1979 183.692 68.4589 184.006 67.4315C184.319 66.3937 184.476 64.9837 184.476 63.2017C184.476 61.4196 184.319 60.0516 184.006 59.0976C183.692 58.1437 183.253 57.3995 182.689 56.8648C182.124 56.3302 181.408 55.9685 180.54 55.7798C179.893 55.633 178.623 55.5596 176.731 55.5596H174.646ZM193.568 63.3275C193.568 60.9793 193.919 59.0085 194.619 57.4152C195.142 56.241 195.853 55.1875 196.751 54.2546C197.661 53.3216 198.655 52.6298 199.731 52.1789C201.163 51.5709 202.815 51.2669 204.685 51.2669C208.072 51.2669 210.78 52.3205 212.807 54.4275C214.845 56.5346 215.865 59.4645 215.865 63.2175C215.865 66.9389 214.857 69.853 212.839 71.9602C210.821 74.0567 208.125 75.105 204.748 75.105C201.33 75.105 198.612 74.0619 196.594 71.9759C194.578 69.8793 193.568 66.9965 193.568 63.3275ZM198.352 63.1702C198.352 65.7805 198.953 67.7617 200.154 69.114C201.356 70.4559 202.882 71.1267 204.733 71.1267C206.582 71.1267 208.098 70.461 209.28 69.1297C210.472 67.7879 211.066 65.7805 211.066 63.1073C211.066 60.4656 210.487 58.4949 209.327 57.195C208.176 55.8952 206.645 55.2452 204.733 55.2452C202.82 55.2452 201.278 55.9056 200.107 57.2265C198.936 58.5368 198.352 60.518 198.352 63.1702ZM220.833 74.7119V51.66H225.349L234.757 67.0542V51.66H239.069V74.7119H234.412L225.145 59.6795V74.7119H220.833Z" fill="url(#paint4_linear)"/>
</g>
<defs>
<filter id="filter0_d" x="5.68262" y="51.0562" width="58.1134" height="33.3249" filterUnits="userSpaceOnUse" color-interpolation-filters="sRGB">
<feFlood flood-opacity="0" result="BackgroundImageFix"/>
<feColorMatrix in="SourceAlpha" type="matrix" values="0 0 0 0 0 0 0 0 0 0 0 0 0 0 0 0 0 0 127 0"/>
<feOffset dy="4"/>
<feGaussianBlur stdDeviation="2"/>
<feColorMatrix type="matrix" values="0 0 0 0 0 0 0 0 0 0 0 0 0 0 0 0 0 0 0.25 0"/>
<feBlend mode="normal" in2="BackgroundImageFix" result="effect1_dropShadow"/>
<feBlend mode="normal" in="SourceGraphic" in2="effect1_dropShadow" result="shape"/>
</filter>
<filter id="filter1_d" x="6.68262" y="50.0562" width="54.1134" height="29.3249" filterUnits="userSpaceOnUse" color-interpolation-filters="sRGB">
<feFlood flood-opacity="0" result="BackgroundImageFix"/>
<feColorMatrix in="SourceAlpha" type="matrix" values="0 0 0 0 0 0 0 0 0 0 0 0 0 0 0 0 0 0 127 0"/>
<feOffset dx="-1" dy="1"/>
<feGaussianBlur stdDeviation="1"/>
<feColorMatrix type="matrix" values="0 0 0 0 0.980392 0 0 0 0 0.980392 0 0 0 0 0.980392 0 0 0 1 0"/>
<feBlend mode="normal" in2="BackgroundImageFix" result="effect1_dropShadow"/>
<feBlend mode="normal" in="SourceGraphic" in2="effect1_dropShadow" result="shape"/>
</filter>
<filter id="filter2_d" x="57.5752" y="51.9559" width="17.4697" height="14.6472" filterUnits="userSpaceOnUse" color-interpolation-filters="sRGB">
<feFlood flood-opacity="0" result="BackgroundImageFix"/>
<feColorMatrix in="SourceAlpha" type="matrix" values="0 0 0 0 0 0 0 0 0 0 0 0 0 0 0 0 0 0 127 0"/>
<feOffset dx="-1" dy="1"/>
<feGaussianBlur stdDeviation="1"/>
<feColorMatrix type="matrix" values="0 0 0 0 1 0 0 0 0 1 0 0 0 0 1 0 0 0 1 0"/>
<feBlend mode="normal" in2="BackgroundImageFix" result="effect1_dropShadow"/>
<feBlend mode="normal" in="SourceGraphic" in2="effect1_dropShadow" result="shape"/>
</filter>
<filter id="filter3_d" x="44.4189" y="48.3458" width="43.9003" height="39.8169" filterUnits="userSpaceOnUse" color-interpolation-filters="sRGB">
<feFlood flood-opacity="0" result="BackgroundImageFix"/>
<feColorMatrix in="SourceAlpha" type="matrix" values="0 0 0 0 0 0 0 0 0 0 0 0 0 0 0 0 0 0 127 0"/>
<feOffset dy="4"/>
<feGaussianBlur stdDeviation="2"/>
<feColorMatrix type="matrix" values="0 0 0 0 0 0 0 0 0 0 0 0 0 0 0 0 0 0 0.25 0"/>
<feBlend mode="normal" in2="BackgroundImageFix" result="effect1_dropShadow"/>
<feBlend mode="normal" in="SourceGraphic" in2="effect1_dropShadow" result="shape"/>
</filter>
<filter id="filter4_d" x="45.4189" y="47.3458" width="39.9003" height="35.8169" filterUnits="userSpaceOnUse" color-interpolation-filters="sRGB">
<feFlood flood-opacity="0" result="BackgroundImageFix"/>
<feColorMatrix in="SourceAlpha" type="matrix" values="0 0 0 0 0 0 0 0 0 0 0 0 0 0 0 0 0 0 127 0"/>
<feOffset dx="-1" dy="1"/>
<feGaussianBlur stdDeviation="1"/>
<feColorMatrix type="matrix" values="0 0 0 0 1 0 0 0 0 1 0 0 0 0 1 0 0 0 1 0"/>
<feBlend mode="normal" in2="BackgroundImageFix" result="effect1_dropShadow"/>
<feBlend mode="normal" in="SourceGraphic" in2="effect1_dropShadow" result="shape"/>
</filter>
<filter id="filter5_d" x="70.0869" y="59.441" width="17.4697" height="14.6471" filterUnits="userSpaceOnUse" color-interpolation-filters="sRGB">
<feFlood flood-opacity="0" result="BackgroundImageFix"/>
<feColorMatrix in="SourceAlpha" type="matrix" values="0 0 0 0 0 0 0 0 0 0 0 0 0 0 0 0 0 0 127 0"/>
<feOffset dx="-1" dy="1"/>
<feGaussianBlur stdDeviation="1"/>
<feColorMatrix type="matrix" values="0 0 0 0 1 0 0 0 0 1 0 0 0 0 1 0 0 0 1 0"/>
<feBlend mode="normal" in2="BackgroundImageFix" result="effect1_dropShadow"/>
<feBlend mode="normal" in="SourceGraphic" in2="effect1_dropShadow" result="shape"/>
</filter>
<filter id="filter6_d" x="91.2354" y="51.2669" width="167.833" height="43.8381" filterUnits="userSpaceOnUse" color-interpolation-filters="sRGB">
<feFlood flood-opacity="0" result="BackgroundImageFix"/>
<feColorMatrix in="SourceAlpha" type="matrix" values="0 0 0 0 0 0 0 0 0 0 0 0 0 0 0 0 0 0 127 0"/>
<feOffset dx="10" dy="10"/>
<feGaussianBlur stdDeviation="5"/>
<feColorMatrix type="matrix" values="0 0 0 0 0 0 0 0 0 0 0 0 0 0 0 0 0 0 0.4 0"/>
<feBlend mode="normal" in2="BackgroundImageFix" result="effect1_dropShadow"/>
<feBlend mode="normal" in="SourceGraphic" in2="effect1_dropShadow" result="shape"/>
</filter>
<linearGradient id="paint0_linear" x1="37.4872" y1="0.410648" x2="35.5" y2="105.117" gradientUnits="userSpaceOnUse">
<stop offset="0.50439" stop-color="#641419"/>
<stop offset="0.880208" stop-color="#ECBC3D"/>
</linearGradient>
<linearGradient id="paint1_linear" x1="37.4872" y1="0.410648" x2="35.5" y2="105.117" gradientUnits="userSpaceOnUse">
<stop offset="0.50439" stop-color="#3300C4"/>
<stop offset="0.791667" stop-color="#A5A5A5"/>
</linearGradient>
<linearGradient id="paint2_linear" x1="65.014" y1="4.13698" x2="65.014" y2="108.862" gradientUnits="userSpaceOnUse">
<stop offset="0.474647" stop-color="#641419"/>
<stop offset="1" stop-color="#ECBC3D"/>
</linearGradient>
<linearGradient id="paint3_linear" x1="65.014" y1="4.13698" x2="65.014" y2="108.862" gradientUnits="userSpaceOnUse">
<stop offset="0.474647" stop-color="#A5A5A5"/>
<stop offset="1" stop-color="#3300C4"/>
</linearGradient>
<linearGradient id="paint4_linear" x1="180.721" y1="45.0848" x2="180.721" y2="87.4644" gradientUnits="userSpaceOnUse">
<stop offset="0.33033" stop-color="#E1E1E1"/>
<stop offset="1" stop-color="#A5A5A5" stop-opacity="0"/>
</linearGradient>
</defs>
</svg>
