<svg width="275" height="114" viewBox="0 0 275 114" fill="none" xmlns="http://www.w3.org/2000/svg">
<path d="M42.5147 97.2542C59.6108 97.2542 73.4699 83.3553 73.4699 66.2101C73.4699 49.065 59.6108 35.1661 42.5147 35.1661C25.4187 35.1661 11.5596 49.065 11.5596 66.2101C11.5596 83.3553 25.4187 97.2542 42.5147 97.2542Z" fill="url(#paint0_linear)"/>
<g filter="url(#filter0_d)">
<path d="M53.6777 57.4126C53.6386 59.4774 51.8215 62.8485 48.226 67.5258C46.0577 70.3319 44.9671 72.0699 44.9545 72.7396C44.9419 73.4093 45.2694 73.7505 45.9372 73.7631C46.6606 73.7769 47.6702 73.3773 48.9659 72.5645C52.1791 70.4481 55.4006 67.8852 58.6305 64.876C59.0842 64.4379 59.3923 64.3322 59.555 64.5585C59.7178 64.785 59.7981 64.954 59.796 65.0656C59.7939 65.1772 59.1696 65.8073 57.9233 66.9561C56.6768 68.1049 55.2903 69.3068 53.7635 70.5619C52.2924 71.818 50.4307 73.1227 48.1784 74.4756C45.9272 75.7728 44.0781 76.4077 42.6312 76.3802C39.6261 76.3232 38.1488 74.9552 38.1994 72.2764C38.2173 71.3277 38.4053 70.2146 38.7634 68.9374C39.528 66.7745 42.7517 62.6206 48.4346 56.4756C49.1727 55.708 49.546 55.1009 49.5545 54.6544C49.5629 54.2079 49.0106 53.9741 47.8977 53.953C46.7847 53.9319 45.0133 54.8753 42.5835 56.7832C41.736 57.437 40.6877 58.4221 39.438 59.7383C38.1896 60.9987 36.7032 63.0641 34.979 65.9345C33.3103 68.8059 32.0654 71.3504 31.2442 73.568C30.8913 74.5663 30.214 75.0559 29.2124 75.0368C28.9898 75.0326 28.712 74.9995 28.3792 74.9373C27.3271 74.6382 26.9193 74.1279 27.1555 73.4067C31.6426 65.7316 34.322 60.9253 35.1935 58.9878C36.0651 57.0503 36.5089 55.663 36.5247 54.8259C36.5405 53.9887 36.2145 53.5639 35.5467 53.5511C32.5972 53.4952 28.2767 58.2424 22.5852 67.7929C20.5229 70.8801 18.867 73.0818 17.6173 74.3981C16.3678 75.7143 15.2422 76.3628 14.2405 76.3438C14.1292 76.3417 14.0179 76.3395 13.9066 76.3375C12.4597 76.31 11.0517 75.6971 9.68262 74.4986C10.026 74.0027 10.8534 72.9298 12.165 71.2797C15.0684 67.8735 17.608 64.5719 19.7837 61.3751C17.3456 63.7294 15.279 65.5605 13.5843 66.8683C13.0194 67.3042 12.7128 67.3263 12.6645 66.9346C12.5606 66.5418 12.6782 66.2091 13.0174 65.9364C13.3576 65.6078 13.9235 65.1161 14.7153 64.4612C15.508 63.7504 16.0178 63.2856 16.2447 63.0666C16.5271 62.8486 17.008 62.439 17.6874 61.8378C18.4235 61.1818 18.9622 60.6616 19.3034 60.2774C20.8964 58.4652 22.0667 56.9242 22.8143 55.6544C23.1053 54.9898 23.2286 54.3501 23.1845 53.7352C23.1972 53.0655 23.066 52.6443 22.7908 52.4717C22.5725 52.2442 22.4937 51.9914 22.5546 51.7135C22.5631 51.267 22.7899 51.048 23.2351 51.0564C23.4577 51.0606 23.707 51.1212 23.9832 51.2381C25.6936 52.0521 26.5241 53.7707 26.4745 56.3938C26.4451 57.9564 26.1069 59.6528 25.4599 61.4828C26.6056 59.7738 27.8342 58.0944 29.1458 56.4444C31.4832 53.5299 33.7926 52.0942 36.0743 52.1375C37.6325 52.1671 38.3947 53.0748 38.361 54.8608C38.3294 56.535 37.1045 59.4986 34.6861 63.7516C37.0803 60.7822 38.9304 58.6121 40.2367 57.2411C43.2441 54.2276 46.1111 52.7467 48.838 52.7985C51.7317 52.8535 53.3496 54.1403 53.6918 56.6591C53.6865 56.9381 53.6818 57.1893 53.6777 57.4126Z" fill="url(#paint1_linear)"/>
</g>
<g filter="url(#filter1_d)">
<path d="M53.6777 57.4126C53.6386 59.4774 51.8215 62.8485 48.226 67.5258C46.0577 70.3319 44.9671 72.0699 44.9545 72.7396C44.9419 73.4093 45.2694 73.7505 45.9372 73.7631C46.6606 73.7769 47.6702 73.3773 48.9659 72.5645C52.1791 70.4481 55.4006 67.8852 58.6305 64.876C59.0842 64.4379 59.3923 64.3322 59.555 64.5585C59.7178 64.785 59.7981 64.954 59.796 65.0656C59.7939 65.1772 59.1696 65.8073 57.9233 66.9561C56.6768 68.1049 55.2903 69.3068 53.7635 70.5619C52.2924 71.818 50.4307 73.1227 48.1784 74.4756C45.9272 75.7728 44.0781 76.4077 42.6312 76.3802C39.6261 76.3232 38.1488 74.9552 38.1994 72.2764C38.2173 71.3277 38.4053 70.2146 38.7634 68.9374C39.528 66.7745 42.7517 62.6206 48.4346 56.4756C49.1727 55.708 49.546 55.1009 49.5545 54.6544C49.5629 54.2079 49.0106 53.9741 47.8977 53.953C46.7847 53.9319 45.0133 54.8753 42.5835 56.7832C41.736 57.437 40.6877 58.4221 39.438 59.7383C38.1896 60.9987 36.7032 63.0641 34.979 65.9345C33.3103 68.8059 32.0654 71.3504 31.2442 73.568C30.8913 74.5663 30.214 75.0559 29.2124 75.0368C28.9898 75.0326 28.712 74.9995 28.3792 74.9373C27.3271 74.6382 26.9193 74.1279 27.1555 73.4067C31.6426 65.7316 34.322 60.9253 35.1935 58.9878C36.0651 57.0503 36.5089 55.663 36.5247 54.8259C36.5405 53.9887 36.2145 53.5639 35.5467 53.5511C32.5972 53.4952 28.2767 58.2424 22.5852 67.7929C20.5229 70.8801 18.867 73.0818 17.6173 74.3981C16.3678 75.7143 15.2422 76.3628 14.2405 76.3438C14.1292 76.3417 14.0179 76.3395 13.9066 76.3375C12.4597 76.31 11.0517 75.6971 9.68262 74.4986C10.026 74.0027 10.8534 72.9298 12.165 71.2797C15.0684 67.8735 17.608 64.5719 19.7837 61.3751C17.3456 63.7294 15.279 65.5605 13.5843 66.8683C13.0194 67.3042 12.7128 67.3263 12.6645 66.9346C12.5606 66.5418 12.6782 66.2091 13.0174 65.9364C13.3576 65.6078 13.9235 65.1161 14.7153 64.4612C15.508 63.7504 16.0178 63.2856 16.2447 63.0666C16.5271 62.8486 17.008 62.439 17.6874 61.8378C18.4235 61.1818 18.9622 60.6616 19.3034 60.2774C20.8964 58.4652 22.0667 56.9242 22.8143 55.6544C23.1053 54.9898 23.2286 54.3501 23.1845 53.7352C23.1972 53.0655 23.066 52.6443 22.7908 52.4717C22.5725 52.2442 22.4937 51.9914 22.5546 51.7135C22.5631 51.267 22.7899 51.048 23.2351 51.0564C23.4577 51.0606 23.707 51.1212 23.9832 51.2381C25.6936 52.0521 26.5241 53.7707 26.4745 56.3938C26.4451 57.9564 26.1069 59.6528 25.4599 61.4828C26.6056 59.7738 27.8342 58.0944 29.1458 56.4444C31.4832 53.5299 33.7926 52.0942 36.0743 52.1375C37.6325 52.1671 38.3947 53.0748 38.361 54.8608C38.3294 56.535 37.1045 59.4986 34.6861 63.7516C37.0803 60.7822 38.9304 58.6121 40.2367 57.2411C43.2441 54.2276 46.1111 52.7467 48.838 52.7985C51.7317 52.8535 53.3496 54.1403 53.6918 56.6591C53.6865 56.9381 53.6818 57.1893 53.6777 57.4126Z" fill="url(#paint2_linear)"/>
</g>
<g filter="url(#filter2_d)">
<path d="M61.0752 63.103L73.5449 53.4559" stroke="#6244B8" stroke-linecap="round" stroke-linejoin="round"/>
</g>
<g filter="url(#filter3_d)">
<path d="M72.9647 62.7472C70.5157 65.594 68.5119 68.2174 66.9535 70.6177C65.4507 72.9621 64.6993 74.6367 64.6993 75.6414C64.6993 76.5902 65.2559 77.0648 66.3691 77.0648C67.5379 77.0648 69.8756 75.9204 73.3822 73.6319C76.9443 71.3433 80.2283 68.7756 83.2339 65.9289C83.5121 65.6497 83.7626 65.538 83.9853 65.594C84.2079 65.6497 84.3192 65.7892 84.3192 66.0126C84.3192 66.2358 84.2079 66.487 83.9853 66.7661C76.8052 73.3528 71.3227 77.4834 67.5379 79.158C65.8682 79.8278 64.6714 80.1628 63.9479 80.1628C61.2763 80.1628 59.4395 79.7162 58.4376 78.8231C57.4914 77.9299 57.0183 76.9531 57.0183 75.8926C57.0183 73.7714 57.4358 72.1526 58.2707 71.0363C60.9979 67.1848 63.1686 63.9194 64.7828 61.2401C65.2837 60.4585 65.1724 59.9282 64.4488 59.6492C63.7809 59.3143 62.9182 59.1468 61.8607 59.1468C60.8588 59.1468 60.33 59.1189 60.2744 59.0631C56.5451 64.0868 52.8439 68.0499 49.1703 70.9526C48.725 71.3433 48.4746 71.3433 48.4189 70.9526C48.4189 70.506 48.725 69.9757 49.3373 69.3617C53.2334 66.0126 56.4339 62.468 58.9386 58.7282C58.4376 58.3933 58.1872 57.9467 58.1872 57.3885C58.1872 56.7745 58.2149 56.0489 58.2707 55.2116C58.3819 54.3743 58.8272 53.2579 59.6065 51.8624C60.9423 49.518 62.3337 48.3458 63.7809 48.3458C65.0054 48.3458 65.6177 49.0157 65.6177 50.3553C65.6177 52.1973 64.7549 54.2068 63.0295 56.3838C62.1946 57.3885 61.4154 58.1141 60.6918 58.5607C62.7512 57.8909 65.7568 57.556 69.7087 57.556C71.6566 57.556 73.0482 58.2816 73.8831 59.7329C73.9943 59.9562 74.0501 60.2911 74.0501 60.7377C74.0501 61.1841 73.6883 61.854 72.9647 62.7472Z" fill="url(#paint3_linear)"/>
</g>
<g filter="url(#filter4_d)">
<path d="M72.9647 62.7472C70.5157 65.594 68.5119 68.2174 66.9535 70.6177C65.4507 72.9621 64.6993 74.6367 64.6993 75.6414C64.6993 76.5902 65.2559 77.0648 66.3691 77.0648C67.5379 77.0648 69.8756 75.9204 73.3822 73.6319C76.9443 71.3433 80.2283 68.7756 83.2339 65.9289C83.5121 65.6497 83.7626 65.538 83.9853 65.594C84.2079 65.6497 84.3192 65.7892 84.3192 66.0126C84.3192 66.2358 84.2079 66.487 83.9853 66.7661C76.8052 73.3528 71.3227 77.4834 67.5379 79.158C65.8682 79.8278 64.6714 80.1628 63.9479 80.1628C61.2763 80.1628 59.4395 79.7162 58.4376 78.8231C57.4914 77.9299 57.0183 76.9531 57.0183 75.8926C57.0183 73.7714 57.4358 72.1526 58.2707 71.0363C60.9979 67.1848 63.1686 63.9194 64.7828 61.2401C65.2837 60.4585 65.1724 59.9282 64.4488 59.6492C63.7809 59.3143 62.9182 59.1468 61.8607 59.1468C60.8588 59.1468 60.33 59.1189 60.2744 59.0631C56.5451 64.0868 52.8439 68.0499 49.1703 70.9526C48.725 71.3433 48.4746 71.3433 48.4189 70.9526C48.4189 70.506 48.725 69.9757 49.3373 69.3617C53.2334 66.0126 56.4339 62.468 58.9386 58.7282C58.4376 58.3933 58.1872 57.9467 58.1872 57.3885C58.1872 56.7745 58.2149 56.0489 58.2707 55.2116C58.3819 54.3743 58.8272 53.2579 59.6065 51.8624C60.9423 49.518 62.3337 48.3458 63.7809 48.3458C65.0054 48.3458 65.6177 49.0157 65.6177 50.3553C65.6177 52.1973 64.7549 54.2068 63.0295 56.3838C62.1946 57.3885 61.4154 58.1141 60.6918 58.5607C62.7512 57.8909 65.7568 57.556 69.7087 57.556C71.6566 57.556 73.0482 58.2816 73.8831 59.7329C73.9943 59.9562 74.0501 60.2911 74.0501 60.7377C74.0501 61.1841 73.6883 61.854 72.9647 62.7472Z" fill="url(#paint4_linear)"/>
</g>
<g filter="url(#filter5_d)">
<path d="M73.5869 70.5881L86.0566 60.941" stroke="#7965B2" stroke-linecap="round" stroke-linejoin="round"/>
</g>
<path d="M92.584 68.976H94.924V54.432H92.584V51.408H104.464C106.936 51.408 108.88 51.888 110.296 52.848C111.736 53.808 112.456 55.272 112.456 57.24C112.456 60.168 110.92 61.98 107.848 62.676L111.7 68.94H114.148V72H108.136L103.096 63.252H101.224V60.156H103.996C105.196 60.156 106.06 59.892 106.588 59.364C107.14 58.812 107.416 58.08 107.416 57.168C107.416 56.352 107.152 55.692 106.624 55.188C106.096 54.684 105.316 54.432 104.284 54.432H99.856V68.976H102.124V72H92.584V68.976ZM123.862 72.396C122.302 72.396 120.922 72.084 119.722 71.46C118.546 70.836 117.634 69.948 116.986 68.796C116.338 67.644 116.014 66.324 116.014 64.836C116.014 63.348 116.338 62.04 116.986 60.912C117.634 59.76 118.546 58.872 119.722 58.248C120.922 57.624 122.302 57.312 123.862 57.312C125.422 57.312 126.802 57.624 128.002 58.248C129.202 58.872 130.126 59.748 130.774 60.876C131.446 62.004 131.782 63.312 131.782 64.8C131.782 66.312 131.446 67.644 130.774 68.796C130.126 69.948 129.202 70.836 128.002 71.46C126.802 72.084 125.422 72.396 123.862 72.396ZM123.862 69.084C125.014 69.108 125.926 68.736 126.598 67.968C127.294 67.176 127.642 66.12 127.642 64.8C127.642 63.528 127.294 62.52 126.598 61.776C125.926 61.008 125.014 60.624 123.862 60.624C122.734 60.624 121.834 61.008 121.162 61.776C120.49 62.52 120.154 63.54 120.154 64.836C120.154 66.132 120.49 67.176 121.162 67.968C121.834 68.736 122.734 69.108 123.862 69.084ZM161.319 69.3V72H153.003V69.3H154.839V62.964C154.839 62.148 154.647 61.512 154.263 61.056C153.879 60.6 153.339 60.372 152.643 60.372C151.539 60.372 150.435 60.756 149.331 61.524C149.355 61.692 149.367 61.944 149.367 62.28V69.3H151.491V72H143.175V69.3H145.011V62.964C145.011 62.148 144.807 61.512 144.399 61.056C144.015 60.6 143.475 60.372 142.779 60.372C141.891 60.372 140.883 60.684 139.755 61.308V69.3H141.699V72H133.203V69.3H135.399V60.372H133.239V57.672H139.503L139.575 59.004C141.279 57.876 142.935 57.312 144.543 57.312C145.479 57.312 146.295 57.504 146.991 57.888C147.711 58.272 148.275 58.812 148.683 59.508C149.643 58.788 150.579 58.248 151.491 57.888C152.427 57.504 153.399 57.312 154.407 57.312C155.847 57.312 156.999 57.768 157.863 58.68C158.751 59.568 159.195 60.756 159.195 62.244V69.3H161.319ZM179.811 69.3V72H173.763L173.727 70.956C172.383 71.916 170.871 72.396 169.191 72.396C167.871 72.396 166.695 72.084 165.663 71.46C164.631 70.836 163.815 69.96 163.215 68.832C162.615 67.68 162.315 66.336 162.315 64.8C162.315 63.288 162.603 61.968 163.179 60.84C163.779 59.712 164.583 58.848 165.591 58.248C166.623 57.624 167.775 57.312 169.047 57.312C170.775 57.312 172.263 57.816 173.511 58.824V53.712H171.171V51.048H177.867V69.3H179.811ZM166.851 64.944C166.851 66.216 167.199 67.236 167.895 68.004C168.615 68.748 169.539 69.12 170.667 69.12C171.675 69.12 172.623 68.832 173.511 68.256V61.632C172.599 60.936 171.603 60.588 170.523 60.588C169.419 60.588 168.531 60.972 167.859 61.74C167.187 62.484 166.851 63.552 166.851 64.944ZM189.006 72.396C187.446 72.396 186.066 72.084 184.866 71.46C183.69 70.836 182.778 69.948 182.13 68.796C181.482 67.644 181.158 66.324 181.158 64.836C181.158 63.348 181.482 62.04 182.13 60.912C182.778 59.76 183.69 58.872 184.866 58.248C186.066 57.624 187.446 57.312 189.006 57.312C190.566 57.312 191.946 57.624 193.146 58.248C194.346 58.872 195.27 59.748 195.918 60.876C196.59 62.004 196.926 63.312 196.926 64.8C196.926 66.312 196.59 67.644 195.918 68.796C195.27 69.948 194.346 70.836 193.146 71.46C191.946 72.084 190.566 72.396 189.006 72.396ZM189.006 69.084C190.158 69.108 191.07 68.736 191.742 67.968C192.438 67.176 192.786 66.12 192.786 64.8C192.786 63.528 192.438 62.52 191.742 61.776C191.07 61.008 190.158 60.624 189.006 60.624C187.878 60.624 186.978 61.008 186.306 61.776C185.634 62.52 185.298 63.54 185.298 64.836C185.298 66.132 185.634 67.176 186.306 67.968C186.978 68.736 187.878 69.108 189.006 69.084ZM216.671 69.3V72H208.355V69.3H210.191V62.964C210.191 62.148 209.999 61.512 209.615 61.056C209.231 60.6 208.691 60.372 207.995 60.372C207.035 60.372 206.003 60.696 204.899 61.344V69.3H206.843V72H198.347V69.3H200.543V60.372H198.347V57.672H204.647L204.683 59.004C206.435 57.876 208.115 57.312 209.723 57.312C211.187 57.312 212.351 57.768 213.215 58.68C214.103 59.568 214.547 60.756 214.547 62.244V69.3H216.671Z" fill="url(#paint5_linear)"/>
<path d="M92.584 68.976V67.976H91.584V68.976H92.584ZM94.924 68.976V69.976H95.924V68.976H94.924ZM94.924 54.432H95.924V53.432H94.924V54.432ZM92.584 54.432H91.584V55.432H92.584V54.432ZM92.584 51.408V50.408H91.584V51.408H92.584ZM110.296 52.848L109.735 53.6757L109.741 53.6801L110.296 52.848ZM107.848 62.676L107.627 61.7007L106.264 62.0095L106.996 63.1998L107.848 62.676ZM111.7 68.94L110.848 69.4638L111.141 69.94H111.7V68.94ZM114.148 68.94H115.148V67.94H114.148V68.94ZM114.148 72V73H115.148V72H114.148ZM108.136 72L107.27 72.4992L107.558 73H108.136V72ZM103.096 63.252L103.962 62.7528L103.674 62.252H103.096V63.252ZM101.224 63.252H100.224V64.252H101.224V63.252ZM101.224 60.156V59.156H100.224V60.156H101.224ZM106.588 59.364L107.295 60.0711L107.295 60.0711L106.588 59.364ZM106.624 55.188L105.934 55.9114L105.934 55.9114L106.624 55.188ZM99.856 54.432V53.432H98.856V54.432H99.856ZM99.856 68.976H98.856V69.976H99.856V68.976ZM102.124 68.976H103.124V67.976H102.124V68.976ZM102.124 72V73H103.124V72H102.124ZM92.584 72H91.584V73H92.584V72ZM92.584 69.976H94.924V67.976H92.584V69.976ZM95.924 68.976V54.432H93.924V68.976H95.924ZM94.924 53.432H92.584V55.432H94.924V53.432ZM93.584 54.432V51.408H91.584V54.432H93.584ZM92.584 52.408H104.464V50.408H92.584V52.408ZM104.464 52.408C106.821 52.408 108.543 52.8677 109.735 53.6757L110.857 52.0203C109.217 50.9083 107.051 50.408 104.464 50.408V52.408ZM109.741 53.6801C110.861 54.4267 111.456 55.5528 111.456 57.24H113.456C113.456 54.9912 112.611 53.1893 110.851 52.0159L109.741 53.6801ZM111.456 57.24C111.456 58.5242 111.123 59.4623 110.541 60.1484C109.953 60.8423 109.02 61.3851 107.627 61.7007L108.069 63.6513C109.748 63.2709 111.119 62.5597 112.067 61.4416C113.021 60.3157 113.456 58.8838 113.456 57.24H111.456ZM106.996 63.1998L110.848 69.4638L112.552 68.4162L108.7 62.1522L106.996 63.1998ZM111.7 69.94H114.148V67.94H111.7V69.94ZM113.148 68.94V72H115.148V68.94H113.148ZM114.148 71H108.136V73H114.148V71ZM109.002 71.5008L103.962 62.7528L102.23 63.7512L107.27 72.4992L109.002 71.5008ZM103.096 62.252H101.224V64.252H103.096V62.252ZM102.224 63.252V60.156H100.224V63.252H102.224ZM101.224 61.156H103.996V59.156H101.224V61.156ZM103.996 61.156C105.307 61.156 106.493 60.8732 107.295 60.0711L105.881 58.6569C105.627 58.9108 105.085 59.156 103.996 59.156V61.156ZM107.295 60.0711C108.066 59.3001 108.416 58.2971 108.416 57.168H106.416C106.416 57.8629 106.214 58.3239 105.881 58.6569L107.295 60.0711ZM108.416 57.168C108.416 56.1142 108.064 55.1805 107.314 54.4646L105.934 55.9114C106.24 56.2035 106.416 56.5898 106.416 57.168H108.416ZM107.314 54.4646C106.535 53.7209 105.466 53.432 104.284 53.432V55.432C105.166 55.432 105.657 55.6471 105.934 55.9114L107.314 54.4646ZM104.284 53.432H99.856V55.432H104.284V53.432ZM98.856 54.432V68.976H100.856V54.432H98.856ZM99.856 69.976H102.124V67.976H99.856V69.976ZM101.124 68.976V72H103.124V68.976H101.124ZM102.124 71H92.584V73H102.124V71ZM93.584 72V68.976H91.584V72H93.584ZM119.722 71.46L119.253 72.3434L119.26 72.3472L119.722 71.46ZM116.986 68.796L116.114 69.2863L116.114 69.2863L116.986 68.796ZM116.986 60.912L117.853 61.4101L117.857 61.4023L116.986 60.912ZM119.722 58.248L119.26 57.3608L119.253 57.3647L119.722 58.248ZM128.002 58.248L128.463 57.3608L128.463 57.3608L128.002 58.248ZM130.774 60.876L129.907 61.3741L129.911 61.381L129.915 61.3878L130.774 60.876ZM130.774 68.796L129.91 68.2921L129.906 68.2989L129.902 68.3057L130.774 68.796ZM128.002 71.46L127.54 70.5728L127.54 70.5728L128.002 71.46ZM123.862 69.084L123.883 68.0842L123.862 68.0838L123.841 68.0842L123.862 69.084ZM126.598 67.968L125.847 67.3079L125.845 67.3095L126.598 67.968ZM126.598 61.776L125.845 62.4345L125.856 62.447L125.868 62.4592L126.598 61.776ZM121.162 61.776L121.904 62.4463L121.909 62.4404L121.914 62.4345L121.162 61.776ZM121.162 67.968L120.399 68.615L120.404 68.6208L120.409 68.6265L121.162 67.968ZM123.862 71.396C122.438 71.396 121.22 71.1121 120.183 70.5728L119.26 72.3472C120.623 73.0559 122.166 73.396 123.862 73.396V71.396ZM120.191 70.5767C119.182 70.0417 118.411 69.2896 117.857 68.3057L116.114 69.2863C116.857 70.6064 117.909 71.6303 119.253 72.3433L120.191 70.5767ZM117.857 68.3057C117.304 67.3215 117.014 66.1743 117.014 64.836H115.014C115.014 66.4737 115.372 67.9665 116.114 69.2863L117.857 68.3057ZM117.014 64.836C117.014 63.4973 117.304 62.3659 117.853 61.4101L116.119 60.4139C115.372 61.7141 115.014 63.1987 115.014 64.836H117.014ZM117.857 61.4023C118.411 60.4184 119.182 59.6663 120.191 59.1313L119.253 57.3647C117.909 58.0777 116.857 59.1016 116.114 60.4217L117.857 61.4023ZM120.183 59.1352C121.22 58.5959 122.438 58.312 123.862 58.312V56.312C122.166 56.312 120.623 56.6521 119.26 57.3608L120.183 59.1352ZM123.862 58.312C125.286 58.312 126.503 58.5959 127.54 59.1352L128.463 57.3608C127.1 56.6521 125.558 56.312 123.862 56.312V58.312ZM127.54 59.1352C128.578 59.6747 129.358 60.4188 129.907 61.3741L131.641 60.3779C130.894 59.0772 129.826 58.0693 128.463 57.3608L127.54 59.1352ZM129.915 61.3878C130.483 62.3412 130.782 63.4677 130.782 64.8H132.782C132.782 63.1563 132.409 61.6668 131.633 60.3642L129.915 61.3878ZM130.782 64.8C130.782 66.1591 130.481 67.3126 129.91 68.2921L131.638 69.2999C132.41 67.9754 132.782 66.4649 132.782 64.8H130.782ZM129.902 68.3057C129.352 69.2842 128.572 70.0362 127.54 70.5728L128.463 72.3472C129.831 71.6358 130.9 70.6118 131.645 69.2863L129.902 68.3057ZM127.54 70.5728C126.503 71.1121 125.286 71.396 123.862 71.396V73.396C125.558 73.396 127.1 73.0559 128.463 72.3472L127.54 70.5728ZM123.841 70.0838C125.246 70.113 126.457 69.6473 127.35 68.6265L125.845 67.3095C125.394 67.8247 124.782 68.103 123.883 68.0842L123.841 70.0838ZM127.349 68.6281C128.243 67.611 128.642 66.2996 128.642 64.8H126.642C126.642 65.9404 126.345 66.741 125.847 67.3079L127.349 68.6281ZM128.642 64.8C128.642 63.3403 128.238 62.0652 127.328 61.0928L125.868 62.4592C126.35 62.9748 126.642 63.7157 126.642 64.8H128.642ZM127.35 61.1175C126.463 60.1031 125.261 59.624 123.862 59.624V61.624C124.767 61.624 125.389 61.9129 125.845 62.4345L127.35 61.1175ZM123.862 59.624C122.48 59.624 121.292 60.1081 120.409 61.1175L121.914 62.4345C122.375 61.9079 122.988 61.624 123.862 61.624V59.624ZM120.42 61.1057C119.538 62.0822 119.154 63.3669 119.154 64.836H121.154C121.154 63.7131 121.442 62.9578 121.904 62.4463L120.42 61.1057ZM119.154 64.836C119.154 66.3084 119.539 67.6009 120.399 68.615L121.924 67.321C121.441 66.7511 121.154 65.9556 121.154 64.836H119.154ZM120.409 68.6265C121.298 69.6424 122.495 70.1133 123.883 70.0838L123.841 68.0842C122.973 68.1027 122.37 67.8296 121.914 67.3095L120.409 68.6265ZM161.319 69.3H162.319V68.3H161.319V69.3ZM161.319 72V73H162.319V72H161.319ZM153.003 72H152.003V73H153.003V72ZM153.003 69.3V68.3H152.003V69.3H153.003ZM154.839 69.3V70.3H155.839V69.3H154.839ZM154.263 61.056L155.028 60.4119L155.028 60.4119L154.263 61.056ZM149.331 61.524L148.76 60.7031L148.254 61.0551L148.341 61.6654L149.331 61.524ZM149.367 69.3H148.367V70.3H149.367V69.3ZM151.491 69.3H152.491V68.3H151.491V69.3ZM151.491 72V73H152.491V72H151.491ZM143.175 72H142.175V73H143.175V72ZM143.175 69.3V68.3H142.175V69.3H143.175ZM145.011 69.3V70.3H146.011V69.3H145.011ZM144.399 61.056L143.634 61.7001L143.643 61.7116L143.653 61.7228L144.399 61.056ZM139.755 61.308L139.271 60.433L138.755 60.7184V61.308H139.755ZM139.755 69.3H138.755V70.3H139.755V69.3ZM141.699 69.3H142.699V68.3H141.699V69.3ZM141.699 72V73H142.699V72H141.699ZM133.203 72H132.203V73H133.203V72ZM133.203 69.3V68.3H132.203V69.3H133.203ZM135.399 69.3V70.3H136.399V69.3H135.399ZM135.399 60.372H136.399V59.372H135.399V60.372ZM133.239 60.372H132.239V61.372H133.239V60.372ZM133.239 57.672V56.672H132.239V57.672H133.239ZM139.503 57.672L140.501 57.618L140.45 56.672H139.503V57.672ZM139.575 59.004L138.576 59.058L138.67 60.8019L140.127 59.8379L139.575 59.004ZM146.991 57.888L146.508 58.7636L146.514 58.767L146.52 58.7704L146.991 57.888ZM148.683 59.508L147.82 60.0137L148.387 60.9801L149.283 60.308L148.683 59.508ZM151.491 57.888L151.858 58.8182L151.87 58.8132L151.491 57.888ZM157.863 58.68L157.137 59.3677L157.146 59.3776L157.156 59.3871L157.863 58.68ZM159.195 69.3H158.195V70.3H159.195V69.3ZM160.319 69.3V72H162.319V69.3H160.319ZM161.319 71H153.003V73H161.319V71ZM154.003 72V69.3H152.003V72H154.003ZM153.003 70.3H154.839V68.3H153.003V70.3ZM155.839 69.3V62.964H153.839V69.3H155.839ZM155.839 62.964C155.839 61.9991 155.611 61.105 155.028 60.4119L153.498 61.7001C153.682 61.919 153.839 62.2969 153.839 62.964H155.839ZM155.028 60.4119C154.421 59.6914 153.579 59.372 152.643 59.372V61.372C153.099 61.372 153.337 61.5086 153.498 61.7001L155.028 60.4119ZM152.643 59.372C151.294 59.372 149.994 59.8443 148.76 60.7031L149.902 62.3449C150.875 61.6677 151.784 61.372 152.643 61.372V59.372ZM148.341 61.6654C148.354 61.7607 148.367 61.955 148.367 62.28H150.367C150.367 61.933 150.355 61.6233 150.321 61.3826L148.341 61.6654ZM148.367 62.28V69.3H150.367V62.28H148.367ZM149.367 70.3H151.491V68.3H149.367V70.3ZM150.491 69.3V72H152.491V69.3H150.491ZM151.491 71H143.175V73H151.491V71ZM144.175 72V69.3H142.175V72H144.175ZM143.175 70.3H145.011V68.3H143.175V70.3ZM146.011 69.3V62.964H144.011V69.3H146.011ZM146.011 62.964C146.011 61.9854 145.764 61.0824 145.144 60.3892L143.653 61.7228C143.849 61.9416 144.011 62.3106 144.011 62.964H146.011ZM145.164 60.4119C144.557 59.6914 143.715 59.372 142.779 59.372V61.372C143.235 61.372 143.473 61.5086 143.634 61.7001L145.164 60.4119ZM142.779 59.372C141.662 59.372 140.484 59.7616 139.271 60.433L140.239 62.183C141.281 61.6064 142.119 61.372 142.779 61.372V59.372ZM138.755 61.308V69.3H140.755V61.308H138.755ZM139.755 70.3H141.699V68.3H139.755V70.3ZM140.699 69.3V72H142.699V69.3H140.699ZM141.699 71H133.203V73H141.699V71ZM134.203 72V69.3H132.203V72H134.203ZM133.203 70.3H135.399V68.3H133.203V70.3ZM136.399 69.3V60.372H134.399V69.3H136.399ZM135.399 59.372H133.239V61.372H135.399V59.372ZM134.239 60.372V57.672H132.239V60.372H134.239ZM133.239 58.672H139.503V56.672H133.239V58.672ZM138.504 57.726L138.576 59.058L140.573 58.95L140.501 57.618L138.504 57.726ZM140.127 59.8379C141.711 58.789 143.178 58.312 144.543 58.312V56.312C142.691 56.312 140.846 56.963 139.023 58.1701L140.127 59.8379ZM144.543 58.312C145.34 58.312 145.984 58.4746 146.508 58.7636L147.474 57.0124C146.606 56.5334 145.618 56.312 144.543 56.312V58.312ZM146.52 58.7704C147.079 59.0685 147.507 59.479 147.82 60.0137L149.545 59.0023C149.043 58.145 148.342 57.4755 147.461 57.0056L146.52 58.7704ZM149.283 60.308C150.187 59.6301 151.045 59.139 151.858 58.8182L151.124 56.9578C150.112 57.357 149.099 57.9459 148.083 58.708L149.283 60.308ZM151.87 58.8132C152.686 58.4784 153.529 58.312 154.407 58.312V56.312C153.268 56.312 152.167 56.5296 151.111 56.9628L151.87 58.8132ZM154.407 58.312C155.616 58.312 156.49 58.6849 157.137 59.3677L158.589 57.9923C157.508 56.8511 156.077 56.312 154.407 56.312V58.312ZM157.156 59.3871C157.822 60.0533 158.195 60.9685 158.195 62.244H160.195C160.195 60.5435 159.68 59.0827 158.57 57.9729L157.156 59.3871ZM158.195 62.244V69.3H160.195V62.244H158.195ZM159.195 70.3H161.319V68.3H159.195V70.3ZM179.811 69.3H180.811V68.3H179.811V69.3ZM179.811 72V73H180.811V72H179.811ZM173.763 72L172.764 72.0345L172.797 73H173.763V72ZM173.727 70.956L174.727 70.9215L174.663 69.0591L173.146 70.1423L173.727 70.956ZM165.663 71.46L165.146 72.3157L165.146 72.3157L165.663 71.46ZM163.215 68.832L162.328 69.294L162.333 69.3016L163.215 68.832ZM163.179 60.84L162.297 60.3704L162.293 60.3778L162.289 60.3852L163.179 60.84ZM165.591 58.248L166.103 59.1073L166.109 59.1037L165.591 58.248ZM173.511 58.824L172.883 59.6019L174.511 60.9171V58.824H173.511ZM173.511 53.712H174.511V52.712H173.511V53.712ZM171.171 53.712H170.171V54.712H171.171V53.712ZM171.171 51.048V50.048H170.171V51.048H171.171ZM177.867 51.048H178.867V50.048H177.867V51.048ZM177.867 69.3H176.867V70.3H177.867V69.3ZM167.895 68.004L167.154 68.6755L167.165 68.6877L167.177 68.6994L167.895 68.004ZM173.511 68.256L174.056 69.095L174.511 68.7993V68.256H173.511ZM173.511 61.632H174.511V61.1372L174.118 60.837L173.511 61.632ZM167.859 61.74L168.602 62.4103L168.607 62.4044L168.612 62.3985L167.859 61.74ZM178.811 69.3V72H180.811V69.3H178.811ZM179.811 71H173.763V73H179.811V71ZM174.763 71.9655L174.727 70.9215L172.728 70.9905L172.764 72.0345L174.763 71.9655ZM173.146 70.1423C171.975 70.9789 170.667 71.396 169.191 71.396V73.396C171.076 73.396 172.792 72.8531 174.309 71.7697L173.146 70.1423ZM169.191 71.396C168.036 71.396 167.042 71.1251 166.181 70.6043L165.146 72.3157C166.349 73.0429 167.707 73.396 169.191 73.396V71.396ZM166.181 70.6043C165.313 70.0793 164.619 69.3409 164.098 68.3624L162.333 69.3016C163.012 70.5791 163.95 71.5927 165.146 72.3157L166.181 70.6043ZM164.102 68.3701C163.589 67.3846 163.315 66.2044 163.315 64.8H161.315C161.315 66.4676 161.642 67.9754 162.329 69.2939L164.102 68.3701ZM163.315 64.8C163.315 63.4157 163.579 62.2572 164.07 61.2948L162.289 60.3852C161.628 61.6788 161.315 63.1603 161.315 64.8H163.315ZM164.062 61.3096C164.584 60.3281 165.266 59.6055 166.103 59.1073L165.08 57.3887C163.901 58.0905 162.974 59.0959 162.297 60.3704L164.062 61.3096ZM166.109 59.1037C166.976 58.5794 167.947 58.312 169.047 58.312V56.312C167.603 56.312 166.271 56.6686 165.074 57.3923L166.109 59.1037ZM169.047 58.312C170.566 58.312 171.827 58.7491 172.883 59.6019L174.14 58.0461C172.7 56.8829 170.985 56.312 169.047 56.312V58.312ZM174.511 58.824V53.712H172.511V58.824H174.511ZM173.511 52.712H171.171V54.712H173.511V52.712ZM172.171 53.712V51.048H170.171V53.712H172.171ZM171.171 52.048H177.867V50.048H171.171V52.048ZM176.867 51.048V69.3H178.867V51.048H176.867ZM177.867 70.3H179.811V68.3H177.867V70.3ZM165.851 64.944C165.851 66.4052 166.256 67.6841 167.154 68.6755L168.636 67.3325C168.143 66.7879 167.851 66.0268 167.851 64.944H165.851ZM167.177 68.6994C168.103 69.6566 169.295 70.12 170.667 70.12V68.12C169.783 68.12 169.128 67.8394 168.614 67.3086L167.177 68.6994ZM170.667 70.12C171.879 70.12 173.014 69.7705 174.056 69.095L172.967 67.417C172.233 67.8935 171.472 68.12 170.667 68.12V70.12ZM174.511 68.256V61.632H172.511V68.256H174.511ZM174.118 60.837C173.043 60.0169 171.837 59.588 170.523 59.588V61.588C171.37 61.588 172.155 61.8551 172.905 62.427L174.118 60.837ZM170.523 59.588C169.158 59.588 167.986 60.0772 167.107 61.0815L168.612 62.3985C169.077 61.8668 169.681 61.588 170.523 61.588V59.588ZM167.117 61.0697C166.224 62.0583 165.851 63.4008 165.851 64.944H167.851C167.851 63.7032 168.15 62.9097 168.602 62.4103L167.117 61.0697ZM184.866 71.46L184.398 72.3434L184.405 72.3472L184.866 71.46ZM182.13 68.796L181.259 69.2863L181.259 69.2863L182.13 68.796ZM182.13 60.912L182.997 61.4101L183.002 61.4023L182.13 60.912ZM184.866 58.248L184.405 57.3608L184.398 57.3647L184.866 58.248ZM193.146 58.248L193.608 57.3608L193.608 57.3608L193.146 58.248ZM195.918 60.876L195.051 61.3741L195.055 61.381L195.059 61.3878L195.918 60.876ZM195.918 68.796L195.055 68.2921L195.051 68.2989L195.047 68.3057L195.918 68.796ZM193.146 71.46L192.685 70.5728L192.685 70.5728L193.146 71.46ZM189.006 69.084L189.027 68.0842L189.006 68.0838L188.985 68.0842L189.006 69.084ZM191.742 67.968L190.991 67.3079L190.99 67.3095L191.742 67.968ZM191.742 61.776L190.99 62.4345L191.001 62.447L191.012 62.4592L191.742 61.776ZM186.306 61.776L187.048 62.4463L187.054 62.4404L187.059 62.4345L186.306 61.776ZM186.306 67.968L185.544 68.615L185.549 68.6208L185.554 68.6265L186.306 67.968ZM189.006 71.396C187.582 71.396 186.365 71.1121 185.328 70.5728L184.405 72.3472C185.768 73.0559 187.31 73.396 189.006 73.396V71.396ZM185.335 70.5767C184.327 70.0417 183.555 69.2896 183.002 68.3057L181.259 69.2863C182.001 70.6064 183.054 71.6303 184.398 72.3433L185.335 70.5767ZM183.002 68.3057C182.448 67.3215 182.158 66.1743 182.158 64.836H180.158C180.158 66.4737 180.516 67.9665 181.259 69.2863L183.002 68.3057ZM182.158 64.836C182.158 63.4973 182.448 62.3659 182.997 61.4101L181.263 60.4139C180.516 61.7141 180.158 63.1987 180.158 64.836H182.158ZM183.002 61.4023C183.555 60.4184 184.327 59.6663 185.335 59.1313L184.398 57.3647C183.054 58.0777 182.001 59.1016 181.259 60.4217L183.002 61.4023ZM185.328 59.1352C186.365 58.5959 187.582 58.312 189.006 58.312V56.312C187.31 56.312 185.768 56.6521 184.405 57.3608L185.328 59.1352ZM189.006 58.312C190.43 58.312 191.648 58.5959 192.685 59.1352L193.608 57.3608C192.245 56.6521 190.702 56.312 189.006 56.312V58.312ZM192.685 59.1352C193.722 59.6747 194.502 60.4188 195.051 61.3741L196.785 60.3779C196.038 59.0772 194.97 58.0693 193.608 57.3608L192.685 59.1352ZM195.059 61.3878C195.627 62.3412 195.926 63.4677 195.926 64.8H197.926C197.926 63.1563 197.553 61.6668 196.777 60.3642L195.059 61.3878ZM195.926 64.8C195.926 66.1591 195.626 67.3126 195.055 68.2921L196.782 69.2999C197.555 67.9754 197.926 66.4649 197.926 64.8H195.926ZM195.047 68.3057C194.496 69.2842 193.717 70.0362 192.685 70.5728L193.608 72.3472C194.976 71.6358 196.044 70.6118 196.79 69.2863L195.047 68.3057ZM192.685 70.5728C191.648 71.1121 190.43 71.396 189.006 71.396V73.396C190.702 73.396 192.245 73.0559 193.608 72.3472L192.685 70.5728ZM188.986 70.0838C190.39 70.113 191.602 69.6473 192.495 68.6265L190.99 67.3095C190.539 67.8247 189.926 68.103 189.027 68.0842L188.986 70.0838ZM192.494 68.6281C193.387 67.611 193.786 66.2996 193.786 64.8H191.786C191.786 65.9404 191.489 66.741 190.991 67.3079L192.494 68.6281ZM193.786 64.8C193.786 63.3403 193.382 62.0652 192.473 61.0928L191.012 62.4592C191.494 62.9748 191.786 63.7157 191.786 64.8H193.786ZM192.495 61.1175C191.607 60.1031 190.405 59.624 189.006 59.624V61.624C189.911 61.624 190.533 61.9129 190.99 62.4345L192.495 61.1175ZM189.006 59.624C187.624 59.624 186.437 60.1081 185.554 61.1175L187.059 62.4345C187.52 61.9079 188.133 61.624 189.006 61.624V59.624ZM185.564 61.1057C184.682 62.0822 184.298 63.3669 184.298 64.836H186.298C186.298 63.7131 186.586 62.9578 187.048 62.4463L185.564 61.1057ZM184.298 64.836C184.298 66.3084 184.683 67.6009 185.544 68.615L187.069 67.321C186.585 66.7511 186.298 65.9556 186.298 64.836H184.298ZM185.554 68.6265C186.443 69.6424 187.639 70.1133 189.028 70.0838L188.985 68.0842C188.118 68.1027 187.514 67.8296 187.059 67.3095L185.554 68.6265ZM216.671 69.3H217.671V68.3H216.671V69.3ZM216.671 72V73H217.671V72H216.671ZM208.355 72H207.355V73H208.355V72ZM208.355 69.3V68.3H207.355V69.3H208.355ZM210.191 69.3V70.3H211.191V69.3H210.191ZM209.615 61.056L210.38 60.4119L210.38 60.4119L209.615 61.056ZM204.899 61.344L204.393 60.4816L203.899 60.7714V61.344H204.899ZM204.899 69.3H203.899V70.3H204.899V69.3ZM206.843 69.3H207.843V68.3H206.843V69.3ZM206.843 72V73H207.843V72H206.843ZM198.347 72H197.347V73H198.347V72ZM198.347 69.3V68.3H197.347V69.3H198.347ZM200.543 69.3V70.3H201.543V69.3H200.543ZM200.543 60.372H201.543V59.372H200.543V60.372ZM198.347 60.372H197.347V61.372H198.347V60.372ZM198.347 57.672V56.672H197.347V57.672H198.347ZM204.647 57.672L205.647 57.645L205.621 56.672H204.647V57.672ZM204.683 59.004L203.684 59.031L203.732 60.806L205.225 59.8448L204.683 59.004ZM213.215 58.68L212.489 59.3677L212.499 59.3776L212.508 59.3871L213.215 58.68ZM214.547 69.3H213.547V70.3H214.547V69.3ZM215.671 69.3V72H217.671V69.3H215.671ZM216.671 71H208.355V73H216.671V71ZM209.355 72V69.3H207.355V72H209.355ZM208.355 70.3H210.191V68.3H208.355V70.3ZM211.191 69.3V62.964H209.191V69.3H211.191ZM211.191 62.964C211.191 61.9991 210.964 61.105 210.38 60.4119L208.85 61.7001C209.035 61.919 209.191 62.2969 209.191 62.964H211.191ZM210.38 60.4119C209.773 59.6914 208.931 59.372 207.995 59.372V61.372C208.451 61.372 208.689 61.5086 208.85 61.7001L210.38 60.4119ZM207.995 59.372C206.807 59.372 205.601 59.7726 204.393 60.4816L205.405 62.2064C206.405 61.6194 207.263 61.372 207.995 61.372V59.372ZM203.899 61.344V69.3H205.899V61.344H203.899ZM204.899 70.3H206.843V68.3H204.899V70.3ZM205.843 69.3V72H207.843V69.3H205.843ZM206.843 71H198.347V73H206.843V71ZM199.347 72V69.3H197.347V72H199.347ZM198.347 70.3H200.543V68.3H198.347V70.3ZM201.543 69.3V60.372H199.543V69.3H201.543ZM200.543 59.372H198.347V61.372H200.543V59.372ZM199.347 60.372V57.672H197.347V60.372H199.347ZM198.347 58.672H204.647V56.672H198.347V58.672ZM203.648 57.699L203.684 59.031L205.683 58.977L205.647 57.645L203.648 57.699ZM205.225 59.8448C206.862 58.7904 208.356 58.312 209.723 58.312V56.312C207.874 56.312 206.008 56.9616 204.142 58.1632L205.225 59.8448ZM209.723 58.312C210.962 58.312 211.846 58.6884 212.489 59.3677L213.941 57.9923C212.857 56.8476 211.412 56.312 209.723 56.312V58.312ZM212.508 59.3871C213.174 60.0533 213.547 60.9685 213.547 62.244H215.547C215.547 60.5435 215.032 59.0827 213.922 57.9729L212.508 59.3871ZM213.547 62.244V69.3H215.547V62.244H213.547ZM214.547 70.3H216.671V68.3H214.547V70.3Z" fill="#2F2E41"/>
<defs>
<filter id="filter0_d" x="5.68262" y="51.0562" width="58.1134" height="33.3249" filterUnits="userSpaceOnUse" color-interpolation-filters="sRGB">
<feFlood flood-opacity="0" result="BackgroundImageFix"/>
<feColorMatrix in="SourceAlpha" type="matrix" values="0 0 0 0 0 0 0 0 0 0 0 0 0 0 0 0 0 0 127 0"/>
<feOffset dy="4"/>
<feGaussianBlur stdDeviation="2"/>
<feColorMatrix type="matrix" values="0 0 0 0 0 0 0 0 0 0 0 0 0 0 0 0 0 0 0.25 0"/>
<feBlend mode="normal" in2="BackgroundImageFix" result="effect1_dropShadow"/>
<feBlend mode="normal" in="SourceGraphic" in2="effect1_dropShadow" result="shape"/>
</filter>
<filter id="filter1_d" x="6.68262" y="50.0562" width="54.1134" height="29.3249" filterUnits="userSpaceOnUse" color-interpolation-filters="sRGB">
<feFlood flood-opacity="0" result="BackgroundImageFix"/>
<feColorMatrix in="SourceAlpha" type="matrix" values="0 0 0 0 0 0 0 0 0 0 0 0 0 0 0 0 0 0 127 0"/>
<feOffset dx="-1" dy="1"/>
<feGaussianBlur stdDeviation="1"/>
<feColorMatrix type="matrix" values="0 0 0 0 0.980392 0 0 0 0 0.980392 0 0 0 0 0.980392 0 0 0 1 0"/>
<feBlend mode="normal" in2="BackgroundImageFix" result="effect1_dropShadow"/>
<feBlend mode="normal" in="SourceGraphic" in2="effect1_dropShadow" result="shape"/>
</filter>
<filter id="filter2_d" x="57.5752" y="51.9559" width="17.4697" height="14.6472" filterUnits="userSpaceOnUse" color-interpolation-filters="sRGB">
<feFlood flood-opacity="0" result="BackgroundImageFix"/>
<feColorMatrix in="SourceAlpha" type="matrix" values="0 0 0 0 0 0 0 0 0 0 0 0 0 0 0 0 0 0 127 0"/>
<feOffset dx="-1" dy="1"/>
<feGaussianBlur stdDeviation="1"/>
<feColorMatrix type="matrix" values="0 0 0 0 1 0 0 0 0 1 0 0 0 0 1 0 0 0 1 0"/>
<feBlend mode="normal" in2="BackgroundImageFix" result="effect1_dropShadow"/>
<feBlend mode="normal" in="SourceGraphic" in2="effect1_dropShadow" result="shape"/>
</filter>
<filter id="filter3_d" x="44.4189" y="48.3458" width="43.9003" height="39.8169" filterUnits="userSpaceOnUse" color-interpolation-filters="sRGB">
<feFlood flood-opacity="0" result="BackgroundImageFix"/>
<feColorMatrix in="SourceAlpha" type="matrix" values="0 0 0 0 0 0 0 0 0 0 0 0 0 0 0 0 0 0 127 0"/>
<feOffset dy="4"/>
<feGaussianBlur stdDeviation="2"/>
<feColorMatrix type="matrix" values="0 0 0 0 0 0 0 0 0 0 0 0 0 0 0 0 0 0 0.25 0"/>
<feBlend mode="normal" in2="BackgroundImageFix" result="effect1_dropShadow"/>
<feBlend mode="normal" in="SourceGraphic" in2="effect1_dropShadow" result="shape"/>
</filter>
<filter id="filter4_d" x="45.4189" y="47.3458" width="39.9003" height="35.8169" filterUnits="userSpaceOnUse" color-interpolation-filters="sRGB">
<feFlood flood-opacity="0" result="BackgroundImageFix"/>
<feColorMatrix in="SourceAlpha" type="matrix" values="0 0 0 0 0 0 0 0 0 0 0 0 0 0 0 0 0 0 127 0"/>
<feOffset dx="-1" dy="1"/>
<feGaussianBlur stdDeviation="1"/>
<feColorMatrix type="matrix" values="0 0 0 0 1 0 0 0 0 1 0 0 0 0 1 0 0 0 1 0"/>
<feBlend mode="normal" in2="BackgroundImageFix" result="effect1_dropShadow"/>
<feBlend mode="normal" in="SourceGraphic" in2="effect1_dropShadow" result="shape"/>
</filter>
<filter id="filter5_d" x="70.0869" y="59.441" width="17.4697" height="14.6471" filterUnits="userSpaceOnUse" color-interpolation-filters="sRGB">
<feFlood flood-opacity="0" result="BackgroundImageFix"/>
<feColorMatrix in="SourceAlpha" type="matrix" values="0 0 0 0 0 0 0 0 0 0 0 0 0 0 0 0 0 0 127 0"/>
<feOffset dx="-1" dy="1"/>
<feGaussianBlur stdDeviation="1"/>
<feColorMatrix type="matrix" values="0 0 0 0 1 0 0 0 0 1 0 0 0 0 1 0 0 0 1 0"/>
<feBlend mode="normal" in2="BackgroundImageFix" result="effect1_dropShadow"/>
<feBlend mode="normal" in="SourceGraphic" in2="effect1_dropShadow" result="shape"/>
</filter>
<linearGradient id="paint0_linear" x1="42.5147" y1="35.1661" x2="42.5147" y2="97.2542" gradientUnits="userSpaceOnUse">
<stop offset="0.0503547" stop-color="#C4C4C4"/>
<stop offset="1" stop-color="#C4C4C4" stop-opacity="0"/>
</linearGradient>
<linearGradient id="paint1_linear" x1="37.4872" y1="0.410648" x2="35.5" y2="105.117" gradientUnits="userSpaceOnUse">
<stop offset="0.50439" stop-color="#641419"/>
<stop offset="0.880208" stop-color="#ECBC3D"/>
</linearGradient>
<linearGradient id="paint2_linear" x1="37.4872" y1="0.410648" x2="35.5" y2="105.117" gradientUnits="userSpaceOnUse">
<stop offset="0.50439" stop-color="#3300C4"/>
<stop offset="0.791667" stop-color="#A5A5A5"/>
</linearGradient>
<linearGradient id="paint3_linear" x1="65.014" y1="4.13698" x2="65.014" y2="108.862" gradientUnits="userSpaceOnUse">
<stop offset="0.474647" stop-color="#641419"/>
<stop offset="1" stop-color="#ECBC3D"/>
</linearGradient>
<linearGradient id="paint4_linear" x1="65.014" y1="4.13698" x2="65.014" y2="108.862" gradientUnits="userSpaceOnUse">
<stop offset="0.520833" stop-color="#A5A5A5"/>
<stop offset="1" stop-color="#3300C4"/>
</linearGradient>
<linearGradient id="paint5_linear" x1="154" y1="43" x2="154" y2="84" gradientUnits="userSpaceOnUse">
<stop offset="0.547217" stop-color="#2F2E41"/>
<stop offset="1" stop-color="#FFFFFE" stop-opacity="0"/>
</linearGradient>
</defs>
</svg>
