<svg width="200" height="200" viewBox="0 0 200 200" fill="none" xmlns="http://www.w3.org/2000/svg">
<mask id="mask0" mask-type="alpha" maskUnits="userSpaceOnUse" x="0" y="0" width="200" height="200">
<path fill-rule="evenodd" clip-rule="evenodd" d="M101.458 1.07774C118.774 -3.87987 135.559 9.35844 151.33 18.5582C169.595 29.2134 196.342 36.1769 199.663 58.3663C203.095 81.2919 179.48 97.6891 165.86 115.622C157.199 127.026 143.908 131.905 135.189 143.256C121.664 160.863 122.069 194.371 101.458 199.46C82.2086 204.214 69.9197 176.363 54.342 163.22C39.4526 150.658 20.9069 142.553 12.3845 124.308C3.06459 104.357 -6.41289 77.2986 5.77796 59.2557C18.6504 40.2039 48.6452 54.0708 67.6478 42.5163C82.858 33.2678 84.5952 5.90543 101.458 1.07774Z" fill="#C4C4C4"/>
</mask>
<g mask="url(#mask0)">
<rect x="-15.4287" y="-8.03931" width="242.455" height="208.467" fill="#F25F4C"/>
<path d="M85.0395 153.846C111.784 153.846 133.465 148.967 133.465 142.949C133.465 136.93 111.784 132.051 85.0395 132.051C58.295 132.051 36.6143 136.93 36.6143 142.949C36.6143 148.967 58.295 153.846 85.0395 153.846Z" fill="#F2F2F2"/>
<path d="M131.811 54.7009H53.543V58.5182H131.811V54.7009Z" fill="#F2F2F2"/>
<path fill-rule="evenodd" clip-rule="evenodd" d="M112.255 65.7817C115.617 66.1126 118.706 67.931 121.083 70.9499C123.453 73.9588 124.773 77.8713 125.101 82.0938C125.47 86.8593 125.77 92.3864 122.998 95.6545C120.259 98.8836 115.992 97.5939 112.255 97.2367C108.925 96.9184 105.583 96.4537 103.024 93.7453C100.228 90.7847 98.154 86.6939 97.9506 82.0938C97.737 77.2621 99.0884 72.309 101.933 69.0649C104.67 65.9438 108.577 65.4197 112.255 65.7817Z" fill="#FFFFFE"/>
<path d="M55.6386 57.541C55.9945 57.541 56.283 57.0987 56.283 56.5531C56.283 56.0075 55.9945 55.5652 55.6386 55.5652C55.2827 55.5652 54.9941 56.0075 54.9941 56.5531C54.9941 57.0987 55.2827 57.541 55.6386 57.541Z" fill="#536DFE"/>
<path d="M57.7323 57.541C58.0882 57.541 58.3768 57.0987 58.3768 56.5531C58.3768 56.0075 58.0882 55.5652 57.7323 55.5652C57.3764 55.5652 57.0879 56.0075 57.0879 56.5531C57.0879 57.0987 57.3764 57.541 57.7323 57.541Z" fill="#536DFE"/>
<path d="M59.8261 57.541C60.182 57.541 60.4705 57.0987 60.4705 56.5531C60.4705 56.0075 60.182 55.5652 59.8261 55.5652C59.4702 55.5652 59.1816 56.0075 59.1816 56.5531C59.1816 57.0987 59.4702 57.541 59.8261 57.541Z" fill="#536DFE"/>
<path d="M53.6014 121.045L53.5459 121.101V140.885H131.784V106.133L130.851 106.217L53.6014 121.045Z" fill="#3F3D56"/>
<path d="M81.0488 80.2356H59.1924V81.5866H81.0488V80.2356Z" fill="#3F3D56"/>
<path d="M81.0488 83.2079H59.1924V84.5589H81.0488V83.2079Z" fill="#3F3D56"/>
<path d="M66.5954 86.1803H59.1924V87.5313H66.5954V86.1803Z" fill="#3F3D56"/>
<path d="M125.62 117.744H103.764V119.095H125.62V117.744Z" fill="white"/>
<path d="M125.62 120.716H103.764V122.067H125.62V120.716Z" fill="white"/>
<path d="M111.167 123.689H103.764V125.04H111.167V123.689Z" fill="white"/>
<path d="M90.1849 139.652C90.6598 139.652 91.0447 139.062 91.0447 138.334C91.0447 137.606 90.6598 137.016 90.1849 137.016C89.7101 137.016 89.3252 137.606 89.3252 138.334C89.3252 139.062 89.7101 139.652 90.1849 139.652Z" fill="#F2F2F2"/>
<path d="M92.6781 139.784C93.1529 139.784 93.5378 139.194 93.5378 138.466C93.5378 137.738 93.1529 137.148 92.6781 137.148C92.2033 137.148 91.8184 137.738 91.8184 138.466C91.8184 139.194 92.2033 139.784 92.6781 139.784Z" fill="#F2F2F2"/>
<path d="M95.1713 139.916C95.6461 139.916 96.031 139.326 96.031 138.598C96.031 137.87 95.6461 137.28 95.1713 137.28C94.6964 137.28 94.3115 137.87 94.3115 138.598C94.3115 139.326 94.6964 139.916 95.1713 139.916Z" fill="#F2F2F2"/>
<path d="M92.6858 139.52C93.0657 139.52 93.3736 139.048 93.3736 138.466C93.3736 137.884 93.0657 137.411 92.6858 137.411C92.306 137.411 91.998 137.884 91.998 138.466C91.998 139.048 92.306 139.52 92.6858 139.52Z" fill="#3F3D56"/>
<path d="M73.8034 95.7003H66.4004V98.2896H73.8034V95.7003Z" fill="#3F3D56"/>
<path d="M117.805 130.737H110.402V133.326H117.805V130.737Z" fill="white"/>
<path opacity="0.3" d="M70.1425 104.859C72.9708 104.859 75.2635 101.345 75.2635 97.0088C75.2635 92.673 72.9708 89.1582 70.1425 89.1582C67.3142 89.1582 65.0215 92.673 65.0215 97.0088C65.0215 101.345 67.3142 104.859 70.1425 104.859Z" fill="#536DFE"/>
<path opacity="0.3" d="M70.1425 102.242C72.028 102.242 73.5566 99.8993 73.5566 97.0087C73.5566 94.1182 72.028 91.775 70.1425 91.775C68.257 91.775 66.7285 94.1182 66.7285 97.0087C66.7285 99.8993 68.257 102.242 70.1425 102.242Z" fill="#536DFE"/>
<path d="M70.1423 100.643C71.4517 100.643 72.5132 99.016 72.5132 97.0087C72.5132 95.0014 71.4517 93.3741 70.1423 93.3741C68.8329 93.3741 67.7715 95.0014 67.7715 97.0087C67.7715 99.016 68.8329 100.643 70.1423 100.643Z" fill="#2E2F3E"/>
<path opacity="0.3" d="M113.232 85.4032C116.061 85.4032 118.353 81.8884 118.353 77.5526C118.353 73.2169 116.061 69.702 113.232 69.702C110.404 69.702 108.111 73.2169 108.111 77.5526C108.111 81.8884 110.404 85.4032 113.232 85.4032Z" fill="#536DFE"/>
<path opacity="0.3" d="M113.232 82.7863C115.118 82.7863 116.646 80.4431 116.646 77.5526C116.646 74.6621 115.118 72.3188 113.232 72.3188C111.347 72.3188 109.818 74.6621 109.818 77.5526C109.818 80.4431 111.347 82.7863 113.232 82.7863Z" fill="#536DFE"/>
<path d="M113.232 81.1872C114.542 81.1872 115.603 79.5599 115.603 77.5526C115.603 75.5453 114.542 73.9181 113.232 73.9181C111.923 73.9181 110.861 75.5453 110.861 77.5526C110.861 79.5599 111.923 81.1872 113.232 81.1872Z" fill="#2E2F3E"/>
<path opacity="0.3" d="M114.146 139.896C116.975 139.896 119.267 136.381 119.267 132.046C119.267 127.71 116.975 124.195 114.146 124.195C111.318 124.195 109.025 127.71 109.025 132.046C109.025 136.381 111.318 139.896 114.146 139.896Z" fill="#536DFE"/>
<path opacity="0.3" d="M114.145 137.279C116.031 137.279 117.559 134.936 117.559 132.046C117.559 129.155 116.031 126.812 114.145 126.812C112.26 126.812 110.731 129.155 110.731 132.046C110.731 134.936 112.26 137.279 114.145 137.279Z" fill="#536DFE"/>
<path d="M114.146 135.68C115.456 135.68 116.517 134.053 116.517 132.046C116.517 130.038 115.456 128.411 114.146 128.411C112.837 128.411 111.775 130.038 111.775 132.046C111.775 134.053 112.837 135.68 114.146 135.68Z" fill="#536DFE"/>
<path d="M61.663 92.712C61.663 92.712 65.3625 90.8276 65.3033 92.455C65.2442 94.0824 61.5742 95.1531 61.5742 95.1531L61.663 92.712Z" fill="#FFB9B9"/>
<path d="M59.6335 106.482C59.6335 106.482 61.3789 111.036 62.0238 114.322C62.6687 117.609 63.6508 122.131 62.3875 125.339C61.1242 128.546 57.5325 137.973 57.4955 138.99C57.4585 140.007 57.8032 141.04 57.0399 141.008C56.2766 140.977 52.123 139.583 51.9544 138.965C51.7858 138.346 53.3715 136.782 53.3715 136.782L57.2872 123.702L53.2018 115.18L50.255 127.893L49.6778 143.76C49.6778 143.76 46.8452 142.828 46.4339 143.626C46.4339 143.626 45.1648 141.74 45.0036 140.918C44.8424 140.097 45.603 124.441 45.603 124.441C45.603 124.441 43.0028 106.609 45.1018 106.696C47.2008 106.783 55.4223 101.418 59.6335 106.482Z" fill="#2F2E41"/>
<path d="M57.0684 140.195C57.0684 140.195 59.0046 144.757 59.188 144.968C59.3714 145.18 60.6332 147.269 59.6791 147.23C58.725 147.19 56.4722 146.078 54.814 144.38C53.1559 142.682 50.9696 139.739 51.1678 139.543C51.3661 139.348 52.724 138.793 52.724 138.793L57.0684 140.195Z" fill="#2F2E41"/>
<path d="M49.3342 142.727C49.3342 142.727 49.451 144.769 49.803 145.599C50.155 146.428 50.1106 147.649 49.1566 147.609C48.2025 147.57 45.7366 147.061 45.7366 147.061C45.7366 147.061 45.5902 145.832 45.7884 145.637C45.9867 145.441 46.8313 143.235 46.4719 142.609C46.1124 141.983 49.3342 142.727 49.3342 142.727Z" fill="#2F2E41"/>
<path d="M47.9211 76.4568C47.9211 76.4568 45.8871 79.8361 45.0943 80.6182C44.3014 81.4004 46.532 83.1224 46.532 83.1224L50.5244 83.6949C50.5244 83.6949 50.4742 79.822 50.6798 79.423C50.8854 79.0241 47.9211 76.4568 47.9211 76.4568Z" fill="#FFB9B9"/>
<path d="M51.3924 80.8785C51.3924 80.8785 50.57 82.4743 49.8067 82.4428C49.0434 82.4112 45.0955 80.6182 44.9268 80C44.7582 79.3818 43.6191 84.428 43.6191 84.428L53.2795 102.552L55.636 100.816L54.4942 90.1745L53.5565 84.4313L51.3924 80.8785Z" fill="#3300C4"/>
<path d="M44.5695 97.0986C44.9549 97.958 45.1955 98.8541 45.1622 99.7716C45.1607 99.8123 45.1592 99.853 45.1558 99.8936C45.0644 101.776 44.4138 103.954 44.1804 105.537C44.011 106.673 44.0592 107.502 44.6828 107.697C46.1945 108.167 44.4623 108.503 50.3111 110.578C56.1598 112.654 57.1805 110.862 57.1953 110.456C57.2101 110.049 56.367 106.958 56.5653 106.762C56.7635 106.567 59.3387 109.322 60.1168 108.946C60.8949 108.571 60.2056 106.505 60.2056 106.505C60.2056 106.505 58.4528 102.155 58.4898 101.137C58.5268 100.12 55.8347 95.3233 55.8347 95.3233L54.0037 82.6163C54.0037 82.6163 53.2996 80.9574 52.3529 80.7145C51.4062 80.4717 50.6208 81.0504 50.6208 81.0504L52.2049 84.783L53.8763 91.3715L53.5967 93.8047C53.5967 93.8047 51.6531 89.446 50.3766 87.7634C49.1 86.0808 46.3784 82.0974 46.3784 82.0974C46.3784 82.0974 45.743 79.8117 46.2226 79.1287C46.7024 78.4436 44.2218 78.3411 43.1641 81.1496C42.6035 82.6381 41.6934 84.8578 41.1232 86.9245C40.6152 88.7554 40.3752 90.467 40.8785 91.4453C41.6478 92.9399 43.583 94.9044 44.5695 97.0986Z" fill="#575A89"/>
<path opacity="0.1" d="M40.8785 91.4454C41.6478 92.9399 43.583 94.9044 44.5695 97.0987C44.8272 96.109 45.1415 95.085 45.1415 95.085C45.1415 95.085 46.3472 88.208 42.7809 86.4308C42.19 86.3699 41.5989 86.5459 41.1232 86.9245C40.6152 88.7554 40.3752 90.467 40.8785 91.4454Z" fill="black"/>
<path d="M55.0368 91.012L58.0603 91.9519L62.2583 92.1254L62.6901 96.0141L55.7911 96.5439C55.7911 96.5439 54.0679 91.3794 55.0368 91.012Z" fill="#575A89"/>
<path d="M50.1055 104.087C50.1055 104.087 54.1503 104.802 53.2271 106.1C52.3039 107.398 48.7207 106.033 48.7207 106.033L50.1055 104.087Z" fill="#FFB9B9"/>
<path opacity="0.1" d="M45.1561 99.8937C45.0647 101.776 44.4141 103.954 44.1807 105.537C45.4692 106.838 46.6945 107.984 47.1563 108.003C48.1104 108.043 49.6443 107.902 50.2094 108.13C50.7744 108.357 51.1058 104.499 51.1058 104.499C51.1058 104.499 50.7686 103.263 49.2642 102.59C48.2488 102.134 46.3025 100.899 45.1561 99.8937Z" fill="black"/>
<path d="M42.8251 85.2101C42.8251 85.2101 39.596 84.6692 39.7705 90.3808C39.9449 96.0925 39.4301 99.7383 40.7288 100.811C42.0276 101.883 46.2462 106.743 47.2003 106.783C48.1544 106.822 49.6883 106.682 50.2534 106.909C50.8184 107.136 51.1498 103.279 51.1498 103.279C51.1498 103.279 50.8126 102.042 49.3082 101.369C47.8039 100.696 44.2598 98.3081 44.2894 97.4944C44.3189 96.6807 45.1858 93.8644 45.1858 93.8644C45.1858 93.8644 46.3915 86.9874 42.8251 85.2101Z" fill="#575A89"/>
<path d="M50.7695 81.4606C53.0897 81.4606 54.9706 79.4554 54.9706 76.9819C54.9706 74.5084 53.0897 72.5032 50.7695 72.5032C48.4493 72.5032 46.5684 74.5084 46.5684 76.9819C46.5684 79.4554 48.4493 81.4606 50.7695 81.4606Z" fill="#FFB9B9"/>
<path d="M53.5978 70.5626C53.6991 70.6557 53.8205 70.7206 53.951 70.7516C54.0166 70.764 54.0841 70.7483 54.1388 70.7079C54.1935 70.6675 54.231 70.6056 54.2431 70.5358C54.3393 70.7484 54.4477 70.9748 54.644 71.0839C54.8402 71.1929 55.1437 71.1015 55.1719 70.8675C55.2006 71.0452 55.2743 71.2111 55.3851 71.3472C55.5069 71.471 55.7277 71.5022 55.834 71.3632C55.748 71.8639 55.8011 72.3788 55.7741 72.887C55.7471 73.3952 55.62 73.934 55.2598 74.2681C54.7346 74.7555 53.9448 74.6352 53.2538 74.5429C53.1494 74.5195 53.0409 74.5258 52.9395 74.5612C52.6808 74.6787 52.6925 75.0626 52.689 75.3624C52.6679 75.8883 52.4727 76.3893 52.1379 76.7763C51.8032 77.1633 51.3506 77.4113 50.8606 77.4763C50.5863 77.5215 50.3065 77.4486 50.0826 77.2739C49.8864 77.0967 49.7862 76.8077 49.5614 76.6746C49.1958 76.458 48.7523 76.7739 48.485 77.1169C48.2177 77.4599 47.9542 77.8818 47.5401 77.9445C46.9923 78.0276 46.5752 77.4325 46.3705 76.8846C46.0881 76.1166 45.9528 75.2961 45.9726 74.4715C45.9924 73.6469 46.1668 72.8349 46.4857 72.0833C47.6293 69.4256 51.5361 69.0052 53.5978 70.5626Z" fill="#2F2E41"/>
</g>
</svg>
