<svg width="200" height="200" viewBox="0 0 200 200" fill="none" xmlns="http://www.w3.org/2000/svg">
<mask id="mask0" mask-type="alpha" maskUnits="userSpaceOnUse" x="0" y="0" width="200" height="200">
<path fill-rule="evenodd" clip-rule="evenodd" d="M86.5333 0.00435351C115.967 -0.424039 132.378 30.8593 152.65 51.4434C172.055 71.1471 199.37 88.0379 199.987 115.206C200.611 142.637 178.175 165.11 155.614 181.827C135.992 196.366 111.269 198.611 86.5333 199.272C60.7706 199.96 31.4914 203.435 13.5173 185.622C-4.35752 167.908 0.0540811 139.872 1.70723 115.206C3.21364 92.7287 8.86045 71.7041 22.3829 53.3394C39.376 30.2613 57.1868 0.431482 86.5333 0.00435351Z" fill="#C4C4C4"/>
</mask>
<g mask="url(#mask0)">
<rect x="-54.0635" y="-30.9679" width="288.345" height="270.495" fill="#A7A9BE"/>
<path d="M177.588 84.976H63.0771V138.964H177.588V84.976Z" fill="#3F3D56"/>
<path d="M95.4463 103.155H83.8496V104.05H95.4463V103.155Z" fill="#536DFE"/>
<path d="M110.91 103.155H99.3135V104.05H110.91V103.155Z" fill="#536DFE"/>
<path d="M133.379 111.432H121.782V112.327H133.379V111.432Z" fill="#536DFE"/>
<path d="M149.082 111.432H137.485V112.327H149.082V111.432Z" fill="#536DFE"/>
<path d="M149.081 103.155H115.016V104.05H149.081V103.155Z" fill="#536DFE"/>
<path d="M117.915 111.432H83.8496V112.327H117.915V111.432Z" fill="#536DFE"/>
<path d="M117.915 119.711H83.8496V120.605H117.915V119.711Z" fill="#536DFE"/>
<path d="M149.082 119.711H125.405V120.605H149.082V119.711Z" fill="#536DFE"/>
<path d="M80.5916 106.933L76.5117 103.155L80.5916 99.3768L81.4079 100.133L78.1442 103.155L81.4079 106.177L80.5916 106.933Z" fill="#536DFE"/>
<path d="M160.074 124.384L159.258 123.628L162.522 120.605L159.258 117.583L160.074 116.827L164.154 120.605L160.074 124.384Z" fill="#536DFE"/>
<path d="M155.777 116.647L153.36 124.03L154.465 124.34L156.881 116.957L155.777 116.647Z" fill="#536DFE"/>
<path d="M37.078 154.763L36.4561 160.017L41.4335 159.708V155.227L37.078 154.763Z" fill="#FFB8B8"/>
<path d="M32.5164 154.763L33.1386 160.017L28.1611 159.708V155.227L32.5164 154.763Z" fill="#FFB8B8"/>
<path d="M45.5413 114.375C45.5413 114.375 47.2041 122.082 47.2041 123.206C47.2041 124.329 46.5805 131.554 45.5413 132.999C44.5021 134.444 44.2942 135.087 44.7099 135.729C45.1256 136.371 44.9178 136.211 44.7099 136.692C44.5021 137.174 44.0864 137.013 44.7099 137.656C44.9645 137.938 45.101 138.274 45.101 138.619C45.101 138.963 44.9645 139.299 44.7099 139.582C44.2942 140.064 45.5413 153.069 43.8785 154.032C42.2157 154.996 41.8 158.207 41.8 158.207L36.396 157.725V154.193C36.396 154.193 35.1489 151.624 35.9803 150.018C36.8117 148.413 37.2274 139.903 37.2274 139.903C37.2274 139.903 37.0195 139.101 37.2274 138.619C37.4352 138.137 37.2274 137.816 36.8117 137.656C36.396 137.495 36.1881 136.853 36.1881 136.853L35.5646 125.132L33.0704 136.692C33.0704 136.692 35.5646 152.427 33.0704 154.514V158.207H27.6663L28.4977 154.193C28.4977 154.193 26.8349 150.5 27.6663 149.697C28.4977 148.894 25.1722 136.05 25.5879 135.568C26.0036 135.087 25.7957 134.926 25.5879 134.605C25.38 134.284 24.7565 133.963 24.9643 133.642C25.1722 133.321 24.9643 132.678 24.9643 132.678C24.9643 132.678 21.0152 117.586 22.8858 116.141C24.7565 114.696 45.5413 114.375 45.5413 114.375Z" fill="#2F2E41"/>
<path d="M37.6986 158.008C37.6986 158.008 38.1134 156.526 41.4318 157.035C41.4318 157.035 42.2614 158.317 42.2614 158.935C42.2614 159.553 43.091 163.725 43.091 163.725C43.091 163.725 46.4094 167.897 42.2614 167.897C38.1134 167.897 36.6616 166.815 36.4542 165.734C36.2468 164.652 36.6616 164.343 35.832 163.88C35.0024 163.416 34.5876 163.416 34.795 162.798C35.0024 162.18 35.4172 159.09 35.4172 159.09C35.4172 159.09 35.6246 156.772 36.7653 157.39L37.906 158.008" fill="#2F2E41"/>
<path d="M31.8922 158.008C31.8922 158.008 31.4774 156.526 28.159 157.035C28.159 157.035 27.3294 158.317 27.3294 158.935C27.3294 159.553 26.4998 163.725 26.4998 163.725C26.4998 163.725 23.1814 167.897 27.3294 167.897C31.4774 167.897 32.9292 166.815 33.1366 165.734C33.344 164.652 32.9292 164.343 33.7588 163.88C34.5884 163.416 35.0032 163.416 34.7958 162.798C34.5884 162.18 34.1736 159.09 34.1736 159.09C34.1736 159.09 33.9662 156.772 32.8255 157.39L31.6848 158.008" fill="#2F2E41"/>
<path d="M37.9084 86.0051C41.0011 86.0051 43.5082 84.1373 43.5082 81.8332C43.5082 79.5292 41.0011 77.6614 37.9084 77.6614C34.8157 77.6614 32.3086 79.5292 32.3086 81.8332C32.3086 84.1373 34.8157 86.0051 37.9084 86.0051Z" fill="#FFB8B8"/>
<path d="M33.3455 82.4514C33.3455 82.4514 31.0641 89.0955 30.6493 89.25C30.2345 89.4045 40.1897 90.0226 40.1897 90.0226C40.1897 90.0226 37.7009 84.3056 40.1897 83.3785L33.3455 82.4514Z" fill="#FFB8B8"/>
<path d="M31.8869 86.5001L31.8866 86.4993L25.0479 90.0224L26.2923 117.68C26.2923 117.68 35.4179 116.908 37.4919 117.062C39.5659 117.217 46.2027 115.672 46.2027 115.672L43.2956 89.6827C43.2388 89.1749 42.9401 88.6989 42.4533 88.3409C41.9666 87.9829 41.324 87.7664 40.6417 87.7305L39.3961 87.6651C39.3961 87.6651 38.1518 89.9603 34.408 88.7762C33.7768 88.5716 33.2194 88.2588 32.7812 87.8633C32.3431 87.4677 32.0367 87.0007 31.8869 86.5001V86.5001Z" fill="#3300C4"/>
<path d="M32.0532 86.2479L23.597 89.2499L21.9378 107.019C21.9378 107.019 18.6194 117.68 21.3156 120.771C24.0118 123.861 28.5746 124.17 28.5746 124.17C28.5746 124.17 34.5892 106.401 32.93 100.375C31.2708 94.3489 32.0532 86.2479 32.0532 86.2479Z" fill="#575A89"/>
<path d="M16.1308 113.045V115.362C16.1308 115.362 14.8864 120.461 18.827 120.307C22.7676 120.152 20.901 114.744 20.901 114.744L19.6566 113.045H16.1308Z" fill="#FFB8B8"/>
<path d="M52.6341 117.68L52.2192 120.307C52.2192 120.307 54.2933 125.56 50.3527 125.715C46.412 125.869 49.2724 120.339 49.2724 120.339L50.56 117.371L52.6341 117.68Z" fill="#FFB8B8"/>
<path d="M39.2708 87.1254C43.0498 87.8188 46.5517 89.175 49.4847 91.081L49.5206 91.1043L46.617 102.538L46.2022 106.71C46.2022 106.71 53.876 127.106 44.9578 124.17C44.9578 124.17 37.284 106.401 38.321 98.2119C39.358 90.0227 39.2708 87.1254 39.2708 87.1254Z" fill="#575A89"/>
<path d="M46.8246 90.9495C47.032 90.795 49.5208 91.1643 49.5208 91.1643C49.5208 91.1643 54.0836 103.156 54.0836 105.165C54.0836 107.173 54.7058 118.607 54.7058 118.607L49.2311 119.018L44.7998 103.132L46.8246 90.9495Z" fill="#575A89"/>
<path d="M25.049 89.2499H23.5972C23.5972 89.2499 19.4492 90.486 19.2418 91.8766C19.0344 93.2672 13.4346 107.328 13.4346 107.328L14.8864 114.435L20.2788 113.817L21.3158 105.937L26.7082 97.2846L25.049 89.2499Z" fill="#575A89"/>
<path d="M36.8184 82.9977L37.0331 81.8827C37.0831 81.6228 37.2873 81.2811 37.6267 81.3517C37.9153 81.4119 38.5443 81.596 38.6496 81.5404C39.0439 81.3323 39.6407 81.6962 40.0553 81.5113C40.2291 81.4338 40.3424 81.2679 40.5443 81.2568C40.6798 81.2633 40.8075 81.3064 40.9033 81.378C41.1725 81.5524 41.4897 81.6807 41.8325 81.7541C42.0046 81.789 42.186 81.7889 42.358 81.754C42.53 81.7191 42.6864 81.6505 42.8108 81.5554C42.8548 81.5047 42.914 81.4624 42.9838 81.4319C43.0657 81.4143 43.1531 81.4173 43.2326 81.4404L44.2921 81.6553C44.4479 81.2344 44.4799 80.7934 44.3859 80.3624C44.2919 79.9314 44.0741 79.5206 43.7474 79.1581C43.3176 78.7235 42.7965 78.3433 42.2042 78.0322C41.5481 77.6603 40.8709 77.3105 40.1728 76.9829C39.4326 76.5927 38.5925 76.3204 37.7048 76.1829C36.8113 76.0819 35.8109 76.2627 35.2489 76.79C34.9845 76.6474 34.7858 76.4475 34.6801 76.2175C34.617 76.2602 34.5674 76.3127 34.5346 76.3713C34.5018 76.4298 34.4866 76.4931 34.4902 76.5565C34.4938 76.6199 34.516 76.6819 34.5553 76.7383C34.5946 76.7946 34.65 76.8438 34.7176 76.8824L33.8216 76.4561C33.5697 76.6531 34.0618 77.0104 33.8472 77.2306C33.7823 77.2851 33.699 77.3256 33.6059 77.348C33.1194 77.4892 32.6735 77.6983 32.2921 77.9641C31.8092 78.3739 31.4556 78.8592 31.2573 79.3841C30.7234 80.5254 30.3353 81.8341 31.0939 82.9024C31.1799 83.0235 32.3152 85.0224 32.4665 85.1004C32.9778 85.3639 32.6449 84.7262 33.0113 85.1004C33.2986 85.3938 33.2448 84.2708 33.6718 84.5173C33.8392 84.6065 34.0377 84.6577 34.2433 84.6645C34.4489 84.6714 34.6528 84.6338 34.8303 84.5561C35.0073 84.4646 34.9503 83.9568 34.8548 83.4904C34.8365 83.4015 34.8478 83.3107 34.8876 83.2259C34.9274 83.141 34.9945 83.0648 35.0831 83.0037C35.1716 82.9427 35.2789 82.8988 35.3956 82.8759C35.5122 82.853 35.6346 82.8517 35.7521 82.8722C36.2839 82.9654 36.8093 83.045 36.8184 82.9977Z" fill="#2F2E41"/>
<path opacity="0.2" d="M47.3438 104.933L49.625 118.994H48.1732L47.3438 104.933Z" fill="black"/>
<path opacity="0.2" d="M23.2872 99.525L22.1338 104.933L24.3242 99.525H23.702H23.2872Z" fill="black"/>
</g>
</svg>
