<svg width="200" height="200" viewBox="0 0 200 200" fill="none" xmlns="http://www.w3.org/2000/svg">
<mask id="mask0" mask-type="alpha" maskUnits="userSpaceOnUse" x="0" y="0" width="200" height="200">
<path fill-rule="evenodd" clip-rule="evenodd" d="M116.406 0.00189859C145.936 -0.296233 157.732 34.5833 174 57.7531C187.509 76.992 201.666 95.8436 199.84 118.831C197.583 147.248 189.72 178.498 163.299 192.466C135.567 207.128 102.022 197.888 72.8383 185.975C41.6989 173.264 3.27948 157.65 0.154442 125.873C-2.85636 95.2566 38.8989 82.1177 60.3417 58.9005C79.6722 37.9705 86.9221 0.299557 116.406 0.00189859Z" fill="#C4C4C4"/>
</mask>
<g mask="url(#mask0)">
<path d="M208.8 -9.59998H0V206.8H208.8V-9.59998Z" fill="#FF8906"/>
<path d="M91.7328 179.19C101.54 179.19 109.491 177.777 109.491 176.034C109.491 174.29 101.54 172.877 91.7328 172.877C81.9252 172.877 73.9746 174.29 73.9746 176.034C73.9746 177.777 81.9252 179.19 91.7328 179.19Z" fill="#FFFFFE"/>
<path d="M137.983 98.4966H131.279V104.875H137.983V98.4966Z" fill="#3F3D56"/>
<path d="M137.983 108.774H131.279V115.153H137.983V108.774Z" fill="#536DFE"/>
<path d="M137.983 119.051H131.279V125.43H137.983V119.051Z" fill="#FFFFFE"/>
<path d="M128.234 61.2H62.4004V133.142H128.234V61.2Z" fill="white"/>
<path d="M118.241 106.644H72.4824V108.864H118.241V106.644Z" fill="#E6E6E6"/>
<path d="M118.241 113.811H72.4824V116.031H118.241V113.811Z" fill="#536DFE"/>
<path d="M118.241 120.978H72.4824V123.197H118.241V120.978Z" fill="#E6E6E6"/>
<path d="M118.125 69.4692H72.5078V97.3089H118.125V69.4692Z" fill="#E6E6E6"/>
<path d="M72.6378 69.2302L72.3799 69.7083L117.997 97.5479L118.255 97.0699L72.6378 69.2302Z" fill="white"/>
<path d="M117.997 69.232L72.3779 97.068L72.6359 97.5461L118.255 69.7101L117.997 69.232Z" fill="white"/>
<path d="M118.206 67.9633H72.3613V97.0104H118.206V67.9633Z" fill="#536DFE"/>
<path d="M95.2841 73.631C93.3631 73.631 91.4852 74.1504 89.8879 75.1235C88.2907 76.0965 87.0458 77.4796 86.3106 79.0978C85.5755 80.716 85.3832 82.4966 85.7579 84.2145C86.1327 85.9324 87.0577 87.5103 88.4161 88.7488C89.7744 89.9873 91.5051 90.8308 93.3892 91.1725C95.2733 91.5142 97.2262 91.3388 99.001 90.6685C100.776 89.9982 102.293 88.8632 103.36 87.4068C104.427 85.9505 104.997 84.2383 104.997 82.4868C104.989 80.1402 103.964 77.8917 102.144 76.2324C100.324 74.5731 97.8577 73.6379 95.2841 73.631V73.631ZM95.2841 76.2877C95.8604 76.2877 96.4237 76.4436 96.9029 76.7355C97.3821 77.0274 97.7555 77.4423 97.9761 77.9278C98.1966 78.4132 98.2543 78.9474 98.1419 79.4628C98.0295 79.9781 97.752 80.4515 97.3444 80.8231C96.9369 81.1946 96.4177 81.4477 95.8525 81.5502C95.2873 81.6527 94.7014 81.6001 94.169 81.399C93.6365 81.1979 93.1815 80.8574 92.8613 80.4205C92.5411 79.9836 92.3702 79.4699 92.3702 78.9445C92.3728 78.2406 92.6806 77.5662 93.2265 77.0685C93.7724 76.5707 94.5121 76.2901 95.2841 76.2877V76.2877ZM95.2841 89.0776C94.133 89.0728 93.0006 88.812 91.985 88.3179C90.9695 87.8238 90.1015 87.1112 89.4564 86.242C89.5031 84.4708 93.3415 83.4959 95.2841 83.4959C97.2266 83.4959 101.065 84.4708 101.112 86.242C100.466 87.1106 99.5977 87.8226 98.5823 88.3167C97.567 88.8107 96.4349 89.0719 95.2841 89.0776V89.0776Z" fill="white"/>
<path d="M75.3101 119.179L75.0448 119.595L74.2487 116.474C74.2487 116.474 73.1874 113.144 75.3101 113.144C77.4329 113.144 76.9022 116.474 76.9022 116.474V118.763L75.3101 119.179Z" fill="#A0616A"/>
<path d="M110.125 118.753L110.39 119.169L111.186 116.047C111.186 116.047 112.247 112.718 110.125 112.718C108.002 112.718 108.533 116.047 108.533 116.047V118.337L110.125 118.753Z" fill="#A0616A"/>
<path d="M86.9857 142.584L83.8018 157.985L85.3935 172.969L89.1084 171.72L88.5778 160.482L92.2926 151.533L93.0885 162.147L91.4967 173.177L96.2727 173.593L99.7223 150.908L99.457 143.208L86.9857 142.584Z" fill="#2F2E41"/>
<path d="M86.9843 171.096L85.127 173.385V178.501C85.127 178.648 85.1938 178.791 85.3156 178.903C85.4374 179.015 85.6061 179.089 85.7916 179.113C86.7019 179.23 88.2871 179.313 88.8418 178.588C89.6378 177.548 89.1071 175.258 89.1071 175.258C89.1071 175.258 90.1685 173.593 89.6378 172.345C89.1071 171.096 88.5764 170.888 88.5764 170.888L86.9843 171.096Z" fill="#2F2E41"/>
<path d="M94.9458 173.177L95.4765 173.801C95.4765 173.801 96.2725 174.426 95.7419 174.842C95.3524 175.166 94.9974 175.514 94.6805 175.883C94.6805 175.883 91.7617 176.507 91.7617 175.675V172.969L94.9458 173.177Z" fill="#2F2E41"/>
<path d="M93.989 125.645C95.9315 125.645 97.5063 124.41 97.5063 122.887C97.5063 121.363 95.9315 120.128 93.989 120.128C92.0464 120.128 90.4717 121.363 90.4717 122.887C90.4717 124.41 92.0464 125.645 93.989 125.645Z" fill="#A0616A"/>
<path d="M91.6296 123.749L91.3643 127.703L96.1403 127.911L95.875 123.957L91.6296 123.749Z" fill="#A0616A"/>
<path d="M96.8022 128.016L96.0489 126.572C96.0489 126.572 92.5567 125.518 91.4953 126.559L90.9646 127.807L86.7191 126.975L84.3311 131.137L86.4538 143C86.4538 143 92.026 148.619 99.4556 143.208L101.578 131.97L99.9863 127.599L96.8022 128.016Z" fill="#575A89"/>
<path d="M99.457 128.432L99.9876 127.599L105.295 125.102L108.533 117.583L111.039 118.425L108.213 127.391L100.518 133.01L99.457 128.432Z" fill="#575A89"/>
<path d="M87.2503 127.391L86.7197 126.975L81.1474 124.269L77.1673 118.026L73.9834 118.858L77.4326 126.559L85.9238 131.97L87.2503 127.391Z" fill="#575A89"/>
<path d="M96.5991 118.662L97.1742 118.436L96.3115 118.211V117.985C96.3115 117.985 91.9984 116.632 91.4233 118.887C90.6811 119.669 90.2803 120.619 90.2803 121.594C90.2803 122.569 90.6811 123.518 91.4233 124.3V124.977L96.024 125.428L96.5991 124.074C96.5991 124.074 99.4745 120.015 96.5991 118.662Z" fill="#2F2E41"/>
<path d="M170.94 104.069H170.648V98.198C170.648 97.7518 170.528 97.3099 170.295 96.8977C170.062 96.4854 169.72 96.1108 169.29 95.7953C168.859 95.4798 168.348 95.2295 167.785 95.0587C167.223 94.8879 166.62 94.8 166.011 94.8H149.037C148.428 94.8 147.825 94.8879 147.263 95.0587C146.7 95.2295 146.189 95.4798 145.759 95.7953C145.328 96.1108 144.986 96.4854 144.753 96.8977C144.52 97.3099 144.4 97.7518 144.4 98.198V130.406C144.4 130.853 144.52 131.295 144.753 131.707C144.986 132.119 145.328 132.494 145.759 132.809C146.189 133.125 146.7 133.375 147.263 133.546C147.825 133.717 148.428 133.804 149.037 133.804H166.011C166.62 133.804 167.223 133.717 167.785 133.546C168.348 133.375 168.859 133.125 169.29 132.809C169.72 132.494 170.062 132.119 170.295 131.707C170.528 131.295 170.648 130.853 170.648 130.406V108.248H170.94V104.069Z" fill="#3F3D56"/>
<path d="M166.008 95.6841H163.793C163.895 95.8671 163.933 96.0657 163.906 96.2624C163.878 96.4591 163.785 96.6478 163.635 96.8119C163.484 96.9759 163.281 97.1104 163.043 97.2034C162.805 97.2963 162.539 97.345 162.269 97.345H152.546C152.276 97.345 152.01 97.2963 151.772 97.2034C151.534 97.1104 151.331 96.9759 151.18 96.8119C151.03 96.6478 150.937 96.4591 150.909 96.2624C150.882 96.0657 150.92 95.8671 151.022 95.6841H148.953C148.498 95.6841 148.048 95.7497 147.628 95.8772C147.208 96.0048 146.826 96.1917 146.504 96.4273C146.183 96.6629 145.928 96.9427 145.754 97.2505C145.58 97.5584 145.49 97.8884 145.49 98.2216V130.383C145.49 130.716 145.58 131.046 145.754 131.354C145.928 131.662 146.183 131.942 146.504 132.177C146.826 132.413 147.208 132.6 147.628 132.727C148.048 132.855 148.498 132.92 148.953 132.92H166.008C166.463 132.92 166.913 132.855 167.333 132.727C167.754 132.6 168.135 132.413 168.457 132.177C168.778 131.942 169.033 131.662 169.207 131.354C169.381 131.046 169.471 130.716 169.471 130.383V98.2216C169.471 97.5486 169.106 96.9032 168.457 96.4273C167.807 95.9514 166.927 95.6841 166.008 95.6841V95.6841Z" fill="white"/>
<path d="M167.465 116.932H147.876V118.053H167.465V116.932Z" fill="#E6E6E6"/>
<path d="M167.465 120.414H147.876V121.535H167.465V120.414Z" fill="#E6E6E6"/>
<path d="M167.465 123.896H147.876V125.017H167.465V123.896Z" fill="#E6E6E6"/>
<path d="M162.921 102.396H152.038V110.371H162.921V102.396Z" fill="#536DFE"/>
<path d="M152.257 102.286L151.988 102.483L162.822 110.423L163.091 110.226L152.257 102.286Z" fill="white"/>
<path d="M162.822 102.286L151.988 110.226L152.257 110.423L163.091 102.483L162.822 102.286Z" fill="white"/>
</g>
</svg>
